<svg width="69" height="69" viewBox="0 0 69 69" fill="none" xmlns="http://www.w3.org/2000/svg">
<path d="M66.7 69H4.6C3.38 69 2.20998 68.5154 1.34731 67.6527C0.484642 66.79 0 65.62 0 64.4V2.3C0 1.69 0.242321 1.10499 0.673654 0.673654C1.10499 0.242321 1.69 0 2.3 0C2.91 0 3.49501 0.242321 3.92635 0.673654C4.35768 1.10499 4.6 1.69 4.6 2.3V64.4H66.7C67.31 64.4 67.895 64.6423 68.3263 65.0737C68.7577 65.505 69 66.09 69 66.7C69 67.31 68.7577 67.895 68.3263 68.3263C67.895 68.7577 67.31 69 66.7 69Z" fill="white"/>
<path d="M20.2375 59.7486H14.4554C13.0752 59.7486 11.7516 59.2068 10.7757 58.2425C9.79973 57.2782 9.25146 55.9704 9.25146 54.6066V32.8961C9.25146 31.5324 9.79973 30.2245 10.7757 29.2602C11.7516 28.2959 13.0752 27.7542 14.4554 27.7542H20.2375C21.6177 27.7542 22.9413 28.2959 23.9172 29.2602C24.8931 30.2245 25.4414 31.5324 25.4414 32.8961V54.6066C25.4414 55.9704 24.8931 57.2782 23.9172 58.2425C22.9413 59.2068 21.6177 59.7486 20.2375 59.7486Z" fill="white"/>
<path d="M40.7916 59.7486H35.1471C33.7998 59.7486 32.5077 59.2057 31.555 58.2393C30.6024 57.273 30.0671 55.9623 30.0671 54.5957V25.9685C30.0671 24.6019 30.6024 23.2912 31.555 22.3249C32.5077 21.3585 33.7998 20.8156 35.1471 20.8156H40.7916C42.1389 20.8156 43.431 21.3585 44.3837 22.3249C45.3364 23.2912 45.8716 24.6019 45.8716 25.9685V54.5957C45.8716 55.9623 45.3364 57.273 44.3837 58.2393C43.431 59.2057 42.1389 59.7486 40.7916 59.7486Z" fill="white"/>
<path d="M61.4831 59.7486H55.701C54.3208 59.7486 52.9972 59.2047 52.0213 58.2365C51.0453 57.2683 50.4971 55.9552 50.4971 54.586V16.7268C50.4971 15.3576 51.0453 14.0445 52.0213 13.0763C52.9972 12.1081 54.3208 11.5642 55.701 11.5642H61.4831C62.8633 11.5642 64.1869 12.1081 65.1628 13.0763C66.1387 14.0445 66.687 15.3576 66.687 16.7268V54.586C66.687 55.9552 66.1387 57.2683 65.1628 58.2365C64.1869 59.2047 62.8633 59.7486 61.4831 59.7486Z" fill="white"/>
</svg>
