<svg width="56" height="68" viewBox="0 0 56 68" fill="none" xmlns="http://www.w3.org/2000/svg">
<path d="M53.5493 68H13.864C13.2905 68 12.7406 67.7722 12.3352 67.3667C11.9297 66.9613 11.7019 66.4113 11.7019 65.8379C11.7019 58.6084 11.7269 22.058 11.7335 13.0788C11.7335 12.5495 11.9438 12.0418 12.318 11.6676C12.6923 11.2933 13.1999 11.083 13.7292 11.083H53.0338C53.5631 11.083 54.0707 11.2933 54.445 11.6676C54.8193 12.0418 55.0295 12.5495 55.0295 13.0788C55.0295 20.9254 55.0295 49.9701 55.0478 65.3324C55.0495 66.578 54.6936 67.4794 53.5493 68ZM30.5634 29.1445V28.3662C30.5634 26.1093 30.575 23.8541 30.5634 21.5973C30.5534 20.2319 29.622 19.3504 28.2716 19.4352C27.5206 19.4658 26.7732 19.5553 26.0363 19.703C19.7165 21.125 15.8131 27.1155 17.0172 33.5252C18.1498 39.5573 24.0472 43.6802 30.264 42.7854C35.8404 41.9821 40.1263 37.184 40.2693 31.5827C40.3092 29.9628 39.5475 29.1578 37.926 29.1495C35.7357 29.1379 33.5453 29.1495 31.355 29.1495L30.5634 29.1445ZM38.9771 27.6111C40.5487 27.6111 42.1187 27.6244 43.6904 27.6111C45.094 27.5978 45.9106 26.738 45.8807 25.3493C45.8238 22.3301 44.6065 19.4487 42.4814 17.3033C40.3564 15.1578 37.4869 13.913 34.4684 13.8272C32.9815 13.7823 32.14 14.5706 32.125 16.0641C32.1106 19.1608 32.1106 22.2581 32.125 25.3559C32.125 26.8161 32.9383 27.6028 34.3968 27.6128C35.9153 27.6194 37.442 27.6111 38.9771 27.6111ZM31.0939 47.4289C26.558 47.4289 22.0232 47.4289 17.4896 47.4289C17.1588 47.4211 16.8282 47.4529 16.505 47.5237C16.0758 47.6362 15.696 47.8878 15.425 48.2391C15.154 48.5904 15.0069 49.0216 15.0069 49.4653C15.0069 49.9091 15.154 50.3403 15.425 50.6916C15.696 51.0429 16.0758 51.2945 16.505 51.407C16.8504 51.4801 17.2032 51.5125 17.5561 51.5035C26.5802 51.5035 35.6054 51.5035 44.6317 51.5035C44.9842 51.5122 45.3365 51.4787 45.6811 51.4037C46.1165 51.2986 46.5038 51.0502 46.7809 50.6983C47.0579 50.3464 47.2086 49.9115 47.2086 49.4637C47.2086 49.0158 47.0579 48.581 46.7809 48.2291C46.5038 47.8772 46.1165 47.6287 45.6811 47.5237C45.3578 47.4532 45.0274 47.4209 44.6965 47.4272C40.1573 47.4261 35.6203 47.4266 31.0856 47.4289H31.0939ZM31.1089 55.2239H17.6376C17.3715 55.2239 17.1054 55.2239 16.8409 55.2422C16.3857 55.2758 15.9561 55.466 15.625 55.7804C15.294 56.0947 15.0819 56.5139 15.0248 56.9668C14.9117 57.9947 15.4739 58.9077 16.4285 59.1688C16.7733 59.2453 17.1267 59.276 17.4796 59.2603C26.5491 59.2603 35.6176 59.2603 44.6849 59.2603C44.9061 59.2603 45.129 59.2603 45.3502 59.242C45.8529 59.2056 46.3229 58.979 46.6643 58.6081C47.0058 58.2373 47.193 57.7503 47.1879 57.2463C47.1879 56.0455 46.3148 55.2189 44.9776 55.2156C40.3508 55.2145 35.7251 55.2172 31.1005 55.2239H31.1089Z" fill="white"/>
<path d="M7.61391 60.9683C5.59987 60.9683 3.6773 61.0016 1.75806 60.9534C0.84667 60.9317 0.124875 60.1434 0.0167726 59.232C0.00455636 59.1216 -0.000993372 59.0105 0.000145436 58.8994C0.000145436 39.9764 0.000145436 21.0534 0.000145436 2.13046C0.000145436 0.838212 0.831702 0.0315993 2.12228 0C2.32186 0 2.51977 0 2.71934 0H44.8246C46.7072 0 47.4124 0.715138 47.414 2.62107V7.00839H10.2466C8.29579 7.00839 7.61391 7.69027 7.61391 9.63944V60.9683Z" fill="white"/>
<path d="M26.4853 23.8508V26.9692C26.4853 28.2997 26.472 29.6302 26.4853 30.949C26.5053 32.4092 27.3169 33.2009 28.7605 33.2042C30.8826 33.2042 33.0047 33.2042 35.1285 33.2042H35.8487C35.3497 36.3242 31.6776 39.0368 28.2615 38.8588C24.3216 38.6542 21.1217 35.5941 20.859 31.8521C20.5696 27.6793 23.51 24.4645 26.4853 23.8508Z" fill="white"/>
<path d="M36.2013 18.2195C38.7159 18.8132 41.1241 21.2364 41.4484 23.4866H36.2013V18.2195Z" fill="white"/>
</svg>
