<svg width="77" height="69" viewBox="0 0 77 69" fill="none" xmlns="http://www.w3.org/2000/svg">
<path d="M49.1029 26.8333C52.822 26.8333 55.8404 29.8387 55.8404 33.5417V51.7462C55.8404 56.3222 54.0147 60.7108 50.7649 63.9465C47.5151 67.1822 43.1074 69 38.5116 69C33.9157 69 29.508 67.1822 26.2582 63.9465C23.0084 60.7108 21.1827 56.3222 21.1827 51.7462V33.5417C21.1827 29.8387 24.1973 26.8333 27.9202 26.8333H49.1029ZM19.7543 26.8333C18.4068 28.451 17.5406 30.475 17.3674 32.6983L17.3288 33.5417V51.7462C17.3288 54.993 18.068 58.0673 19.3847 60.812C17.1028 61.4198 14.711 61.497 12.3943 61.0375C10.0776 60.5779 7.89808 59.594 6.02428 58.1619C4.15047 56.7297 2.63259 54.8877 1.58798 52.7782C0.54338 50.6686 4.73541e-05 48.3482 0 45.9962V33.5417C6.31576e-05 31.8581 0.635908 30.2361 1.78132 28.9977C2.92673 27.7592 4.49795 26.9949 6.1831 26.8563L6.7375 26.8333H19.7543ZM57.2687 26.8333H70.2625C73.9816 26.8333 77 29.8387 77 33.5417V46C77.0005 48.3505 76.4583 50.6696 75.4153 52.7782C74.3723 54.8868 72.8563 56.7284 70.9846 58.1607C69.1129 59.5931 66.9355 60.5778 64.6207 61.0389C62.3059 61.4999 59.9156 61.4249 57.6345 60.8197C58.7895 58.4123 59.4979 55.7597 59.6558 52.9537L59.6904 51.7462V33.5417C59.6904 30.9925 58.7818 28.6542 57.2649 26.8333H57.2687ZM38.5 0C41.5632 0 44.501 1.2116 46.6671 3.36827C48.8331 5.52494 50.05 8.45001 50.05 11.5C50.05 14.55 48.8331 17.4751 46.6671 19.6317C44.501 21.7884 41.5632 23 38.5 23C35.4367 23 32.499 21.7884 30.3329 19.6317C28.1669 17.4751 26.95 14.55 26.95 11.5C26.95 8.45001 28.1669 5.52494 30.3329 3.36827C32.499 1.2116 35.4367 0 38.5 0ZM63.525 3.83333C66.0777 3.83333 68.5259 4.843 70.3309 6.64023C72.1359 8.43745 73.15 10.875 73.15 13.4167C73.15 15.9583 72.1359 18.3959 70.3309 20.1931C68.5259 21.9903 66.0777 23 63.525 23C60.9723 23 58.5241 21.9903 56.7191 20.1931C54.9141 18.3959 53.9 15.9583 53.9 13.4167C53.9 10.875 54.9141 8.43745 56.7191 6.64023C58.5241 4.843 60.9723 3.83333 63.525 3.83333ZM13.475 3.83333C16.0277 3.83333 18.4759 4.843 20.2809 6.64023C22.0859 8.43745 23.1 10.875 23.1 13.4167C23.1 15.9583 22.0859 18.3959 20.2809 20.1931C18.4759 21.9903 16.0277 23 13.475 23C10.9223 23 8.47413 21.9903 6.6691 20.1931C4.86406 18.3959 3.85 15.9583 3.85 13.4167C3.85 10.875 4.86406 8.43745 6.6691 6.64023C8.47413 4.843 10.9223 3.83333 13.475 3.83333Z" fill="white"/>
</svg>
