<!-- Generated by IcoMoon.io -->
<svg version="1.1" xmlns="http://www.w3.org/2000/svg" width="27" height="32" viewBox="0 0 27 32">
<title>bin</title>
<path d="M18.629 30.612c0.929 0 1.684-0.278 2.266-0.833s0.894-1.302 0.938-2.24l0.898-18.932h1.563c0.269 0 0.497-0.098 0.684-0.293s0.28-0.428 0.28-0.697c0-0.269-0.096-0.499-0.286-0.69s-0.417-0.286-0.677-0.286l-5.952 0.001 0.002-1.993c0-0.938-0.289-1.678-0.866-2.22s-1.365-0.814-2.363-0.814h-4.948c-0.998 0-1.786 0.271-2.363 0.814s-0.866 1.283-0.866 2.22l-0.002 1.993-5.91-0.001c-0.26 0-0.488 0.098-0.684 0.293s-0.293 0.423-0.293 0.684c0 0.269 0.098 0.501 0.293 0.697s0.423 0.293 0.684 0.293h1.563l0.898 18.945c0.043 0.938 0.354 1.682 0.931 2.233s1.335 0.827 2.272 0.827h11.94zM16.272 6.642h-7.266l0.001-1.863c0-0.365 0.119-0.66 0.358-0.885s0.553-0.339 0.944-0.339h4.661c0.391 0 0.705 0.113 0.944 0.339s0.358 0.521 0.358 0.885l-0.001 1.863zM18.421 28.646h-11.55c-0.373 0-0.686-0.126-0.938-0.378s-0.386-0.569-0.404-0.951l-0.911-18.711h16.016l-0.859 18.711c-0.017 0.391-0.152 0.71-0.404 0.957s-0.569 0.371-0.951 0.371zM8.799 26.419c0.243 0 0.438-0.072 0.586-0.215s0.221-0.328 0.221-0.553l-0.404-13.932c0-0.226-0.076-0.408-0.228-0.547s-0.345-0.208-0.579-0.208c-0.243 0-0.441 0.072-0.592 0.215s-0.224 0.328-0.215 0.553l0.391 13.919c0.009 0.234 0.087 0.421 0.234 0.56s0.343 0.208 0.586 0.208zM12.653 26.419c0.252 0 0.456-0.072 0.612-0.215s0.234-0.328 0.234-0.553v-13.919c0-0.226-0.078-0.41-0.234-0.553s-0.36-0.215-0.612-0.215c-0.243 0-0.443 0.072-0.599 0.215s-0.234 0.328-0.234 0.553v13.919c0 0.226 0.078 0.41 0.234 0.553s0.356 0.215 0.599 0.215zM16.52 26.419c0.234 0 0.425-0.069 0.573-0.208s0.226-0.326 0.234-0.56l0.391-13.919c0.009-0.226-0.061-0.41-0.208-0.553s-0.347-0.215-0.599-0.215c-0.234 0-0.425 0.069-0.573 0.208s-0.226 0.326-0.234 0.56l-0.391 13.919c-0.009 0.226 0.061 0.41 0.208 0.553s0.347 0.215 0.599 0.215z"></path>
</svg>
