<!-- Generated by IcoMoon.io -->
<svg version="1.1" xmlns="http://www.w3.org/2000/svg" width="32" height="32" viewBox="0 0 32 32">
<title>Check</title>
<path fill="#446636" d="M16.234 30.365c2.041 0 3.962-0.391 5.764-1.172s3.391-1.86 4.768-3.237c1.377-1.377 2.456-2.966 3.237-4.768s1.172-3.723 1.172-5.764c0-2.041-0.391-3.962-1.172-5.764s-1.86-3.391-3.237-4.768c-1.377-1.377-2.969-2.456-4.775-3.237s-3.73-1.172-5.771-1.172c-2.041 0-3.962 0.391-5.764 1.172s-3.389 1.86-4.761 3.237c-1.372 1.377-2.449 2.966-3.23 4.768s-1.172 3.723-1.172 5.764c0 2.041 0.391 3.962 1.172 5.764s1.86 3.391 3.237 4.768c1.377 1.377 2.966 2.456 4.768 3.237s3.723 1.172 5.764 1.172zM16.234 27.875c-1.729 0-3.345-0.322-4.849-0.967s-2.825-1.536-3.962-2.673c-1.138-1.138-2.026-2.459-2.666-3.962s-0.959-3.12-0.959-4.849c0-1.729 0.32-3.345 0.959-4.849s1.526-2.827 2.659-3.97c1.133-1.143 2.451-2.034 3.955-2.673s3.12-0.959 4.849-0.959c1.729 0 3.345 0.32 4.849 0.959s2.827 1.531 3.97 2.673c1.143 1.143 2.036 2.466 2.681 3.97s0.967 3.12 0.967 4.849c0 1.729-0.32 3.345-0.959 4.849s-1.528 2.825-2.666 3.962c-1.138 1.138-2.461 2.029-3.97 2.673s-3.127 0.967-4.856 0.967zM14.623 22.367c0.498 0 0.894-0.225 1.187-0.674l6.694-10.547c0.088-0.137 0.168-0.286 0.242-0.447s0.11-0.325 0.11-0.491c0-0.322-0.122-0.581-0.366-0.776s-0.518-0.293-0.82-0.293c-0.41 0-0.752 0.22-1.025 0.659l-6.079 9.756-2.886-3.735c-0.176-0.234-0.349-0.393-0.52-0.476s-0.359-0.124-0.564-0.124c-0.313 0-0.579 0.115-0.798 0.344s-0.33 0.505-0.33 0.828c0 0.303 0.112 0.605 0.337 0.908l3.574 4.395c0.186 0.234 0.378 0.405 0.579 0.513s0.422 0.161 0.666 0.161z"></path>
</svg>
