<!-- Generated by IcoMoon.io -->
<svg version="1.1" xmlns="http://www.w3.org/2000/svg" width="59" height="32" viewBox="0 0 59 32">
<title>chevron</title>
<path d="M28.724 2.458c0.438 0 0.854 0.089 1.25 0.266s0.75 0.443 1.063 0.797l22.719 23.188c0.604 0.625 0.906 1.354 0.906 2.188 0 0.583-0.135 1.109-0.406 1.578s-0.641 0.839-1.109 1.109c-0.469 0.271-0.995 0.406-1.578 0.406-0.833 0-1.583-0.302-2.25-0.906l-20.614-21.137-20.636 21.137c-0.625 0.604-1.365 0.906-2.219 0.906-0.583 0-1.109-0.135-1.578-0.406s-0.839-0.641-1.109-1.109c-0.271-0.469-0.406-0.995-0.406-1.578 0-0.438 0.083-0.839 0.25-1.203s0.385-0.693 0.656-0.984l22.688-23.219c0.708-0.688 1.5-1.031 2.375-1.031z"></path>
</svg>
