<!-- Generated by IcoMoon.io -->
<svg version="1.1" xmlns="http://www.w3.org/2000/svg" width="26" height="32" viewBox="0 0 26 32">
<title>cilindro</title>
<path d="M0.637 23.949c0 1.348 0.525 2.541 1.575 3.582s2.52 1.853 4.409 2.439c1.89 0.586 4.094 0.879 6.614 0.879s4.724-0.293 6.614-0.879c1.89-0.586 3.359-1.399 4.409-2.439s1.575-2.234 1.575-3.582v-17.725c0-1.23-0.525-2.314-1.575-3.252s-2.52-1.67-4.409-2.197c-1.89-0.527-4.094-0.791-6.614-0.791s-4.724 0.264-6.614 0.791c-1.89 0.527-3.359 1.26-4.409 2.197s-1.575 2.021-1.575 3.252v17.725zM13.234 10.238c-2.051 0-3.843-0.171-5.376-0.513s-2.727-0.815-3.582-1.421c-0.854-0.605-1.282-1.299-1.282-2.080 0-0.82 0.427-1.543 1.282-2.168s2.048-1.116 3.582-1.472c1.533-0.356 3.325-0.535 5.376-0.535s3.843 0.178 5.376 0.535c1.533 0.356 2.727 0.847 3.582 1.472s1.282 1.348 1.282 2.168c0 0.781-0.427 1.475-1.282 2.080s-2.048 1.079-3.582 1.421c-1.533 0.342-3.325 0.513-5.376 0.513zM13.234 19.335c-1.484 0-2.942-0.139-4.373-0.417s-2.734-0.664-3.911-1.157c-0.672-0.282-1.274-0.588-1.804-0.92l-0.152-0.099v-6.666l0.407 0.258c0.887 0.532 1.96 0.973 3.219 1.325 1.89 0.527 4.094 0.791 6.614 0.791s4.724-0.264 6.614-0.791c1.26-0.352 2.333-0.793 3.219-1.325l0.404-0.258v6.666l-0.151 0.099c-0.532 0.331-1.135 0.638-1.81 0.92-1.182 0.493-2.485 0.879-3.911 1.157s-2.881 0.417-4.365 0.417zM13.234 28.637c-2.051 0-3.843-0.203-5.376-0.608s-2.727-0.962-3.582-1.67c-0.854-0.708-1.282-1.511-1.282-2.41l-0.001-4.717 0.035 0.018c0.325 0.174 0.67 0.342 1.036 0.502 1.279 0.562 2.71 1.001 4.292 1.318s3.208 0.476 4.878 0.476c1.67 0 3.293-0.159 4.871-0.476s3.008-0.757 4.292-1.318c0.367-0.16 0.713-0.328 1.039-0.502l0.036-0.018 0.002 4.717c0 0.898-0.427 1.702-1.282 2.41s-2.048 1.265-3.582 1.67c-1.533 0.405-3.325 0.608-5.376 0.608z"></path>
</svg>
