<!-- Generated by IcoMoon.io -->
<svg version="1.1" xmlns="http://www.w3.org/2000/svg" width="26" height="32" viewBox="0 0 26 32">
<title>doc</title>
<path d="M20.718 31.178c1.425 0 2.493-0.361 3.205-1.082s1.068-1.799 1.068-3.233v-12.518c0-0.597-0.032-1.098-0.096-1.503s-0.191-0.774-0.379-1.11c-0.188-0.335-0.466-0.692-0.834-1.068l-7.596-7.734c-0.349-0.358-0.689-0.632-1.020-0.82s-0.692-0.317-1.082-0.386c-0.391-0.069-0.843-0.103-1.358-0.103h-6.549c-1.425 0-2.493 0.363-3.205 1.089s-1.068 1.806-1.068 3.24v20.915c0 1.443 0.356 2.523 1.068 3.24s1.781 1.075 3.205 1.075h14.642zM20.608 28.959h-14.435c-0.708 0-1.243-0.184-1.606-0.551s-0.545-0.896-0.545-1.585v-20.832c0-0.68 0.181-1.209 0.545-1.585s0.903-0.565 1.62-0.565h6.135v8.010c0 0.864 0.216 1.512 0.648 1.944s1.080 0.648 1.944 0.648h7.858v12.38c0 0.689-0.182 1.218-0.545 1.585s-0.903 0.551-1.62 0.551zM22.345 12.359h-7.183c-0.276 0-0.471-0.060-0.586-0.179s-0.172-0.317-0.172-0.593v-7.321l7.941 8.093zM18.471 19.942c0.239 0 0.439-0.083 0.6-0.248s0.241-0.368 0.241-0.607c0-0.239-0.080-0.439-0.241-0.6s-0.361-0.241-0.6-0.241h-10.464c-0.248 0-0.455 0.080-0.62 0.241s-0.248 0.361-0.248 0.6c0 0.239 0.083 0.441 0.248 0.607s0.372 0.248 0.62 0.248h10.464zM18.471 24.754c0.239 0 0.439-0.080 0.6-0.241s0.241-0.356 0.241-0.586c0-0.248-0.080-0.455-0.241-0.62s-0.361-0.248-0.6-0.248h-10.464c-0.248 0-0.455 0.083-0.62 0.248s-0.248 0.372-0.248 0.62c0 0.23 0.083 0.425 0.248 0.586s0.372 0.241 0.62 0.241h10.464z"></path>
</svg>
