<!-- Generated by IcoMoon.io -->
<svg version="1.1" xmlns="http://www.w3.org/2000/svg" width="92" height="32" viewBox="0 0 92 32">
<title>fc365</title>
<path fill="#000" d="M53.063 3.017v-2.664h-17.569v2.666l11.808-0.001z"></path>
<path fill="#000" d="M61.69 28.057v2.694c-5.418-0.305-9.678-4.746-9.756-10.173h2.685c0.075 3.944 3.137 7.183 7.071 7.48z"></path>
<path fill="#fff" d="M12.583 0.338v3.105h-8.235v5.241h6.6v2.995h-6.6v8.237h-3.91v-19.578zM28.75 2.030c1.628 1.287 2.755 3.101 3.189 5.13h-4.104c-0.392-1.013-1.085-1.882-1.983-2.496-0.957-0.626-2.086-0.946-3.231-0.914-2.035-0.038-3.9 1.139-4.742 2.994-0.924 2.151-0.924 4.587 0 6.738 0.842 1.856 2.706 3.033 4.742 2.995 1.145 0.032 2.273-0.287 3.231-0.915 0.899-0.612 1.59-1.482 1.983-2.495h4.104c-0.434 2.029-1.561 3.843-3.189 5.13-1.608 1.258-3.631 1.885-6.073 1.885-1.734 0.035-3.443-0.401-4.949-1.262-1.426-0.835-2.582-2.062-3.328-3.535-1.572-3.27-1.572-7.075 0-10.343 0.744-1.472 1.894-2.699 3.314-3.537 1.51-0.863 3.225-1.299 4.963-1.261 2.44 0 4.466 0.629 6.073 1.885z"></path>
<path fill="#000" d="M64.133 9.396c-0.966-0.153-1.948-0.167-2.918-0.042l-1.878 3.196c1.030-0.44 2.143-0.644 3.261-0.598 4.042 0.014 7.373 3.178 7.59 7.214h2.689c-0.214-4.925-3.873-9.013-8.744-9.77z"></path>
<path fill="#000" d="M79.937 28.057v2.694c-5.418-0.305-9.678-4.746-9.756-10.173h2.687c0.075 3.944 3.137 7.183 7.071 7.48z"></path>
<path fill="#000" d="M88.42 19.166h2.688c-0.227-5.309-4.442-9.582-9.747-9.88v2.694c3.821 0.288 6.84 3.36 7.059 7.186z"></path>
<path fill="#000" d="M79.906 9.269h-3.815v-6.251h13.355v-2.666h-16.070v11.583l6.529 0.021v-2.687z"></path>
<path fill="#000" d="M81.36 28.018v2.694c5.418-0.305 9.678-4.747 9.756-10.173h-2.685c-0.077 3.943-3.139 7.183-7.071 7.48z"></path>
<path fill="#000" d="M36.118 20.539h-2.685c0.075 5.519 4.474 10.006 9.991 10.189v-2.689c-4.033-0.178-7.232-3.464-7.304-7.499z"></path>
<path fill="#000" d="M63.109 28.057v2.694c5.418-0.305 9.678-4.746 9.756-10.173h-2.685c-0.075 3.944-3.137 7.183-7.071 7.48z"></path>
<path fill="#000" d="M44.839 28.057v2.694c5.418-0.305 9.679-4.746 9.756-10.173h-2.685c-0.075 3.944-3.137 7.183-7.071 7.48z"></path>
<path fill="#000" d="M62.142 0.352l-8.811 14.197c-1.355-2.453-3.676-4.225-6.399-4.886l5.106-5.229h-3.698l-5.195 5.294 1.448 2.33 0.004-0.004 0.004 0.004c3.947 0.036 7.171 3.165 7.324 7.108h2.727c0.065-1.078 0.359-2.131 0.863-3.089l9.729-15.729-3.103 0.004z"></path>
</svg>
