<!-- Generated by IcoMoon.io -->
<svg version="1.1" xmlns="http://www.w3.org/2000/svg" width="36" height="32" viewBox="0 0 36 32">
<title>folder</title>
<path d="M31.688 30.655c1.396 0 2.484-0.404 3.266-1.211s1.172-2.018 1.172-3.633v-16.047c0-1.604-0.411-2.813-1.234-3.625s-2.047-1.219-3.672-1.219h-15c-0.531 0-0.979-0.070-1.344-0.211s-0.745-0.378-1.141-0.711l-0.953-0.781c-0.344-0.292-0.675-0.521-0.992-0.688s-0.667-0.286-1.047-0.359c-0.38-0.073-0.825-0.109-1.336-0.109h-4.453c-1.375 0-2.438 0.391-3.188 1.172s-1.125 1.958-1.125 3.531v19.047c0 1.615 0.409 2.826 1.227 3.633s2.044 1.211 3.68 1.211h26.141zM33.609 10.797h-30.453l0.002-3.892c0-0.771 0.198-1.354 0.594-1.75s0.969-0.594 1.719-0.594h3.297c0.521 0 0.961 0.073 1.32 0.219s0.737 0.385 1.133 0.719l0.953 0.797c0.333 0.281 0.661 0.505 0.984 0.672s0.677 0.286 1.063 0.359c0.385 0.073 0.833 0.109 1.344 0.109h15.609c0.771 0 1.37 0.208 1.797 0.625s0.641 1.031 0.641 1.844l-0.001 0.892zM31.172 28.14h-25.594c-0.781 0-1.38-0.206-1.797-0.617s-0.625-1.023-0.625-1.836l-0.002-12.53h30.453l0.001 12.546c0 0.802-0.214 1.409-0.641 1.82s-1.026 0.617-1.797 0.617z"></path>
</svg>
