<!-- Generated by IcoMoon.io -->
<svg version="1.1" xmlns="http://www.w3.org/2000/svg" width="37" height="32" viewBox="0 0 37 32">
<title>home</title>
<path fill="#fff" d="M27.856 31.792c1.083 0 1.93-0.297 2.539-0.891s0.914-1.422 0.914-2.484l-0.001-14.020 1.907 1.598c0.167 0.146 0.346 0.268 0.539 0.367s0.398 0.148 0.617 0.148c0.385 0 0.711-0.112 0.977-0.336s0.398-0.534 0.398-0.93c0-0.448-0.172-0.823-0.516-1.125l-3.922-3.291 0.001-6.209c0-0.323-0.099-0.583-0.297-0.781s-0.458-0.297-0.781-0.297h-1.797c-0.333 0-0.599 0.099-0.797 0.297s-0.297 0.458-0.297 0.781l-0.002 2.877-7.483-6.283c-0.594-0.51-1.237-0.766-1.93-0.766s-1.341 0.255-1.945 0.766l-15.391 12.922c-0.365 0.292-0.547 0.651-0.547 1.078 0 0.344 0.128 0.646 0.383 0.906s0.596 0.391 1.023 0.391c0.219 0 0.424-0.049 0.617-0.148s0.367-0.221 0.523-0.367l1.812-1.517 0.001 13.938c0 1.063 0.302 1.891 0.906 2.484s1.453 0.891 2.547 0.891h20zM27.215 29.135l-5.064 0.001 0.002-9.797c0-0.344-0.102-0.62-0.305-0.828s-0.477-0.313-0.82-0.313h-6.234c-0.354 0-0.635 0.104-0.844 0.313s-0.313 0.484-0.313 0.828l-0.002 9.797-5.139-0.001c-0.469 0-0.826-0.128-1.070-0.383s-0.367-0.617-0.367-1.086l-0.001-15.414 10.282-8.617c0.177-0.156 0.367-0.237 0.57-0.242s0.398 0.076 0.586 0.242l10.156 8.53 0 15.501c0 0.469-0.125 0.831-0.375 1.086s-0.604 0.383-1.063 0.383z"></path>
</svg>
