<!-- Generated by IcoMoon.io -->
<svg version="1.1" xmlns="http://www.w3.org/2000/svg" width="37" height="32" viewBox="0 0 37 32">
<title>left-arrow</title>
<path fill="#fff" d="M15.222 30.558c0.536 0 0.981-0.174 1.336-0.522s0.532-0.783 0.532-1.306c0-0.268-0.050-0.519-0.151-0.753s-0.231-0.432-0.392-0.593l-4.259-4.339-5.994-5.447 4.528 0.284h23.545c0.549 0 1.001-0.177 1.356-0.532s0.532-0.814 0.532-1.376c0-0.549-0.177-1.001-0.532-1.356s-0.807-0.532-1.356-0.532h-23.545l-4.496 0.272 5.962-5.455 4.259-4.319c0.161-0.161 0.291-0.362 0.392-0.603s0.151-0.489 0.151-0.743c0-0.522-0.177-0.958-0.532-1.306s-0.8-0.522-1.336-0.522c-0.254 0-0.496 0.050-0.723 0.151s-0.462 0.258-0.703 0.472l-12.516 12.536c-0.429 0.402-0.643 0.871-0.643 1.406 0 0.549 0.214 1.025 0.643 1.426l12.576 12.556c0.402 0.402 0.857 0.603 1.366 0.603z"></path>
</svg>
