<!-- Generated by IcoMoon.io -->
<svg version="1.1" xmlns="http://www.w3.org/2000/svg" width="85" height="32" viewBox="0 0 85 32">
<title>logo-side</title>
<path d="M35.109 0v32h5.232v-32z"></path>
<path d="M80.884 2.452c-1.989-1.635-4.987-2.451-8.987-2.451h-2.019v4.379h1.669c2.379 0 4.133 0.451 5.253 1.357 1.125 0.901 1.688 2.272 1.688 4.115 0 1.984-0.629 3.44-1.883 4.373-1.256 0.936-3.227 1.403-5.909 1.403h-0.819v4.4h1.363c4.043 0 7.16-0.893 9.347-2.669 2.192-1.781 3.285-4.344 3.285-7.683 0-3.181-0.995-5.589-2.987-7.227z"></path>
<path d="M44.323 0.001h-2.021v4.379h1.669c2.376 0 4.128 0.451 5.253 1.355 1.12 0.907 1.688 2.277 1.688 4.117 0 1.984-0.629 3.44-1.883 4.376-1.256 0.933-3.227 1.4-5.912 1.4h-0.816v4.4h1.363c4.040 0 7.157-0.891 9.347-2.669 2.187-1.781 3.28-4.344 3.28-7.685 0-3.179-0.992-5.587-2.987-7.221-1.989-1.635-4.987-2.453-8.981-2.453z"></path>
<path d="M67.915 15.628v-15.627h-5.229v32h5.229v-11.976z"></path>
<path d="M21.867 16.767c0 1.184 0.045 2.827 0.131 4.936 0.088 2.107 0.147 3.328 0.176 3.664h-0.133l-15.693-25.365h-6.347v32h4.747v-16.64c0-2.248-0.099-4.728-0.304-7.44l-0.109-1.424h0.176l15.736 25.504h6.413v-32h-4.792v16.765z"></path>
</svg>
