<!-- Generated by IcoMoon.io -->
<svg version="1.1" xmlns="http://www.w3.org/2000/svg" width="32" height="32" viewBox="0 0 32 32">
<title>logo-top</title>
<path fill="#000" d="M6.919 32h18.162c3.821 0 6.919-3.098 6.919-6.919v-18.162c0-3.821-3.098-6.919-6.919-6.919h-18.162c-3.821 0-6.919 3.098-6.919 6.919v18.162c0 3.821 3.098 6.919 6.919 6.919z"></path>
<path fill="#000" d="M17.357 13.711v-0.602h-3.971v0.603l2.669-0.001z"></path>
<path fill="#000" d="M19.308 19.371v0.609c-1.226-0.069-2.188-1.072-2.205-2.3h0.606c0.017 0.891 0.709 1.624 1.598 1.691z"></path>
<path fill="#fff" d="M8.206 13.105v0.702h-1.861v1.185h1.492v0.677h-1.492v1.861h-0.884v-4.425zM11.861 13.488c0.368 0.291 0.623 0.701 0.72 1.16h-0.927c-0.089-0.229-0.246-0.425-0.449-0.564-0.216-0.142-0.471-0.214-0.73-0.208-0.46-0.008-0.882 0.259-1.072 0.678-0.208 0.486-0.208 1.037 0 1.522 0.19 0.42 0.612 0.686 1.072 0.677 0.259 0.008 0.514-0.065 0.73-0.207 0.203-0.138 0.36-0.335 0.449-0.564h0.927c-0.098 0.458-0.353 0.868-0.72 1.159-0.363 0.285-0.822 0.427-1.373 0.427-0.392 0.008-0.778-0.091-1.118-0.285-0.323-0.189-0.584-0.466-0.752-0.799-0.355-0.739-0.355-1.6 0-2.339 0.168-0.332 0.428-0.61 0.749-0.799 0.342-0.195 0.729-0.294 1.122-0.285 0.552 0 1.010 0.144 1.373 0.427z"></path>
<path fill="#000" d="M19.86 15.153c-0.219-0.035-0.441-0.038-0.66-0.010l-0.425 0.723c0.233-0.099 0.484-0.145 0.738-0.135 0.913 0.003 1.666 0.718 1.715 1.63h0.608c-0.048-1.113-0.875-2.038-1.976-2.208z"></path>
<path fill="#000" d="M23.432 19.371v0.609c-1.225-0.069-2.188-1.072-2.205-2.3h0.608c0.017 0.891 0.709 1.624 1.597 1.691z"></path>
<path fill="#000" d="M25.349 17.361h0.608c-0.052-1.2-1.004-2.166-2.204-2.233v0.609c0.864 0.065 1.546 0.759 1.596 1.624z"></path>
<path fill="#000" d="M23.425 15.125h-0.862v-1.413h3.019v-0.603h-3.632v2.618l1.475 0.005v-0.607z"></path>
<path fill="#000" d="M23.753 19.363v0.609c1.225-0.069 2.188-1.072 2.205-2.301h-0.607c-0.017 0.893-0.709 1.624-1.598 1.692z"></path>
<path fill="#000" d="M13.527 17.672h-0.607c0.017 1.248 1.012 2.262 2.258 2.303v-0.609c-0.912-0.040-1.635-0.783-1.652-1.695z"></path>
<path fill="#000" d="M19.628 19.371v0.609c1.225-0.069 2.188-1.072 2.205-2.3h-0.607c-0.017 0.891-0.709 1.624-1.598 1.691z"></path>
<path fill="#000" d="M15.498 19.371v0.609c1.225-0.069 2.188-1.072 2.205-2.3h-0.607c-0.017 0.891-0.709 1.624-1.598 1.691z"></path>
<path fill="#000" d="M19.409 13.109l-1.992 3.209c-0.306-0.553-0.83-0.955-1.446-1.104l1.154-1.181h-0.835l-1.175 1.196 0.328 0.528v-0.002l0.002 0.001c0.893 0.009 1.621 0.715 1.655 1.607h0.617c0.015-0.244 0.081-0.482 0.195-0.698l2.199-3.555-0.701 0.001z"></path>
</svg>
