<!-- Generated by IcoMoon.io -->
<svg version="1.1" xmlns="http://www.w3.org/2000/svg" width="39" height="32" viewBox="0 0 39 32">
<title>menu</title>
<path d="M1.231 0h36.923c0.68 0 1.231 0.551 1.231 1.231s-0.551 1.231-1.231 1.231h-36.923c-0.68 0-1.231-0.551-1.231-1.231s0.551-1.231 1.231-1.231z"></path>
<path d="M1.231 9.846h36.923c0.68 0 1.231 0.551 1.231 1.231s-0.551 1.231-1.231 1.231h-36.923c-0.68 0-1.231-0.551-1.231-1.231s0.551-1.231 1.231-1.231z"></path>
<path d="M1.231 19.692h36.923c0.68 0 1.231 0.551 1.231 1.231s-0.551 1.231-1.231 1.231h-36.923c-0.68 0-1.231-0.551-1.231-1.231s0.551-1.231 1.231-1.231z"></path>
<path d="M1.231 29.538h36.923c0.68 0 1.231 0.551 1.231 1.231s-0.551 1.231-1.231 1.231h-36.923c-0.68 0-1.231-0.551-1.231-1.231s0.551-1.231 1.231-1.231z"></path>
</svg>
