<!-- Generated by IcoMoon.io -->
<svg version="1.1" xmlns="http://www.w3.org/2000/svg" width="29" height="32" viewBox="0 0 29 32">
<title>npp-summary</title>
<path fill="#fff" d="M21.379 30.14c1.162 0 2.042-0.299 2.641-0.898s0.898-1.488 0.898-2.667v-20.797c0-1.162-0.299-2.044-0.898-2.647s-1.479-0.905-2.641-0.905h-14.234c-1.171 0-2.055 0.301-2.654 0.905s-0.898 1.485-0.898 2.647v20.797c0 1.18 0.299 2.069 0.898 2.667s1.483 0.898 2.654 0.898h14.234zM21.326 29.163h-14.142c-0.863 0-1.514-0.22-1.954-0.66s-0.66-1.092-0.66-1.954v-20.731c0-0.863 0.22-1.514 0.66-1.954s1.092-0.66 1.954-0.66h14.142c0.863 0 1.514 0.22 1.954 0.66s0.66 1.092 0.66 1.954v20.731c0 0.863-0.22 1.514-0.66 1.954s-1.092 0.66-1.954 0.66zM16.202 10.136c0.238 0 0.423-0.075 0.555-0.224s0.198-0.343 0.198-0.581v-2.694c0-0.246-0.066-0.442-0.198-0.588s-0.317-0.218-0.555-0.218h-8.622c-0.238 0-0.425 0.073-0.561 0.218s-0.205 0.341-0.205 0.588v2.694c0 0.238 0.068 0.431 0.205 0.581s0.324 0.224 0.561 0.224h8.622zM20.943 15.576c0.238 0 0.425-0.075 0.561-0.224s0.205-0.348 0.205-0.594v-2.68c0-0.246-0.068-0.442-0.205-0.588s-0.323-0.218-0.561-0.218h-13.363c-0.238 0-0.425 0.073-0.561 0.218s-0.205 0.341-0.205 0.588v2.707c0 0.229 0.068 0.418 0.205 0.568s0.324 0.224 0.561 0.224h13.363zM18.579 21.016c0.22 0 0.401-0.075 0.541-0.224s0.211-0.343 0.211-0.581v-2.707c0-0.238-0.070-0.427-0.211-0.568s-0.321-0.211-0.541-0.211h-10.999c-0.238 0-0.425 0.070-0.561 0.211s-0.205 0.33-0.205 0.568v2.707c0 0.238 0.068 0.431 0.205 0.581s0.324 0.224 0.561 0.224h10.999zM13.905 26.456c0.229 0 0.412-0.075 0.548-0.224s0.205-0.343 0.205-0.581v-2.694c0-0.246-0.068-0.442-0.205-0.588s-0.319-0.218-0.548-0.218h-6.325c-0.238 0-0.425 0.073-0.561 0.218s-0.205 0.341-0.205 0.588v2.694c0 0.238 0.068 0.431 0.205 0.581s0.324 0.224 0.561 0.224h6.325z"></path>
</svg>
