<!-- Generated by IcoMoon.io -->
<svg version="1.1" xmlns="http://www.w3.org/2000/svg" width="60" height="32" viewBox="0 0 60 32">
<title>opportunities</title>
<path fill="#fff" d="M14.763 16.249c0.995 0 1.897-0.262 2.707-0.786s1.45-1.232 1.921-2.126c0.471-0.893 0.706-1.895 0.706-3.004 0-1.056-0.24-2.022-0.72-2.898s-1.125-1.574-1.934-2.093c-0.81-0.519-1.703-0.779-2.68-0.779-0.986 0-1.884 0.262-2.694 0.786s-1.457 1.224-1.941 2.099c-0.484 0.876-0.717 1.842-0.7 2.898 0.009 1.1 0.249 2.097 0.72 2.991s1.109 1.602 1.915 2.126c0.805 0.524 1.706 0.786 2.7 0.786zM29.882 16.249c1.004 0 1.908-0.262 2.713-0.786s1.444-1.232 1.915-2.126c0.471-0.893 0.706-1.895 0.706-3.004 0-1.056-0.24-2.022-0.72-2.898s-1.122-1.574-1.928-2.093c-0.805-0.519-1.701-0.779-2.687-0.779-0.977 0-1.873 0.262-2.687 0.786s-1.463 1.224-1.948 2.099c-0.484 0.876-0.717 1.842-0.7 2.898 0.009 1.1 0.249 2.097 0.72 2.991s1.107 1.602 1.908 2.126c0.801 0.524 1.703 0.786 2.707 0.786zM45.001 16.249c0.995 0 1.897-0.262 2.707-0.786s1.45-1.232 1.921-2.126c0.471-0.893 0.706-1.895 0.706-3.004 0-1.056-0.24-2.022-0.72-2.898s-1.122-1.574-1.928-2.093c-0.805-0.519-1.701-0.779-2.687-0.779-0.977 0-1.873 0.262-2.687 0.786s-1.461 1.224-1.941 2.099c-0.48 0.876-0.715 1.842-0.706 2.898 0.009 1.1 0.249 2.097 0.72 2.991s1.107 1.602 1.908 2.126c0.801 0.524 1.703 0.786 2.707 0.786zM14.763 15.298c-0.819 0-1.558-0.218-2.218-0.654s-1.184-1.028-1.571-1.776c-0.387-0.748-0.581-1.589-0.581-2.522-0.009-0.889 0.185-1.699 0.581-2.43s0.924-1.316 1.585-1.756c0.66-0.44 1.395-0.66 2.205-0.66 0.792 0 1.521 0.218 2.185 0.654s1.193 1.021 1.584 1.756c0.392 0.735 0.588 1.543 0.588 2.423 0 0.933-0.194 1.776-0.581 2.529s-0.911 1.347-1.571 1.783c-0.66 0.436-1.395 0.654-2.205 0.654zM29.882 15.298c-0.819 0-1.556-0.218-2.212-0.654s-1.18-1.028-1.571-1.776c-0.392-0.748-0.588-1.589-0.588-2.522-0.009-0.889 0.183-1.699 0.574-2.43s0.922-1.316 1.591-1.756c0.669-0.44 1.404-0.66 2.205-0.66s1.532 0.218 2.192 0.654c0.66 0.436 1.186 1.021 1.578 1.756s0.588 1.543 0.588 2.423c0 0.933-0.194 1.776-0.581 2.529s-0.911 1.347-1.571 1.783c-0.66 0.436-1.395 0.654-2.205 0.654zM45.001 15.298c-0.81 0-1.545-0.218-2.205-0.654s-1.184-1.028-1.571-1.776c-0.387-0.748-0.581-1.589-0.581-2.522-0.018-0.889 0.172-1.699 0.568-2.43s0.926-1.316 1.591-1.756c0.665-0.44 1.397-0.66 2.199-0.66s1.532 0.218 2.192 0.654c0.66 0.436 1.188 1.021 1.584 1.756s0.594 1.543 0.594 2.423c0 0.933-0.196 1.776-0.588 2.529s-0.916 1.347-1.571 1.783c-0.656 0.436-1.393 0.654-2.212 0.654zM23.584 28.225c1.567 0 2.35-0.581 2.35-1.743 0-0.845-0.26-1.743-0.779-2.694s-1.263-1.844-2.232-2.68c-0.968-0.836-2.141-1.514-3.519-2.033s-2.925-0.779-4.641-0.779c-1.725 0-3.275 0.26-4.648 0.779s-2.546 1.197-3.519 2.033c-0.973 0.836-1.717 1.73-2.232 2.68s-0.772 1.849-0.772 2.694c0 1.162 0.779 1.743 2.337 1.743h17.654zM38.689 28.225c1.558 0 2.337-0.581 2.337-1.743 0-0.845-0.257-1.743-0.772-2.694s-1.259-1.844-2.231-2.68c-0.973-0.836-2.148-1.514-3.526-2.033s-2.925-0.779-4.641-0.779c-1.276 0-2.463 0.152-3.559 0.456s-2.084 0.711-2.964 1.221c0.141 0.106 0.273 0.211 0.396 0.317s0.242 0.211 0.357 0.317c0.783-0.405 1.657-0.733 2.621-0.984s2.014-0.376 3.149-0.376c1.602 0 3.033 0.231 4.291 0.693s2.328 1.061 3.209 1.796c0.88 0.735 1.549 1.518 2.007 2.35s0.687 1.613 0.687 2.344c0 0.317-0.090 0.537-0.271 0.66s-0.504 0.185-0.971 0.185h-11.844c-0.035 0.176-0.086 0.341-0.152 0.495s-0.147 0.306-0.244 0.456h12.121zM53.834 28.225c1.558 0 2.337-0.581 2.337-1.743 0-0.845-0.257-1.743-0.772-2.694s-1.259-1.844-2.231-2.68c-0.973-0.836-2.146-1.514-3.519-2.033s-2.923-0.779-4.648-0.779c-1.285 0-2.478 0.154-3.578 0.462s-2.091 0.717-2.971 1.228c0.132 0.106 0.264 0.213 0.396 0.323s0.255 0.218 0.37 0.323c0.766-0.423 1.635-0.759 2.608-1.010s2.031-0.376 3.176-0.376c1.602 0 3.035 0.231 4.298 0.693s2.333 1.061 3.209 1.796c0.876 0.735 1.543 1.518 2 2.35s0.687 1.613 0.687 2.344c0 0.317-0.088 0.537-0.264 0.66s-0.502 0.185-0.977 0.185h-11.897c-0.035 0.176-0.084 0.341-0.145 0.495s-0.145 0.306-0.251 0.456h12.174zM23.729 27.275h-17.918c-0.475 0-0.801-0.062-0.977-0.185s-0.264-0.343-0.264-0.66c0-0.731 0.229-1.512 0.687-2.344s1.125-1.615 2-2.35c0.876-0.735 1.945-1.334 3.209-1.796s2.696-0.693 4.298-0.693c1.602 0 3.035 0.231 4.298 0.693s2.333 1.061 3.209 1.796c0.876 0.735 1.543 1.518 2 2.35s0.687 1.613 0.687 2.344c0 0.317-0.088 0.537-0.264 0.66s-0.497 0.185-0.964 0.185z"></path>
</svg>
