<!-- Generated by IcoMoon.io -->
<svg version="1.1" xmlns="http://www.w3.org/2000/svg" width="32" height="32" viewBox="0 0 32 32">
<title>Pending</title>
<path fill="#5c5b57" d="M16.234 30.365c2.041 0 3.962-0.391 5.764-1.172s3.391-1.86 4.768-3.237c1.377-1.377 2.456-2.966 3.237-4.768s1.172-3.723 1.172-5.764c0-2.041-0.391-3.962-1.172-5.764s-1.86-3.391-3.237-4.768c-1.377-1.377-2.969-2.456-4.775-3.237s-3.73-1.172-5.771-1.172c-2.041 0-3.962 0.391-5.764 1.172s-3.389 1.86-4.761 3.237c-1.372 1.377-2.449 2.966-3.23 4.768s-1.172 3.723-1.172 5.764c0 2.041 0.391 3.962 1.172 5.764s1.86 3.391 3.237 4.768c1.377 1.377 2.966 2.456 4.768 3.237s3.723 1.172 5.764 1.172zM16.234 27.875c-1.729 0-3.345-0.322-4.849-0.967s-2.825-1.536-3.962-2.673c-1.138-1.138-2.026-2.459-2.666-3.962s-0.959-3.12-0.959-4.849c0-1.729 0.32-3.345 0.959-4.849s1.526-2.827 2.659-3.97c1.133-1.143 2.451-2.034 3.955-2.673s3.12-0.959 4.849-0.959c1.729 0 3.345 0.32 4.849 0.959s2.827 1.531 3.97 2.673c1.143 1.143 2.036 2.466 2.681 3.97s0.967 3.12 0.967 4.849c0 1.729-0.32 3.345-0.959 4.849s-1.528 2.825-2.666 3.962c-1.138 1.138-2.461 2.029-3.97 2.673s-3.127 0.967-4.856 0.967zM16.22 17.006c0.293 0 0.537-0.098 0.732-0.293s0.293-0.439 0.293-0.732v-9.873c0-0.283-0.098-0.522-0.293-0.718s-0.439-0.293-0.732-0.293c-0.283 0-0.522 0.098-0.718 0.293s-0.293 0.435-0.293 0.718v8.862h-6.636c-0.293 0-0.537 0.098-0.732 0.293s-0.293 0.435-0.293 0.718c0 0.293 0.098 0.537 0.293 0.732s0.439 0.293 0.732 0.293h7.646z"></path>
</svg>
