<!-- Generated by IcoMoon.io -->
<svg version="1.1" xmlns="http://www.w3.org/2000/svg" width="32" height="32" viewBox="0 0 32 32">
<title>power-bi</title>
<path fill="#fff" d="M15.529 29.097c1.787 0 3.46-0.337 5.018-1.010s2.934-1.604 4.126-2.793c1.193-1.188 2.126-2.564 2.799-4.126s1.010-3.233 1.010-5.011c0-1.778-0.337-3.448-1.010-5.011-0.524-1.215-1.205-2.317-2.043-3.306l-0.045-0.052 1.698-1.719c0.176-0.167 0.264-0.361 0.264-0.581 0-0.185-0.070-0.348-0.211-0.489s-0.317-0.211-0.528-0.211c-0.22 0-0.409 0.079-0.568 0.238l-1.698 1.676-0.098-0.091c-1.091-0.995-2.326-1.79-3.704-2.384-1.316-0.567-2.708-0.895-4.177-0.985l-0.082-0.004v-2.24c0-0.22-0.070-0.405-0.211-0.555s-0.321-0.224-0.541-0.224c-0.211 0-0.387 0.075-0.528 0.224s-0.211 0.335-0.211 0.555l-0 2.239-0.095 0.005c-1.469 0.090-2.861 0.418-4.177 0.985-1.563 0.673-2.938 1.604-4.126 2.793s-2.119 2.564-2.793 4.126c-0.673 1.563-1.010 3.233-1.010 5.011s0.337 3.448 1.010 5.011c0.673 1.563 1.604 2.938 2.793 4.126s2.564 2.119 4.126 2.793c1.563 0.673 3.233 1.010 5.011 1.010zM15.529 28.093c-1.646 0-3.191-0.308-4.635-0.924s-2.713-1.472-3.809-2.568c-1.096-1.096-1.952-2.366-2.568-3.809s-0.924-2.989-0.924-4.635c0-1.646 0.308-3.191 0.924-4.635s1.472-2.716 2.568-3.816c1.096-1.1 2.366-1.959 3.809-2.575s2.989-0.924 4.635-0.924c1.655 0 3.202 0.308 4.641 0.924s2.709 1.474 3.809 2.575c1.1 1.1 1.959 2.372 2.575 3.816s0.924 2.989 0.924 4.635c0 1.646-0.308 3.191-0.924 4.635s-1.472 2.713-2.568 3.809c-1.096 1.096-2.366 1.952-3.809 2.568s-2.993 0.924-4.648 0.924zM15.529 17.688c0.423 0 0.777-0.145 1.063-0.436s0.429-0.651 0.429-1.083c0-0.299-0.086-0.568-0.257-0.805s-0.425-0.427-0.759-0.568v-7.962c0-0.123-0.046-0.227-0.139-0.31s-0.205-0.125-0.337-0.125c-0.114 0-0.218 0.042-0.31 0.125s-0.139 0.187-0.139 0.31v7.923c-0.335 0.158-0.59 0.359-0.766 0.601s-0.264 0.513-0.264 0.812c0 0.423 0.143 0.781 0.429 1.076s0.636 0.442 1.050 0.442z"></path>
</svg>
