<!-- Generated by IcoMoon.io -->
<svg version="1.1" xmlns="http://www.w3.org/2000/svg" width="32" height="32" viewBox="0 0 32 32">
<title>share</title>
<path d="M25.727 30.858c1.635 0 2.862-0.404 3.68-1.211s1.227-2.018 1.227-3.633v-19.078c0-1.615-0.409-2.826-1.227-3.633s-2.044-1.211-3.68-1.211h-18.953c-1.635 0-2.862 0.404-3.68 1.211s-1.227 2.018-1.227 3.633v19.078c0 1.615 0.409 2.826 1.227 3.633s2.044 1.211 3.68 1.211h18.953zM25.695 28.343h-18.891c-0.781 0-1.38-0.206-1.797-0.617s-0.625-1.023-0.625-1.836v-18.828c0-0.813 0.208-1.424 0.625-1.836s1.016-0.617 1.797-0.617h18.891c0.771 0 1.367 0.206 1.789 0.617s0.633 1.023 0.633 1.836v18.828c0 0.813-0.211 1.424-0.633 1.836s-1.018 0.617-1.789 0.617zM11.352 22.483c0.354 0 0.651-0.12 0.891-0.359l5.766-5.766 2.234-2.391-0.234 2.422v2.703c0 0.375 0.107 0.672 0.32 0.891s0.492 0.328 0.836 0.328c0.344 0 0.62-0.117 0.828-0.352s0.313-0.534 0.313-0.898v-7.359c0-0.469-0.117-0.802-0.352-1s-0.549-0.297-0.945-0.297h-7.422c-0.365 0-0.656 0.104-0.875 0.313s-0.328 0.484-0.328 0.828c0 0.354 0.112 0.635 0.336 0.844s0.523 0.313 0.898 0.313h2.844l2.313-0.25-2.422 2.266-5.766 5.766c-0.25 0.25-0.375 0.526-0.375 0.828 0 0.354 0.104 0.638 0.313 0.852s0.484 0.32 0.828 0.32z"></path>
</svg>
