<!-- Generated by IcoMoon.io -->
<svg version="1.1" xmlns="http://www.w3.org/2000/svg" width="32" height="32" viewBox="0 0 32 32">
<title>up</title>
<path d="M22.763 0.007c1.429 0 2.734 0.114 3.917 0.343s2.204 0.773 3.064 1.632c0.848 0.848 1.387 1.861 1.616 3.038s0.343 2.48 0.343 3.909v12.874c0 1.429-0.114 2.732-0.343 3.909s-0.767 2.19-1.616 3.038c-0.859 0.859-1.881 1.403-3.064 1.632s-2.489 0.343-3.917 0.343h-13.041c-1.406 0-2.698-0.114-3.876-0.343s-2.196-0.773-3.055-1.632c-0.848-0.848-1.387-1.858-1.616-3.030s-0.343-2.461-0.343-3.867v-12.924c0-1.429 0.112-2.732 0.335-3.909s0.764-2.19 1.624-3.038c0.859-0.859 1.878-1.403 3.055-1.632s2.48-0.343 3.909-0.343h13.008zM23.232 2.702h-13.929c-0.859 0-1.705 0.081-2.536 0.243s-1.504 0.494-2.017 0.996c-0.502 0.513-0.831 1.18-0.988 2.001s-0.234 1.666-0.234 2.536v13.744c0 0.882 0.078 1.738 0.234 2.57s0.486 1.498 0.988 2.001c0.502 0.513 1.175 0.848 2.017 1.004s1.705 0.234 2.587 0.234h13.878c0.859 0 1.705-0.081 2.536-0.243s1.498-0.494 2.001-0.996c0.513-0.513 0.848-1.18 1.004-2.001s0.234-1.66 0.234-2.52v-13.795c0-0.871-0.081-1.716-0.243-2.536s-0.494-1.487-0.996-2.001c-0.502-0.502-1.169-0.834-2.001-0.996s-1.677-0.243-2.536-0.243zM16.301 7.038c0.335 0 0.658 0.156 0.971 0.469l5.592 5.575c0.223 0.223 0.335 0.513 0.335 0.871 0 0.335-0.117 0.619-0.352 0.854s-0.525 0.352-0.871 0.352c-0.368 0-0.664-0.123-0.887-0.368l-1.975-2.009-1.691-2.026 0.117 3.549v8.371c0 0.368-0.117 0.67-0.352 0.904s-0.53 0.352-0.887 0.352c-0.368 0-0.67-0.117-0.904-0.352s-0.352-0.536-0.352-0.904v-8.371l0.117-3.532-1.674 2.009-1.992 2.009c-0.246 0.246-0.541 0.368-0.887 0.368s-0.633-0.117-0.862-0.352c-0.229-0.234-0.343-0.519-0.343-0.854 0-0.368 0.112-0.658 0.335-0.871l5.592-5.575c0.313-0.313 0.636-0.469 0.971-0.469z"></path>
</svg>
