<!-- Generated by IcoMoon.io -->
<svg version="1.1" xmlns="http://www.w3.org/2000/svg" width="29" height="32" viewBox="0 0 29 32">
<title>user</title>
<path fill="#fff" d="M14.068 16.292c1.177 0 2.253-0.318 3.227-0.953s1.753-1.482 2.336-2.539c0.583-1.057 0.875-2.227 0.875-3.508 0-1.25-0.289-2.391-0.867-3.422s-1.357-1.852-2.336-2.461c-0.979-0.609-2.057-0.914-3.234-0.914s-2.253 0.307-3.227 0.922c-0.974 0.615-1.753 1.438-2.336 2.469s-0.87 2.177-0.859 3.438c0 1.281 0.289 2.448 0.867 3.5s1.354 1.893 2.328 2.523c0.974 0.63 2.049 0.945 3.227 0.945zM14.068 13.885c-0.698 0-1.344-0.203-1.938-0.609s-1.068-0.953-1.422-1.641c-0.354-0.688-0.531-1.458-0.531-2.313 0-0.833 0.174-1.583 0.523-2.25s0.82-1.195 1.414-1.586c0.594-0.391 1.245-0.586 1.953-0.586 0.719 0 1.37 0.193 1.953 0.578s1.049 0.911 1.398 1.578c0.349 0.667 0.523 1.411 0.523 2.234 0 0.854-0.177 1.628-0.531 2.32s-0.823 1.245-1.406 1.656c-0.583 0.411-1.229 0.617-1.938 0.617zM23.302 29.995c2.479 0 3.719-0.818 3.719-2.453 0-0.99-0.299-2.034-0.898-3.133s-1.464-2.128-2.594-3.086c-1.13-0.958-2.492-1.742-4.086-2.352s-3.385-0.914-5.375-0.914c-2 0-3.799 0.305-5.398 0.914s-2.961 1.393-4.086 2.352c-1.125 0.958-1.987 1.987-2.586 3.086s-0.898 2.143-0.898 3.133c0 1.635 1.234 2.453 3.703 2.453h18.5zM23.896 27.589h-19.672c-0.177 0-0.307-0.029-0.391-0.086s-0.125-0.159-0.125-0.305c0-0.583 0.227-1.258 0.68-2.023s1.12-1.505 2-2.219c0.88-0.714 1.964-1.307 3.25-1.781s2.763-0.711 4.43-0.711c1.656 0 3.125 0.237 4.406 0.711s2.362 1.068 3.242 1.781c0.88 0.714 1.549 1.453 2.008 2.219s0.688 1.44 0.688 2.023c0 0.146-0.039 0.247-0.117 0.305s-0.211 0.086-0.398 0.086z"></path>
</svg>
