<!-- Generated by IcoMoon.io -->
<svg version="1.1" xmlns="http://www.w3.org/2000/svg" width="34" height="32" viewBox="0 0 34 32">
<title>Warning</title>
<path fill="#664d49" d="M29.34 31.218c0.885 0 1.651-0.193 2.297-0.578s1.143-0.904 1.492-1.555c0.349-0.651 0.523-1.378 0.523-2.18 0-0.354-0.050-0.714-0.148-1.078s-0.242-0.714-0.43-1.047l-12.047-20.984c-0.406-0.719-0.943-1.263-1.609-1.633s-1.365-0.555-2.094-0.555c-0.729 0-1.43 0.185-2.102 0.555s-1.211 0.914-1.617 1.633l-12.047 21c-0.385 0.667-0.578 1.37-0.578 2.109 0 0.802 0.174 1.529 0.523 2.18s0.846 1.169 1.492 1.555c0.646 0.385 1.411 0.578 2.297 0.578h24.047zM29.309 28.765h-24c-0.542 0-0.977-0.19-1.305-0.57s-0.492-0.81-0.492-1.289c0-0.146 0.016-0.299 0.047-0.461s0.083-0.32 0.156-0.477l12.031-20.984c0.177-0.302 0.406-0.523 0.688-0.664s0.578-0.211 0.891-0.211c0.302 0 0.591 0.070 0.867 0.211s0.503 0.362 0.68 0.664l12.016 21c0.167 0.292 0.25 0.599 0.25 0.922 0 0.479-0.169 0.909-0.508 1.289s-0.779 0.57-1.32 0.57zM17.324 20.671c0.781 0 1.177-0.411 1.188-1.234l0.234-8.25c0.010-0.396-0.122-0.727-0.398-0.992s-0.622-0.398-1.039-0.398c-0.427 0-0.773 0.13-1.039 0.391s-0.393 0.589-0.383 0.984l0.203 8.266c0.021 0.823 0.432 1.234 1.234 1.234zM17.324 25.749c0.448 0 0.841-0.156 1.18-0.469s0.508-0.698 0.508-1.156c0-0.458-0.167-0.844-0.5-1.156s-0.729-0.469-1.188-0.469c-0.458 0-0.854 0.159-1.188 0.477s-0.5 0.701-0.5 1.148c0 0.448 0.167 0.831 0.5 1.148s0.729 0.477 1.188 0.477z"></path>
</svg>
