<?xml version="1.0" encoding="UTF-8"?>
<svg width="17px" height="17px" viewBox="0 0 17 17" version="1.1" xmlns="http://www.w3.org/2000/svg" xmlns:xlink="http://www.w3.org/1999/xlink">
    <title>􀜕</title>
    <g id="Page-1" stroke="none" stroke-width="1" fill="none" fill-rule="evenodd">
        <g id="J+D-|-Iconos-Exportables" transform="translate(-408.000000, -60.000000)" fill="#000000" fill-rule="nonzero">
            <path d="M418.336914,66.9355469 C418.917969,66.9355469 419.447754,66.7792969 419.92627,66.4667969 C420.404785,66.1542969 420.786865,65.7380371 421.07251,65.2180176 C421.358154,64.697998 421.500977,64.1230469 421.500977,63.4931641 C421.500977,62.8681641 421.359375,62.3029785 421.076172,61.7976074 C420.792969,61.2922363 420.412109,60.890625 419.933594,60.5927734 C419.455078,60.2949219 418.922852,60.1459961 418.336914,60.1459961 C417.760742,60.1459961 417.232178,60.2973633 416.751221,60.6000977 C416.270264,60.902832 415.886963,61.3081055 415.601318,61.815918 C415.315674,62.3237305 415.172852,62.8876953 415.172852,63.5078125 C415.177734,64.1328125 415.322998,64.7053223 415.608643,65.2253418 C415.894287,65.7453613 416.276367,66.1604004 416.754883,66.470459 C417.233398,66.7805176 417.760742,66.9355469 418.336914,66.9355469 Z M418.336914,65.8295898 C417.980469,65.8295898 417.6521,65.7258301 417.351807,65.5183105 C417.051514,65.310791 416.809814,65.03125 416.626709,64.6796875 C416.443604,64.328125 416.352051,63.9375 416.352051,63.5078125 C416.352051,63.0830078 416.442383,62.7009277 416.623047,62.3615723 C416.803711,62.0222168 417.044189,61.7524414 417.344482,61.5522461 C417.644775,61.3520508 417.975586,61.2519531 418.336914,61.2519531 C418.703125,61.2519531 419.036377,61.3496094 419.33667,61.5449219 C419.636963,61.7402344 419.876221,62.0075684 420.054443,62.3469238 C420.232666,62.6862793 420.321777,63.0683594 420.321777,63.4931641 C420.321777,63.9228516 420.231445,64.3146973 420.050781,64.6687012 C419.870117,65.0227051 419.629639,65.3046875 419.329346,65.5146484 C419.029053,65.7246094 418.698242,65.8295898 418.336914,65.8295898 Z M422.936523,73.7104492 C424.132812,73.7104492 424.730957,73.3198242 424.730957,72.5385742 C424.730957,72.0600586 424.585693,71.5498047 424.295166,71.0078125 C424.004639,70.4658203 423.582275,69.9543457 423.028076,69.4733887 C422.473877,68.9924316 421.80127,68.6005859 421.010254,68.2978516 C420.219238,67.9951172 419.328125,67.84375 418.336914,67.84375 C417.672852,67.84375 417.053955,67.9157715 416.480225,68.0598145 C415.906494,68.2038574 415.385254,68.4003906 414.916504,68.6494141 C415.067871,68.7714844 415.213135,68.9020996 415.352295,69.0412598 C415.491455,69.1804199 415.62207,69.3305664 415.744141,69.4916992 C416.100586,69.3256836 416.496094,69.1938477 416.930664,69.0961914 C417.365234,68.9985352 417.833984,68.949707 418.336914,68.949707 C419.176758,68.949707 419.920166,69.0705566 420.567139,69.3122559 C421.214111,69.5539551 421.759766,69.8579102 422.204102,70.2241211 C422.648438,70.590332 422.984131,70.9699707 423.211182,71.3630371 C423.438232,71.7561035 423.551758,72.1015625 423.551758,72.3994141 C423.551758,72.4775391 423.531006,72.53125 423.489502,72.5605469 C423.447998,72.5898438 423.380859,72.6044922 423.288086,72.6044922 L416.806152,72.6044922 C416.80127,72.7949219 416.78418,72.9829102 416.754883,73.168457 C416.725586,73.3540039 416.681641,73.534668 416.623047,73.7104492 L422.936523,73.7104492 Z M412.089355,76.1494141 C412.592285,76.1494141 413.068359,76.0517578 413.517578,75.8564453 C413.966797,75.6611328 414.363525,75.3925781 414.707764,75.0507812 C415.052002,74.7089844 415.321777,74.3134766 415.51709,73.8642578 C415.712402,73.4150391 415.810059,72.9365234 415.810059,72.4287109 C415.810059,71.9160156 415.713623,71.4350586 415.520752,70.9858398 C415.327881,70.5366211 415.060547,70.1411133 414.71875,69.7993164 C414.376953,69.4575195 413.981445,69.1901855 413.532227,68.9973145 C413.083008,68.8044434 412.602051,68.7080078 412.089355,68.7080078 C411.581543,68.7080078 411.103027,68.8044434 410.653809,68.9973145 C410.20459,69.1901855 409.809082,69.4587402 409.467285,69.8029785 C409.125488,70.1472168 408.856934,70.5427246 408.661621,70.989502 C408.466309,71.4362793 408.368652,71.9160156 408.368652,72.4287109 C408.368652,72.9414062 408.466309,73.4223633 408.661621,73.871582 C408.856934,74.3208008 409.125488,74.7163086 409.467285,75.0581055 C409.809082,75.3999023 410.20459,75.6672363 410.653809,75.8601074 C411.103027,76.0529785 411.581543,76.1494141 412.089355,76.1494141 Z M412.089355,74.7578125 C411.952637,74.7578125 411.843994,74.7163086 411.763428,74.6333008 C411.682861,74.550293 411.642578,74.4428711 411.642578,74.3110352 L411.642578,72.8754883 L410.207031,72.8754883 C410.075195,72.8754883 409.967773,72.8352051 409.884766,72.7546387 C409.801758,72.6740723 409.760254,72.5654297 409.760254,72.4287109 C409.760254,72.2919922 409.801758,72.1833496 409.884766,72.1027832 C409.967773,72.0222168 410.075195,71.9819336 410.207031,71.9819336 L411.642578,71.9819336 L411.642578,70.5463867 C411.642578,70.4145508 411.682861,70.3071289 411.763428,70.2241211 C411.843994,70.1411133 411.952637,70.0996094 412.089355,70.0996094 C412.226074,70.0996094 412.334717,70.1411133 412.415283,70.2241211 C412.49585,70.3071289 412.536133,70.4145508 412.536133,70.5463867 L412.536133,71.9819336 L413.97168,71.9819336 C414.103516,71.9819336 414.210938,72.0222168 414.293945,72.1027832 C414.376953,72.1833496 414.418457,72.2919922 414.418457,72.4287109 C414.418457,72.5654297 414.376953,72.6740723 414.293945,72.7546387 C414.210938,72.8352051 414.103516,72.8754883 413.97168,72.8754883 L412.536133,72.8754883 L412.536133,74.3110352 C412.536133,74.4428711 412.49585,74.550293 412.415283,74.6333008 C412.334717,74.7163086 412.226074,74.7578125 412.089355,74.7578125 Z" id="􀜕"></path>
        </g>
    </g>
</svg>