<?xml version="1.0" encoding="UTF-8"?>
<svg width="17px" height="18px" viewBox="0 0 17 18" version="1.1" xmlns="http://www.w3.org/2000/svg" xmlns:xlink="http://www.w3.org/1999/xlink">
    <title>􀩴</title>
    <g id="Page-1" stroke="none" stroke-width="1" fill="none" fill-rule="evenodd">
        <g id="J+D-|-Iconos-Exportables" transform="translate(-328.000000, -141.000000)" fill="#000000" fill-rule="nonzero">
            <path d="M342.002686,157.563477 C342.759521,157.563477 343.327148,157.371826 343.705566,156.988525 C344.083984,156.605225 344.273193,156.032715 344.273193,155.270996 L344.273193,148.620605 C344.273193,148.303223 344.256104,148.037109 344.221924,147.822266 C344.187744,147.607422 344.120605,147.410889 344.020508,147.232666 C343.92041,147.054443 343.772705,146.865234 343.577393,146.665039 L339.541748,142.556152 C339.356201,142.365723 339.175537,142.220459 338.999756,142.120361 C338.823975,142.020264 338.632324,141.951904 338.424805,141.915283 C338.217285,141.878662 337.976807,141.860352 337.703369,141.860352 L334.224365,141.860352 C333.467529,141.860352 332.899902,142.053223 332.521484,142.438965 C332.143066,142.824707 331.953857,143.398438 331.953857,144.160156 L331.953857,150.532227 C332.051514,150.522461 332.147949,150.513916 332.243164,150.506592 C332.338379,150.499268 332.434814,150.495605 332.532471,150.495605 C332.63501,150.495605 332.735107,150.499268 332.832764,150.506592 C332.93042,150.513916 333.030518,150.522461 333.133057,150.532227 L333.133057,144.182129 C333.133057,143.820801 333.229492,143.540039 333.422363,143.339844 C333.615234,143.139648 333.9021,143.039551 334.282959,143.039551 L337.542236,143.039551 L337.542236,147.294922 C337.542236,147.753906 337.656982,148.098145 337.886475,148.327637 C338.115967,148.557129 338.460205,148.671875 338.919189,148.671875 L343.093994,148.671875 L343.093994,155.249023 C343.093994,155.615234 342.997559,155.895996 342.804688,156.091309 C342.611816,156.286621 342.324951,156.384277 341.944092,156.384277 L337.102783,156.384277 C337.053955,156.594238 336.990479,156.798096 336.912354,156.99585 C336.834229,157.193604 336.741455,157.382812 336.634033,157.563477 L342.002686,157.563477 Z M342.866943,147.565918 L339.051025,147.565918 C338.904541,147.565918 338.800781,147.53418 338.739746,147.470703 C338.678711,147.407227 338.648193,147.302246 338.648193,147.155762 L338.648193,143.266602 L342.866943,147.565918 Z M332.547119,158.947754 C333.050049,158.947754 333.526123,158.850098 333.975342,158.654785 C334.424561,158.459473 334.821289,158.190918 335.165527,157.849121 C335.509766,157.507324 335.779541,157.111816 335.974854,156.662598 C336.170166,156.213379 336.267822,155.734863 336.267822,155.227051 C336.267822,154.714355 336.171387,154.233398 335.978516,153.78418 C335.785645,153.334961 335.518311,152.939453 335.176514,152.597656 C334.834717,152.255859 334.439209,151.988525 333.98999,151.795654 C333.540771,151.602783 333.059814,151.506348 332.547119,151.506348 C332.039307,151.506348 331.560791,151.602783 331.111572,151.795654 C330.662354,151.988525 330.266846,152.25708 329.925049,152.601318 C329.583252,152.945557 329.314697,153.341064 329.119385,153.787842 C328.924072,154.234619 328.826416,154.714355 328.826416,155.227051 C328.826416,155.739746 328.924072,156.220703 329.119385,156.669922 C329.314697,157.119141 329.583252,157.514648 329.925049,157.856445 C330.266846,158.198242 330.662354,158.465576 331.111572,158.658447 C331.560791,158.851318 332.039307,158.947754 332.547119,158.947754 Z M330.503662,155.79834 C330.352295,155.79834 330.220459,155.742188 330.108154,155.629883 C329.99585,155.517578 329.939697,155.383301 329.939697,155.227051 C329.939697,155.070801 329.99585,154.936523 330.108154,154.824219 C330.220459,154.711914 330.352295,154.655762 330.503662,154.655762 C330.664795,154.655762 330.801514,154.711914 330.913818,154.824219 C331.026123,154.936523 331.082275,155.070801 331.082275,155.227051 C331.082275,155.383301 331.026123,155.517578 330.913818,155.629883 C330.801514,155.742188 330.664795,155.79834 330.503662,155.79834 Z M332.547119,155.79834 C332.395752,155.79834 332.262695,155.742188 332.147949,155.629883 C332.033203,155.517578 331.97583,155.383301 331.97583,155.227051 C331.97583,155.070801 332.033203,154.936523 332.147949,154.824219 C332.262695,154.711914 332.395752,154.655762 332.547119,154.655762 C332.703369,154.655762 332.838867,154.711914 332.953613,154.824219 C333.068359,154.936523 333.125732,155.070801 333.125732,155.227051 C333.125732,155.383301 333.068359,155.517578 332.953613,155.629883 C332.838867,155.742188 332.703369,155.79834 332.547119,155.79834 Z M334.583252,155.79834 C334.422119,155.79834 334.286621,155.742188 334.176758,155.629883 C334.066895,155.517578 334.011963,155.383301 334.011963,155.227051 C334.011963,155.070801 334.066895,154.936523 334.176758,154.824219 C334.286621,154.711914 334.422119,154.655762 334.583252,154.655762 C334.739502,154.655762 334.873779,154.711914 334.986084,154.824219 C335.098389,154.936523 335.1521,155.070801 335.147217,155.227051 C335.147217,155.383301 335.091064,155.517578 334.97876,155.629883 C334.866455,155.742188 334.734619,155.79834 334.583252,155.79834 Z" id="􀩴"></path>
        </g>
    </g>
</svg>