<?xml version="1.0" encoding="UTF-8"?>
<svg width="15px" height="18px" viewBox="0 0 15 18" version="1.1" xmlns="http://www.w3.org/2000/svg" xmlns:xlink="http://www.w3.org/1999/xlink">
    <title>􀈑</title>
    <g id="Page-1" stroke="none" stroke-width="1" fill="none" fill-rule="evenodd">
        <g id="Desktop-HD-03" transform="translate(-1220.000000, -250.000000)" fill="#000000" fill-rule="nonzero">
            <path d="M1230.479,267.219238 C1231.00146,267.219238 1231.42627,267.062988 1231.75342,266.750488 C1232.08057,266.437988 1232.25635,266.018066 1232.28076,265.490723 L1232.78613,254.841309 L1233.66504,254.841309 C1233.81641,254.841309 1233.94458,254.786377 1234.04956,254.676514 C1234.15454,254.56665 1234.20703,254.436035 1234.20703,254.284668 C1234.20703,254.133301 1234.15332,254.003906 1234.0459,253.896484 C1233.93848,253.789062 1233.81152,253.735352 1233.66504,253.735352 L1230.317,253.736 L1230.31787,252.614746 C1230.31787,252.087402 1230.15552,251.671143 1229.83081,251.365967 C1229.5061,251.060791 1229.06299,250.908203 1228.50146,250.908203 L1225.71826,250.908203 C1225.15674,250.908203 1224.71362,251.060791 1224.38892,251.365967 C1224.06421,251.671143 1223.90186,252.087402 1223.90186,252.614746 L1223.901,253.736 L1220.57666,253.735352 C1220.43018,253.735352 1220.302,253.790283 1220.19214,253.900146 C1220.08228,254.01001 1220.02734,254.138184 1220.02734,254.284668 C1220.02734,254.436035 1220.08228,254.56665 1220.19214,254.676514 C1220.302,254.786377 1220.43018,254.841309 1220.57666,254.841309 L1221.45557,254.841309 L1221.96094,265.498047 C1221.98535,266.025391 1222.15991,266.444092 1222.48462,266.75415 C1222.80933,267.064209 1223.23535,267.219238 1223.7627,267.219238 L1230.479,267.219238 Z M1229.153,253.736 L1225.066,253.736 L1225.06641,252.687988 C1225.06641,252.48291 1225.13354,252.316895 1225.26782,252.189941 C1225.4021,252.062988 1225.5791,251.999512 1225.79883,251.999512 L1228.4209,251.999512 C1228.64062,251.999512 1228.81763,252.062988 1228.9519,252.189941 C1229.08618,252.316895 1229.15332,252.48291 1229.15332,252.687988 L1229.153,253.736 Z M1230.36182,266.113281 L1223.86523,266.113281 C1223.65527,266.113281 1223.47949,266.04248 1223.33789,265.900879 C1223.19629,265.759277 1223.12061,265.581055 1223.11084,265.366211 L1222.59814,254.841309 L1231.60693,254.841309 L1231.12354,265.366211 C1231.11377,265.585938 1231.03809,265.765381 1230.89648,265.904541 C1230.75488,266.043701 1230.57666,266.113281 1230.36182,266.113281 Z M1224.94922,264.86084 C1225.08594,264.86084 1225.1958,264.820557 1225.27881,264.73999 C1225.36182,264.659424 1225.40332,264.555664 1225.40332,264.428711 L1225.17627,256.591797 C1225.17627,256.464844 1225.13354,256.362305 1225.0481,256.28418 C1224.96265,256.206055 1224.854,256.166992 1224.72217,256.166992 C1224.58545,256.166992 1224.47437,256.207275 1224.38892,256.287842 C1224.30347,256.368408 1224.26318,256.472168 1224.26807,256.599121 L1224.48779,264.428711 C1224.49268,264.560547 1224.53662,264.665527 1224.61963,264.743652 C1224.70264,264.821777 1224.8125,264.86084 1224.94922,264.86084 Z M1227.11719,264.86084 C1227.25879,264.86084 1227.37354,264.820557 1227.46143,264.73999 C1227.54932,264.659424 1227.59326,264.555664 1227.59326,264.428711 L1227.59326,256.599121 C1227.59326,256.472168 1227.54932,256.368408 1227.46143,256.287842 C1227.37354,256.207275 1227.25879,256.166992 1227.11719,256.166992 C1226.98047,256.166992 1226.86816,256.207275 1226.78027,256.287842 C1226.69238,256.368408 1226.64844,256.472168 1226.64844,256.599121 L1226.64844,264.428711 C1226.64844,264.555664 1226.69238,264.659424 1226.78027,264.73999 C1226.86816,264.820557 1226.98047,264.86084 1227.11719,264.86084 Z M1229.29248,264.86084 C1229.42432,264.86084 1229.53174,264.821777 1229.61475,264.743652 C1229.69775,264.665527 1229.7417,264.560547 1229.74658,264.428711 L1229.96631,256.599121 C1229.97119,256.472168 1229.93213,256.368408 1229.84912,256.287842 C1229.76611,256.207275 1229.65381,256.166992 1229.51221,256.166992 C1229.38037,256.166992 1229.27295,256.206055 1229.18994,256.28418 C1229.10693,256.362305 1229.06299,256.467285 1229.05811,256.599121 L1228.83838,264.428711 C1228.8335,264.555664 1228.87256,264.659424 1228.95557,264.73999 C1229.03857,264.820557 1229.15088,264.86084 1229.29248,264.86084 Z" id="􀈑"></path>
        </g>
    </g>
</svg>