<?xml version="1.0" encoding="UTF-8"?>
<svg width="16px" height="16px" viewBox="0 0 16 16" version="1.1" xmlns="http://www.w3.org/2000/svg" xmlns:xlink="http://www.w3.org/1999/xlink">
    <title>􀁢</title>
    <g id="Page-1" stroke="none" stroke-width="1" fill="none" fill-rule="evenodd">
        <g id="Desktop-HD-03" transform="translate(-1399.000000, -631.000000)" fill="#446636" fill-rule="nonzero">
            <path d="M1407.11719,646.182617 C1408.1377,646.182617 1409.09839,645.987305 1409.99927,645.59668 C1410.90015,645.206055 1411.69482,644.666504 1412.3833,643.978027 C1413.07178,643.289551 1413.61133,642.494873 1414.00195,641.593994 C1414.39258,640.693115 1414.58789,639.732422 1414.58789,638.711914 C1414.58789,637.691406 1414.39258,636.730713 1414.00195,635.829834 C1413.61133,634.928955 1413.07178,634.134277 1412.3833,633.445801 C1411.69482,632.757324 1410.89893,632.217773 1409.99561,631.827148 C1409.09229,631.436523 1408.13037,631.241211 1407.10986,631.241211 C1406.08936,631.241211 1405.12866,631.436523 1404.22778,631.827148 C1403.3269,632.217773 1402.53345,632.757324 1401.84741,633.445801 C1401.16138,634.134277 1400.62305,634.928955 1400.23242,635.829834 C1399.8418,636.730713 1399.64648,637.691406 1399.64648,638.711914 C1399.64648,639.732422 1399.8418,640.693115 1400.23242,641.593994 C1400.62305,642.494873 1401.1626,643.289551 1401.85107,643.978027 C1402.53955,644.666504 1403.33423,645.206055 1404.23511,645.59668 C1405.13599,645.987305 1406.09668,646.182617 1407.11719,646.182617 Z M1407.11719,644.9375 C1406.25293,644.9375 1405.44482,644.776367 1404.69287,644.454102 C1403.94092,644.131836 1403.28052,643.686279 1402.71167,643.117432 C1402.14282,642.548584 1401.69849,641.888184 1401.37866,641.13623 C1401.05884,640.384277 1400.89893,639.576172 1400.89893,638.711914 C1400.89893,637.847656 1401.05884,637.039551 1401.37866,636.287598 C1401.69849,635.535645 1402.1416,634.874023 1402.70801,634.302734 C1403.27441,633.731445 1403.93359,633.285889 1404.68555,632.966064 C1405.4375,632.64624 1406.24561,632.486328 1407.10986,632.486328 C1407.97412,632.486328 1408.78223,632.64624 1409.53418,632.966064 C1410.28613,633.285889 1410.94775,633.731445 1411.51904,634.302734 C1412.09033,634.874023 1412.53711,635.535645 1412.85938,636.287598 C1413.18164,637.039551 1413.34277,637.847656 1413.34277,638.711914 C1413.34277,639.576172 1413.18286,640.384277 1412.86304,641.13623 C1412.54321,641.888184 1412.09888,642.548584 1411.53003,643.117432 C1410.96118,643.686279 1410.29956,644.131836 1409.54517,644.454102 C1408.79077,644.776367 1407.98145,644.9375 1407.11719,644.9375 Z M1406.31152,642.183594 C1406.56055,642.183594 1406.7583,642.071289 1406.90479,641.84668 L1410.25195,636.573242 C1410.2959,636.504883 1410.33618,636.43042 1410.3728,636.349854 C1410.40942,636.269287 1410.42773,636.1875 1410.42773,636.104492 C1410.42773,635.943359 1410.3667,635.813965 1410.24463,635.716309 C1410.12256,635.618652 1409.98584,635.569824 1409.83447,635.569824 C1409.62939,635.569824 1409.4585,635.679688 1409.32178,635.899414 L1406.28223,640.777344 L1404.83936,638.909668 C1404.75146,638.79248 1404.66479,638.713135 1404.57935,638.671631 C1404.4939,638.630127 1404.3999,638.609375 1404.29736,638.609375 C1404.14111,638.609375 1404.00806,638.666748 1403.89819,638.781494 C1403.78833,638.89624 1403.7334,639.03418 1403.7334,639.195312 C1403.7334,639.34668 1403.78955,639.498047 1403.90186,639.649414 L1405.68896,641.84668 C1405.78174,641.963867 1405.87817,642.049316 1405.97827,642.103027 C1406.07837,642.156738 1406.18945,642.183594 1406.31152,642.183594 Z" id="􀁢"></path>
        </g>
    </g>
</svg>