<?xml version="1.0" encoding="UTF-8"?>
<svg width="11px" height="6px" viewBox="0 0 11 6" version="1.1" xmlns="http://www.w3.org/2000/svg" xmlns:xlink="http://www.w3.org/1999/xlink">
    <title>􀆈</title>
    <g id="Page-1" stroke="none" stroke-width="1" fill="none" fill-rule="evenodd">
        <g id="Desktop-HD-03-(2)" transform="translate(-182.000000, -467.000000)" fill="#000000" fill-rule="nonzero">
            <path d="M187.385742,472.998047 C187.467773,472.998047 187.545898,472.981445 187.620117,472.948242 C187.694336,472.915039 187.760742,472.865234 187.819336,472.798828 L192.079102,468.451172 C192.192383,468.333984 192.249023,468.197266 192.249023,468.041016 C192.249023,467.931641 192.223633,467.833008 192.172852,467.745117 C192.12207,467.657227 192.052734,467.587891 191.964844,467.537109 C191.876953,467.486328 191.77832,467.460938 191.668945,467.460938 C191.512695,467.460938 191.37207,467.517578 191.24707,467.630859 L187.382,471.594 L183.512695,467.630859 C183.395508,467.517578 183.256836,467.460938 183.09668,467.460938 C182.987305,467.460938 182.888672,467.486328 182.800781,467.537109 C182.712891,467.587891 182.643555,467.657227 182.592773,467.745117 C182.541992,467.833008 182.516602,467.931641 182.516602,468.041016 C182.516602,468.123047 182.532227,468.198242 182.563477,468.266602 C182.594727,468.334961 182.635742,468.396484 182.686523,468.451172 L186.94043,472.804688 C187.073242,472.933594 187.22168,472.998047 187.385742,472.998047 Z" id="􀆈" transform="translate(187.382812, 470.229492) scale(1, -1) translate(-187.382812, -470.229492) "></path>
        </g>
    </g>
</svg>