<?xml version="1.0" encoding="UTF-8"?>
<svg width="13px" height="16px" viewBox="0 0 13 16" version="1.1" xmlns="http://www.w3.org/2000/svg" xmlns:xlink="http://www.w3.org/1999/xlink">
    <title>􀡓</title>
    <g id="Page-1" stroke="none" stroke-width="1" fill="none" fill-rule="evenodd">
        <g id="Desktop-HD-03" transform="translate(-1362.000000, -252.000000)" fill="#000000" fill-rule="nonzero">
            <path d="M1362.31836,263.974609 C1362.31836,264.648438 1362.58081,265.245361 1363.10571,265.765381 C1363.63062,266.2854 1364.36548,266.691895 1365.3103,266.984863 C1366.25513,267.277832 1367.35742,267.424316 1368.61719,267.424316 C1369.87695,267.424316 1370.97925,267.277832 1371.92407,266.984863 C1372.8689,266.691895 1373.60376,266.2854 1374.12866,265.765381 C1374.65356,265.245361 1374.91602,264.648438 1374.91602,263.974609 L1374.91602,255.112305 L1374.91602,255.112305 C1374.91602,254.49707 1374.65356,253.955078 1374.12866,253.486328 C1373.60376,253.017578 1372.8689,252.651367 1371.92407,252.387695 C1370.97925,252.124023 1369.87695,251.992188 1368.61719,251.992188 C1367.35742,251.992188 1366.25513,252.124023 1365.3103,252.387695 C1364.36548,252.651367 1363.63062,253.017578 1363.10571,253.486328 C1362.58081,253.955078 1362.31836,254.49707 1362.31836,255.112305 L1362.31836,263.974609 Z M1368.61719,257.119141 C1367.5918,257.119141 1366.6958,257.033691 1365.9292,256.862793 C1365.1626,256.691895 1364.56567,256.455078 1364.13843,256.152344 C1363.71118,255.849609 1363.49756,255.50293 1363.49756,255.112305 C1363.49756,254.702148 1363.71118,254.34082 1364.13843,254.02832 C1364.56567,253.71582 1365.1626,253.470459 1365.9292,253.292236 C1366.6958,253.114014 1367.5918,253.024902 1368.61719,253.024902 C1369.64258,253.024902 1370.53857,253.114014 1371.30518,253.292236 C1372.07178,253.470459 1372.6687,253.71582 1373.09595,254.02832 C1373.52319,254.34082 1373.73682,254.702148 1373.73682,255.112305 C1373.73682,255.50293 1373.52319,255.849609 1373.09595,256.152344 C1372.6687,256.455078 1372.07178,256.691895 1371.30518,256.862793 C1370.53857,257.033691 1369.64258,257.119141 1368.61719,257.119141 Z M1368.61719,261.66748 C1367.875,261.66748 1367.14624,261.5979 1366.43091,261.45874 C1365.71558,261.31958 1365.06372,261.126709 1364.47534,260.880127 C1364.13913,260.739223 1363.83838,260.585962 1363.57312,260.420345 L1363.497,260.371 L1363.497,257.038 L1363.7006,257.167155 C1364.14385,257.432997 1364.68042,257.653809 1365.3103,257.82959 C1366.25513,258.093262 1367.35742,258.225098 1368.61719,258.225098 C1369.87695,258.225098 1370.97925,258.093262 1371.92407,257.82959 C1372.55396,257.653809 1373.09052,257.432997 1373.53377,257.167155 L1373.736,257.038 L1373.736,260.371 L1373.66058,260.420345 C1373.39472,260.585962 1373.09298,260.739223 1372.75537,260.880127 C1372.16455,261.126709 1371.5127,261.31958 1370.7998,261.45874 C1370.08691,261.5979 1369.35938,261.66748 1368.61719,261.66748 Z M1368.61719,266.318359 C1367.5918,266.318359 1366.6958,266.217041 1365.9292,266.014404 C1365.1626,265.811768 1364.56567,265.533447 1364.13843,265.179443 C1363.71118,264.825439 1363.49756,264.423828 1363.49756,263.974609 L1363.497,261.616 L1363.51445,261.625105 C1363.67688,261.712298 1363.84947,261.796003 1364.03223,261.876221 C1364.67188,262.156982 1365.38721,262.376709 1366.17822,262.5354 C1366.96924,262.694092 1367.78223,262.773438 1368.61719,262.773438 C1369.45215,262.773438 1370.26392,262.694092 1371.05249,262.5354 C1371.84106,262.376709 1372.5564,262.156982 1373.19849,261.876221 C1373.38194,261.796003 1373.55513,261.712298 1373.71806,261.625105 L1373.736,261.616 L1373.73682,263.974609 C1373.73682,264.423828 1373.52319,264.825439 1373.09595,265.179443 C1372.6687,265.533447 1372.07178,265.811768 1371.30518,266.014404 C1370.53857,266.217041 1369.64258,266.318359 1368.61719,266.318359 Z" id="􀡓"></path>
        </g>
    </g>
</svg>