<?xml version="1.0" encoding="UTF-8"?>
<svg width="14px" height="17px" viewBox="0 0 14 17" version="1.1" xmlns="http://www.w3.org/2000/svg" xmlns:xlink="http://www.w3.org/1999/xlink">
    <title>􀈿</title>
    <g id="Page-1" stroke="none" stroke-width="1" fill="none" fill-rule="evenodd">
        <g id="Desktop-HD-03" transform="translate(-1202.000000, -251.000000)" fill="#000000" fill-rule="nonzero">
            <path d="M1213.00635,267.563477 C1213.76318,267.563477 1214.33081,267.371826 1214.70923,266.988525 C1215.08765,266.605225 1215.27686,266.032715 1215.27686,265.270996 L1215.27686,258.620605 C1215.27686,258.303223 1215.25977,258.037109 1215.22559,257.822266 C1215.19141,257.607422 1215.12427,257.410889 1215.02417,257.232666 C1214.92407,257.054443 1214.77637,256.865234 1214.58105,256.665039 L1210.54541,252.556152 C1210.35986,252.365723 1210.1792,252.220459 1210.00342,252.120361 C1209.82764,252.020264 1209.63599,251.951904 1209.42847,251.915283 C1209.22095,251.878662 1208.98047,251.860352 1208.70703,251.860352 L1205.22803,251.860352 C1204.47119,251.860352 1203.90356,252.053223 1203.52515,252.438965 C1203.14673,252.824707 1202.95752,253.398438 1202.95752,254.160156 L1202.95752,265.270996 C1202.95752,266.037598 1203.14673,266.611328 1203.52515,266.992188 C1203.90356,267.373047 1204.47119,267.563477 1205.22803,267.563477 L1213.00635,267.563477 Z M1212.94775,266.384277 L1205.2793,266.384277 C1204.90332,266.384277 1204.6189,266.286621 1204.42603,266.091309 C1204.23315,265.895996 1204.13672,265.615234 1204.13672,265.249023 L1204.13672,254.182129 C1204.13672,253.820801 1204.23315,253.540039 1204.42603,253.339844 C1204.6189,253.139648 1204.90576,253.039551 1205.28662,253.039551 L1208.5459,253.039551 L1208.5459,257.294922 C1208.5459,257.753906 1208.66064,258.098145 1208.89014,258.327637 C1209.11963,258.557129 1209.46387,258.671875 1209.92285,258.671875 L1214.09766,258.671875 L1214.09766,265.249023 C1214.09766,265.615234 1214.00122,265.895996 1213.80835,266.091309 C1213.61548,266.286621 1213.32861,266.384277 1212.94775,266.384277 Z M1213.87061,257.565918 L1210.05469,257.565918 C1209.9082,257.565918 1209.80444,257.53418 1209.74341,257.470703 C1209.68237,257.407227 1209.65186,257.302246 1209.65186,257.155762 L1209.65186,253.266602 L1213.87061,257.565918 Z M1211.8125,261.594238 C1211.93945,261.594238 1212.04565,261.550293 1212.1311,261.462402 C1212.21655,261.374512 1212.25928,261.26709 1212.25928,261.140137 C1212.25928,261.013184 1212.21655,260.906982 1212.1311,260.821533 C1212.04565,260.736084 1211.93945,260.693359 1211.8125,260.693359 L1206.25342,260.693359 C1206.12158,260.693359 1206.01172,260.736084 1205.92383,260.821533 C1205.83594,260.906982 1205.79199,261.013184 1205.79199,261.140137 C1205.79199,261.26709 1205.83594,261.374512 1205.92383,261.462402 C1206.01172,261.550293 1206.12158,261.594238 1206.25342,261.594238 L1211.8125,261.594238 Z M1211.8125,264.150391 C1211.93945,264.150391 1212.04565,264.107666 1212.1311,264.022217 C1212.21655,263.936768 1212.25928,263.833008 1212.25928,263.710938 C1212.25928,263.579102 1212.21655,263.469238 1212.1311,263.381348 C1212.04565,263.293457 1211.93945,263.249512 1211.8125,263.249512 L1206.25342,263.249512 C1206.12158,263.249512 1206.01172,263.293457 1205.92383,263.381348 C1205.83594,263.469238 1205.79199,263.579102 1205.79199,263.710938 C1205.79199,263.833008 1205.83594,263.936768 1205.92383,264.022217 C1206.01172,264.107666 1206.12158,264.150391 1206.25342,264.150391 L1211.8125,264.150391 Z" id="􀈿"></path>
        </g>
    </g>
</svg>