<?xml version="1.0" encoding="UTF-8"?>
<svg width="17px" height="16px" viewBox="0 0 17 16" version="1.1" xmlns="http://www.w3.org/2000/svg" xmlns:xlink="http://www.w3.org/1999/xlink">
    <title>􀐇</title>
    <g id="Page-1" stroke="none" stroke-width="1" fill="none" fill-rule="evenodd">
        <g id="J+D-|-Iconos-Exportables" transform="translate(-290.000000, -143.000000)" fill="#000000" fill-rule="nonzero">
            <path d="M304.07373,158.39502 C304.835449,158.39502 305.407959,158.20459 305.79126,157.82373 C306.174561,157.442871 306.366211,156.876465 306.366211,156.124512 L306.366211,148.712402 C306.366211,147.960449 306.174561,147.394043 305.79126,147.013184 C305.407959,146.632324 304.835449,146.441895 304.07373,146.441895 L302.813,146.442 L302.813965,145.321289 C302.813965,144.569336 302.622314,144.00293 302.239014,143.62207 C301.855713,143.241211 301.283203,143.050781 300.521484,143.050781 L293.167969,143.050781 C292.401367,143.050781 291.826416,143.23999 291.443115,143.618408 C291.059814,143.996826 290.868164,144.564453 290.868164,145.321289 L290.868164,152.733398 C290.868164,153.490234 291.059814,154.057861 291.443115,154.436279 C291.826416,154.814697 292.401367,155.003906 293.167969,155.003906 L294.42,155.004 L294.42041,156.124512 C294.42041,156.881348 294.612061,157.448975 294.995361,157.827393 C295.378662,158.205811 295.953613,158.39502 296.720215,158.39502 L304.07373,158.39502 Z M294.42,153.825 L293.182617,153.824707 C292.816406,153.824707 292.535645,153.727051 292.340332,153.531738 C292.14502,153.336426 292.047363,153.04834 292.047363,152.66748 L292.047363,145.387207 C292.047363,145.006348 292.14502,144.718262 292.340332,144.522949 C292.535645,144.327637 292.816406,144.22998 293.182617,144.22998 L300.499512,144.22998 C300.86084,144.22998 301.140381,144.327637 301.338135,144.522949 C301.535889,144.718262 301.634766,145.006348 301.634766,145.387207 L301.634,146.442 L296.720215,146.441895 C295.953613,146.441895 295.378662,146.631104 294.995361,147.009521 C294.612061,147.387939 294.42041,147.955566 294.42041,148.712402 L294.42,153.825 Z M304.051758,157.21582 L296.734863,157.21582 C296.368652,157.21582 296.087891,157.118164 295.892578,156.922852 C295.697266,156.727539 295.599609,156.439453 295.599609,156.058594 L295.599609,148.77832 C295.599609,148.397461 295.697266,148.109375 295.892578,147.914062 C296.087891,147.71875 296.368652,147.621094 296.734863,147.621094 L304.051758,147.621094 C304.413086,147.621094 304.692627,147.71875 304.890381,147.914062 C305.088135,148.109375 305.187012,148.397461 305.187012,148.77832 L305.187012,156.058594 C305.187012,156.439453 305.088135,156.727539 304.890381,156.922852 C304.692627,157.118164 304.413086,157.21582 304.051758,157.21582 Z M300.389648,155.831543 C300.575195,155.831543 300.725342,155.77417 300.840088,155.659424 C300.954834,155.544678 301.012207,155.394531 301.012207,155.208984 L301.012,153.027 L303.194824,153.026367 C303.375488,153.026367 303.524414,152.970215 303.641602,152.85791 C303.758789,152.745605 303.817383,152.601562 303.817383,152.425781 C303.817383,152.240234 303.76001,152.090088 303.645264,151.975342 C303.530518,151.860596 303.380371,151.803223 303.194824,151.803223 L301.012,151.804 L301.012207,149.62793 C301.012207,149.442383 300.954834,149.291016 300.840088,149.173828 C300.725342,149.056641 300.575195,148.998047 300.389648,148.998047 C300.208984,148.998047 300.063721,149.056641 299.953857,149.173828 C299.843994,149.291016 299.789062,149.442383 299.789062,149.62793 L299.789,151.804 L297.61377,151.803223 C297.42334,151.803223 297.270752,151.860596 297.156006,151.975342 C297.04126,152.090088 296.983887,152.240234 296.983887,152.425781 C296.983887,152.601562 297.04248,152.745605 297.159668,152.85791 C297.276855,152.970215 297.428223,153.026367 297.61377,153.026367 L299.789,153.027 L299.789062,155.208984 C299.789062,155.394531 299.843994,155.544678 299.953857,155.659424 C300.063721,155.77417 300.208984,155.831543 300.389648,155.831543 Z" id="􀐇"></path>
        </g>
    </g>
</svg>