<?xml version="1.0" encoding="UTF-8"?>
<svg width="16px" height="15px" viewBox="0 0 16 15" version="1.1" xmlns="http://www.w3.org/2000/svg" xmlns:xlink="http://www.w3.org/1999/xlink">
    <title>􀈎</title>
    <g id="Page-1" stroke="none" stroke-width="1" fill="none" fill-rule="evenodd">
        <g id="J+D-|-Iconos-Exportables" transform="translate(-370.000000, -102.000000)" fill="#000000" fill-rule="nonzero">
            <path d="M384.404785,103.706055 L384.932129,103.164062 C385.054199,103.032227 385.116455,102.886963 385.118896,102.728271 C385.121338,102.56958 385.059082,102.429199 384.932129,102.307129 L384.763672,102.131348 C384.651367,102.019043 384.515869,101.967773 384.357178,101.977539 C384.198486,101.987305 384.058105,102.050781 383.936035,102.167969 L383.401367,102.695312 L384.404785,103.706055 Z M375.59375,111.696777 L377.021973,111.074219 L383.862793,104.240723 L382.859375,103.251953 L376.025879,110.085449 L375.366699,111.462402 C375.337402,111.525879 375.35083,111.588135 375.406982,111.64917 C375.463135,111.710205 375.525391,111.726074 375.59375,111.696777 Z M381.526367,116.442871 C382.185547,116.442871 382.697021,116.253662 383.060791,115.875244 C383.424561,115.496826 383.606445,114.929199 383.606445,114.172363 L383.606445,106.342773 L382.427246,107.521973 L382.427246,114.11377 C382.427246,114.494629 382.336914,114.781494 382.15625,114.974365 C381.975586,115.167236 381.760742,115.263672 381.511719,115.263672 L372.949707,115.263672 C372.583496,115.263672 372.301514,115.167236 372.10376,114.974365 C371.906006,114.781494 371.807129,114.494629 371.807129,114.11377 L371.807129,105.800781 C371.807129,105.419922 371.906006,105.131836 372.10376,104.936523 C372.301514,104.741211 372.583496,104.643555 372.949707,104.643555 L379.62207,104.643555 L380.80127,103.464355 L372.927734,103.464355 C372.166016,103.464355 371.592285,103.653564 371.206543,104.031982 C370.820801,104.4104 370.62793,104.978027 370.62793,105.734863 L370.62793,114.172363 C370.62793,114.929199 370.820801,115.496826 371.206543,115.875244 C371.592285,116.253662 372.166016,116.442871 372.927734,116.442871 L381.526367,116.442871 Z" id="􀈎"></path>
        </g>
    </g>
</svg>