<svg xmlns="http://www.w3.org/2000/svg" width="66" height="23" viewBox="0 0 66 23">
    <defs>
        <linearGradient id="bnjunca88a" x1="-.001%" x2="100.001%" y1="50.001%" y2="50.001%">
            <stop offset="0%" stop-color="#F29100"/>
            <stop offset="100%" stop-color="#E84E1B"/>
        </linearGradient>
        <linearGradient id="7906gq9vfb" x1="0%" x2="100%" y1="50%" y2="50%">
            <stop offset="0%" stop-color="#F29100"/>
            <stop offset="100%" stop-color="#E84E1B"/>
        </linearGradient>
        <linearGradient id="40gz2r1lsc" x1="0%" x2="100%" y1="49.98%" y2="49.98%">
            <stop offset="0%" stop-color="#F29100"/>
            <stop offset="100%" stop-color="#E84E1B"/>
        </linearGradient>
        <linearGradient id="ysa0nr1nrd" x1="0%" x2="100%" y1="50%" y2="50%">
            <stop offset="0%" stop-color="#F29100"/>
            <stop offset="100%" stop-color="#E84E1B"/>
        </linearGradient>
        <linearGradient id="rztw0brqqe" x1="0%" x2="100%" y1="50%" y2="50%">
            <stop offset="0%" stop-color="#F29100"/>
            <stop offset="100%" stop-color="#E84E1B"/>
        </linearGradient>
        <linearGradient id="9yptftuqgf" x1="-.001%" x2="100%" y1="50%" y2="50%">
            <stop offset="0%" stop-color="#F29100"/>
            <stop offset="100%" stop-color="#E84E1B"/>
        </linearGradient>
        <linearGradient id="9zffjjcy2g" x1="0%" x2="100%" y1="50%" y2="50%">
            <stop offset="0%" stop-color="#F29100"/>
            <stop offset="100%" stop-color="#E84E1B"/>
        </linearGradient>
        <linearGradient id="3hyv5frtfh" x1="0%" x2="100%" y1="49.999%" y2="49.999%">
            <stop offset="0%" stop-color="#F29100"/>
            <stop offset="100%" stop-color="#E84E1B"/>
        </linearGradient>
        <linearGradient id="ytn10h9gzi" x1="0%" x2="100%" y1="50%" y2="50%">
            <stop offset="0%" stop-color="#F29100"/>
            <stop offset="100%" stop-color="#E84E1B"/>
        </linearGradient>
        <linearGradient id="z9oyypgqcj" x1="0%" x2="100%" y1="50%" y2="50%">
            <stop offset="0%" stop-color="#F29100"/>
            <stop offset="100%" stop-color="#E84E1B"/>
        </linearGradient>
    </defs>
    <g fill="none" fill-rule="evenodd">
        <g fill-rule="nonzero">
            <g>
                <path fill="url(#bnjunca88a)" d="M37.824 2.066L37.824 1.971 37.824 0.151 25.196 0.151 25.196 2.067 33.683 2.067 33.683 2.066z" transform="translate(-1352.000000, -134.000000) translate(1352.314700, 134.102199)"/>
                <path fill="url(#7906gq9vfb)" d="M44.025 20.064V22c-3.894-.219-6.956-3.411-7.012-7.312h1.93c.054 2.835 2.255 5.163 5.082 5.376z" transform="translate(-1352.000000, -134.000000) translate(1352.314700, 134.102199)"/>
                <path fill="#FFF" d="M8.729.141L8.729 2.373 2.81 2.373 2.81 6.14 7.554 6.14 7.554 8.293 2.81 8.293 2.81 14.213 0 14.213 0 .141zM20.349 1.357c1.17.925 1.98 2.229 2.292 3.687h-2.95c-.282-.728-.78-1.353-1.425-1.794-.688-.45-1.499-.68-2.322-.657-1.463-.027-2.803.819-3.408 2.152-.664 1.546-.664 3.297 0 4.843.605 1.334 1.945 2.18 3.408 2.153.823.023 1.634-.206 2.322-.658.646-.44 1.143-1.065 1.425-1.793h2.95c-.312 1.458-1.122 2.762-2.292 3.687-1.156.904-2.61 1.355-4.365 1.355-1.246.025-2.475-.288-3.557-.907-1.025-.6-1.856-1.482-2.392-2.541-1.13-2.35-1.13-5.085 0-7.434.535-1.058 1.361-1.94 2.382-2.542 1.085-.62 2.318-.934 3.567-.906 1.754 0 3.21.452 4.365 1.355z" transform="translate(-1352.000000, -134.000000) translate(1352.314700, 134.102199)"/>
                <path fill="url(#40gz2r1lsc)" d="M45.781 6.651c-.694-.11-1.4-.12-2.097-.03l-1.35 2.297c.74-.316 1.54-.463 2.344-.43 2.905.01 5.299 2.284 5.455 5.185h1.933c-.154-3.54-2.784-6.478-6.285-7.022z" transform="translate(-1352.000000, -134.000000) translate(1352.314700, 134.102199)"/>
                <path fill="url(#ysa0nr1nrd)" d="M57.14 20.064V22c-3.894-.219-6.956-3.411-7.012-7.312h1.931c.054 2.835 2.255 5.163 5.082 5.376z" transform="translate(-1352.000000, -134.000000) translate(1352.314700, 134.102199)"/>
                <path fill="url(#rztw0brqqe)" d="M63.237 13.673h1.932c-.163-3.816-3.193-6.887-7.006-7.101v1.936c2.746.207 4.916 2.415 5.074 5.165z" transform="translate(-1352.000000, -134.000000) translate(1352.314700, 134.102199)"/>
                <path fill="url(#9yptftuqgf)" d="M57.118 6.56L54.376 6.56 54.376 2.067 63.975 2.067 63.975 0.151 52.425 0.151 52.425 8.476 57.118 8.491 57.118 8.491 57.118 6.56z" transform="translate(-1352.000000, -134.000000) translate(1352.314700, 134.102199)"/>
                <path fill="url(#9zffjjcy2g)" d="M58.163 20.036v1.936c3.894-.219 6.956-3.412 7.012-7.312h-1.93c-.055 2.834-2.256 5.163-5.082 5.376z" transform="translate(-1352.000000, -134.000000) translate(1352.314700, 134.102199)"/>
                <path fill="url(#3hyv5frtfh)" d="M25.645 14.66h-1.93c.054 3.967 3.216 7.192 7.181 7.323V20.05c-2.899-.128-5.198-2.49-5.25-5.39z" transform="translate(-1352.000000, -134.000000) translate(1352.314700, 134.102199)"/>
                <path fill="url(#9zffjjcy2g)" d="M45.045 20.064V22c3.894-.219 6.956-3.411 7.012-7.312h-1.93c-.054 2.835-2.255 5.163-5.082 5.376z" transform="translate(-1352.000000, -134.000000) translate(1352.314700, 134.102199)"/>
                <path fill="url(#ytn10h9gzi)" d="M31.913 20.064V22c3.894-.219 6.957-3.411 7.012-7.312h-1.93c-.054 2.835-2.255 5.163-5.082 5.376z" transform="translate(-1352.000000, -134.000000) translate(1352.314700, 134.102199)"/>
                <path fill="url(#z9oyypgqcj)" d="M44.35.151l-6.333 10.204c-.974-1.763-2.642-3.037-4.599-3.512l3.67-3.758H34.43L30.696 6.89l1.041 1.675.003-.003.003.003c2.837.026 5.154 2.275 5.264 5.109h1.96c.047-.775.258-1.532.62-2.22L46.58.149l-2.23.003z" transform="translate(-1352.000000, -134.000000) translate(1352.314700, 134.102199)"/>
            </g>
        </g>
    </g>
</svg>
