<?xml version="1.0" encoding="UTF-8"?>
<svg width="15px" height="15px" viewBox="0 0 15 15" version="1.1" xmlns="http://www.w3.org/2000/svg" xmlns:xlink="http://www.w3.org/1999/xlink">
    <title>􀈭</title>
    <g id="Page-1" stroke="none" stroke-width="1" fill="none" fill-rule="evenodd">
        <g id="J+D-|-Iconos-Exportables" transform="translate(-410.000000, -102.000000)" fill="#000000" fill-rule="nonzero">
            <path d="M421.634521,116.464844 C422.357178,116.464844 422.906494,116.280518 423.282471,115.911865 C423.658447,115.543213 423.846436,115 423.846436,114.282227 L423.846,106.987 L423.863373,106.984558 C424.160919,106.93512 424.399414,106.811523 424.578857,106.61377 C424.818115,106.350098 424.937744,105.996094 424.937744,105.551758 L424.937744,104.438477 C424.937744,103.989258 424.818115,103.634033 424.578857,103.372803 C424.3396,103.111572 423.995361,102.980957 423.546143,102.980957 L411.688232,102.980957 C411.258545,102.980957 410.919189,103.111572 410.670166,103.372803 C410.421143,103.634033 410.296631,103.989258 410.296631,104.438477 L410.296631,105.551758 C410.296631,105.996094 410.41626,106.350098 410.655518,106.61377 C410.834961,106.811523 411.073456,106.93512 411.371002,106.984558 L411.387,106.987 L411.387939,114.282227 C411.387939,115.004883 411.575928,115.549316 411.951904,115.915527 C412.327881,116.281738 412.877197,116.464844 413.599854,116.464844 L421.634521,116.464844 Z M423.253174,105.90332 L411.988525,105.90332 C411.802979,105.90332 411.671143,105.861816 411.593018,105.778809 C411.514893,105.695801 411.47583,105.563965 411.47583,105.383301 L411.47583,104.606934 C411.47583,104.421387 411.514893,104.28833 411.593018,104.207764 C411.671143,104.127197 411.802979,104.086914 411.988525,104.086914 L423.253174,104.086914 C423.438721,104.086914 423.569336,104.127197 423.64502,104.207764 C423.720703,104.28833 423.758545,104.421387 423.758545,104.606934 L423.758545,105.383301 C423.758545,105.563965 423.720703,105.695801 423.64502,105.778809 C423.569336,105.861816 423.438721,105.90332 423.253174,105.90332 Z M421.64917,115.358887 L413.585205,115.358887 C413.258057,115.358887 413.006592,115.270996 412.830811,115.095215 C412.655029,114.919434 412.567139,114.667969 412.567139,114.34082 L412.567,107.01 L422.667,107.01 L422.667236,114.34082 C422.667236,114.667969 422.578125,114.919434 422.399902,115.095215 C422.22168,115.270996 421.971436,115.358887 421.64917,115.358887 Z M420.037842,109.960938 C420.194092,109.960938 420.321045,109.912109 420.418701,109.814453 C420.516357,109.716797 420.565186,109.587402 420.565186,109.42627 L420.565186,109.191895 C420.565186,109.030762 420.516357,108.902588 420.418701,108.807373 C420.321045,108.712158 420.194092,108.664551 420.037842,108.664551 L415.203857,108.664551 C415.047607,108.664551 414.921875,108.712158 414.82666,108.807373 C414.731445,108.902588 414.683838,109.030762 414.683838,109.191895 L414.683838,109.42627 C414.683838,109.587402 414.731445,109.716797 414.82666,109.814453 C414.921875,109.912109 415.047607,109.960938 415.203857,109.960938 L420.037842,109.960938 Z" id="􀈭"></path>
        </g>
    </g>
</svg>