<?xml version="1.0" encoding="UTF-8"?>
<svg width="17px" height="15px" viewBox="0 0 17 15" version="1.1" xmlns="http://www.w3.org/2000/svg" xmlns:xlink="http://www.w3.org/1999/xlink">
    <title>􀈕</title>
    <g id="Page-1" stroke="none" stroke-width="1" fill="none" fill-rule="evenodd">
        <g id="Desktop-HD-03" transform="translate(-1285.000000, -252.000000)" fill="#000000" fill-rule="nonzero">
            <path d="M1299.85376,266.369629 C1300.50806,266.369629 1301.01831,266.18042 1301.38452,265.802002 C1301.75073,265.423584 1301.93384,264.855957 1301.93384,264.099121 L1301.93384,256.577148 C1301.93384,255.825195 1301.74097,255.258789 1301.35522,254.87793 C1300.96948,254.49707 1300.39575,254.306641 1299.63403,254.306641 L1292.60278,254.306641 C1292.35376,254.306641 1292.1438,254.273682 1291.9729,254.207764 C1291.802,254.141846 1291.62378,254.030762 1291.43823,253.874512 L1290.99146,253.508301 C1290.83032,253.371582 1290.67529,253.26416 1290.52637,253.186035 C1290.37744,253.10791 1290.21387,253.051758 1290.03564,253.017578 C1289.85742,252.983398 1289.64868,252.966309 1289.40942,252.966309 L1287.32202,252.966309 C1286.67749,252.966309 1286.17944,253.149414 1285.82788,253.515625 C1285.47632,253.881836 1285.30054,254.433594 1285.30054,255.170898 L1285.30054,264.099121 C1285.30054,264.855957 1285.49219,265.423584 1285.87549,265.802002 C1286.25879,266.18042 1286.83374,266.369629 1287.60034,266.369629 L1299.85376,266.369629 Z M1300.754,257.061 L1286.479,257.061 L1286.47974,255.236816 C1286.47974,254.875488 1286.57251,254.602051 1286.75806,254.416504 C1286.9436,254.230957 1287.21216,254.138184 1287.56372,254.138184 L1289.10913,254.138184 C1289.35327,254.138184 1289.55957,254.172363 1289.72803,254.240723 C1289.89648,254.309082 1290.07349,254.421387 1290.25903,254.577637 L1290.70581,254.951172 C1290.86206,255.083008 1291.01587,255.187988 1291.16724,255.266113 C1291.3186,255.344238 1291.48462,255.400391 1291.66528,255.43457 C1291.84595,255.46875 1292.05591,255.48584 1292.29517,255.48584 L1299.61206,255.48584 C1299.97339,255.48584 1300.25415,255.583496 1300.45435,255.778809 C1300.65454,255.974121 1300.75464,256.262207 1300.75464,256.643066 L1300.754,257.061 Z M1299.61206,265.19043 L1287.61499,265.19043 C1287.24878,265.19043 1286.96802,265.093994 1286.77271,264.901123 C1286.57739,264.708252 1286.47974,264.421387 1286.47974,264.040527 L1286.479,258.167 L1300.754,258.167 L1300.75464,264.047852 C1300.75464,264.423828 1300.65454,264.708252 1300.45435,264.901123 C1300.25415,265.093994 1299.97339,265.19043 1299.61206,265.19043 Z" id="􀈕"></path>
        </g>
    </g>
</svg>