<?xml version="1.0" encoding="UTF-8"?>
<svg width="21px" height="18px" viewBox="0 0 21 18" version="1.1" xmlns="http://www.w3.org/2000/svg" xmlns:xlink="http://www.w3.org/1999/xlink">
    <title>Home</title>
    <g id="Page-1" stroke="none" stroke-width="1" fill="none" fill-rule="evenodd">
        <g id="Desktop-HD-04" transform="translate(-88.000000, -137.000000)" fill="#FFFFFF" fill-rule="nonzero">
            <path d="M103.668945,154.882812 C104.27832,154.882812 104.754395,154.71582 105.097168,154.381836 C105.439941,154.047852 105.611328,153.582031 105.611328,152.984375 L105.611,145.098 L106.683594,145.99707 C106.777344,146.079102 106.878418,146.147949 106.986816,146.203613 C107.095215,146.259277 107.210938,146.287109 107.333984,146.287109 C107.550781,146.287109 107.733887,146.224121 107.883301,146.098145 C108.032715,145.972168 108.107422,145.797852 108.107422,145.575195 C108.107422,145.323242 108.010742,145.112305 107.817383,144.942383 L105.611,143.091 L105.611328,139.598633 C105.611328,139.416992 105.555664,139.270508 105.444336,139.15918 C105.333008,139.047852 105.186523,138.992188 105.004883,138.992188 L103.994141,138.992188 C103.806641,138.992188 103.657227,139.047852 103.545898,139.15918 C103.43457,139.270508 103.378906,139.416992 103.378906,139.598633 L103.378,141.217 L99.1689453,137.682617 C98.8349609,137.395508 98.4731445,137.251953 98.0834961,137.251953 C97.6938477,137.251953 97.3291016,137.395508 96.9892578,137.682617 L88.3320312,144.951172 C88.1269531,145.115234 88.0244141,145.317383 88.0244141,145.557617 C88.0244141,145.750977 88.0961914,145.920898 88.2397461,146.067383 C88.3833008,146.213867 88.5751953,146.287109 88.8154297,146.287109 C88.9384766,146.287109 89.0541992,146.259277 89.1625977,146.203613 C89.2709961,146.147949 89.3691406,146.079102 89.4570312,145.99707 L90.476,145.144 L90.4765625,152.984375 C90.4765625,153.582031 90.6464844,154.047852 90.9863281,154.381836 C91.3261719,154.71582 91.8037109,154.882812 92.4189453,154.882812 L103.668945,154.882812 Z M103.308594,153.388672 L100.46,153.389 L100.460938,147.87793 C100.460938,147.68457 100.403809,147.529297 100.289551,147.412109 C100.175293,147.294922 100.021484,147.236328 99.828125,147.236328 L96.3212891,147.236328 C96.1220703,147.236328 95.9638672,147.294922 95.8466797,147.412109 C95.7294922,147.529297 95.6708984,147.68457 95.6708984,147.87793 L95.67,153.389 L92.7792969,153.388672 C92.515625,153.388672 92.3149414,153.316895 92.1772461,153.17334 C92.0395508,153.029785 91.9707031,152.826172 91.9707031,152.5625 L91.97,143.892 L97.7539062,139.044922 C97.8535156,138.957031 97.9604492,138.911621 98.074707,138.908558 C98.1889648,138.905762 98.2988281,138.951172 98.4042969,139.044922 L104.117,143.843 L104.117188,152.5625 C104.117188,152.826172 104.046875,153.029785 103.90625,153.17334 C103.765625,153.316895 103.566406,153.388672 103.308594,153.388672 Z" id="Home"></path>
        </g>
    </g>
</svg>