<?xml version="1.0" encoding="UTF-8"?>
<svg width="16px" height="14px" viewBox="0 0 16 14" version="1.1" xmlns="http://www.w3.org/2000/svg" xmlns:xlink="http://www.w3.org/1999/xlink">
    <title>􀄪</title>
    <g id="Page-1" stroke="none" stroke-width="1" fill="none" fill-rule="evenodd">
        <g id="Desktop-HD-02" transform="translate(-90.000000, -139.000000)" fill="#FFFFFF" fill-rule="nonzero">
            <path d="M96.659668,152.369141 C96.894043,152.369141 97.0888672,152.292969 97.2441406,152.140625 C97.3994141,151.988281 97.4770508,151.797852 97.4770508,151.569336 C97.4770508,151.452148 97.4550781,151.342285 97.4111328,151.239746 C97.3671875,151.137207 97.3100586,151.050781 97.2397461,150.980469 L95.3764648,149.082031 L92.754,146.699 L94.7348633,146.823242 L105.035645,146.823242 C105.275879,146.823242 105.473633,146.745605 105.628906,146.590332 C105.78418,146.435059 105.861816,146.234375 105.861816,145.988281 C105.861816,145.748047 105.78418,145.550293 105.628906,145.39502 C105.473633,145.239746 105.275879,145.162109 105.035645,145.162109 L94.7348633,145.162109 L92.768,145.281 L95.3764648,142.894531 L97.2397461,141.004883 C97.3100586,140.93457 97.3671875,140.84668 97.4111328,140.741211 C97.4550781,140.635742 97.4770508,140.527344 97.4770508,140.416016 C97.4770508,140.1875 97.3994141,139.99707 97.2441406,139.844727 C97.0888672,139.692383 96.894043,139.616211 96.659668,139.616211 C96.5483398,139.616211 96.4428711,139.638184 96.3432617,139.682129 C96.2436523,139.726074 96.1411133,139.794922 96.0356445,139.888672 L90.5600586,145.373047 C90.3725586,145.548828 90.2788086,145.753906 90.2788086,145.988281 C90.2788086,146.228516 90.3725586,146.436523 90.5600586,146.612305 L96.0620117,152.105469 C96.237793,152.28125 96.4370117,152.369141 96.659668,152.369141 Z" id="􀄪"></path>
        </g>
    </g>
</svg>