<?xml version="1.0" encoding="UTF-8"?>
<svg width="64px" height="71px" viewBox="0 0 64 71" version="1.1" xmlns="http://www.w3.org/2000/svg" xmlns:xlink="http://www.w3.org/1999/xlink">
    <title>Group 2 Copy 7</title>
    <g id="Page-1" stroke="none" stroke-width="1" fill="none" fill-rule="evenodd">
        <g id="Desktop-HD-01" transform="translate(-284.000000, -469.000000)" fill="#FFFFFF" fill-rule="nonzero">
            <g id="Group-2-Copy-7" transform="translate(284.500000, 469.000000)">
                <path d="M46.9335938,66.8730469 C49.5117188,66.8730469 51.4648438,66.2089844 52.7929688,64.8808594 C54.1210938,63.5527344 54.7851562,61.5800781 54.7851562,58.9628906 L54.7851562,12.8203125 C54.7851562,10.2421875 54.1210938,8.28417969 52.7929688,6.94628906 C51.4648438,5.60839844 49.5117188,4.93945312 46.9335938,4.93945312 L15.3515625,4.93945312 C12.7539062,4.93945312 10.7910156,5.60839844 9.46289062,6.94628906 C8.13476562,8.28417969 7.47070312,10.2421875 7.47070312,12.8203125 L7.47070312,58.9628906 C7.47070312,61.5800781 8.13476562,63.5527344 9.46289062,64.8808594 C10.7910156,66.2089844 12.7539062,66.8730469 15.3515625,66.8730469 L46.9335938,66.8730469 Z M46.8164062,64.7050781 L15.4394531,64.7050781 C13.5253906,64.7050781 12.0800781,64.2167969 11.1035156,63.2402344 C10.1269531,62.2636719 9.63867188,60.8183594 9.63867188,58.9042969 L9.63867188,12.9082031 C9.63867188,10.9941406 10.1269531,9.54882812 11.1035156,8.57226562 C12.0800781,7.59570312 13.5253906,7.10742188 15.4394531,7.10742188 L46.8164062,7.10742188 C48.7304688,7.10742188 50.1757812,7.59570312 51.1523438,8.57226562 C52.1289062,9.54882812 52.6171875,10.9941406 52.6171875,12.9082031 L52.6171875,58.9042969 C52.6171875,60.8183594 52.1289062,62.2636719 51.1523438,63.2402344 C50.1757812,64.2167969 48.7304688,64.7050781 46.8164062,64.7050781 Z M35.4492188,22.4882812 C35.9765625,22.4882812 36.3867188,22.3222656 36.6796875,21.9902344 C36.9726562,21.6582031 37.1191406,21.2285156 37.1191406,20.7011719 L37.1191406,14.7246094 C37.1191406,14.1777344 36.9726562,13.7431641 36.6796875,13.4208984 C36.3867188,13.0986328 35.9765625,12.9375 35.4492188,12.9375 L16.3183594,12.9375 C15.7910156,12.9375 15.3759766,13.0986328 15.0732422,13.4208984 C14.7705078,13.7431641 14.6191406,14.1777344 14.6191406,14.7246094 L14.6191406,20.7011719 C14.6191406,21.2285156 14.7705078,21.6582031 15.0732422,21.9902344 C15.3759766,22.3222656 15.7910156,22.4882812 16.3183594,22.4882812 L35.4492188,22.4882812 Z M45.9667969,34.5585938 C46.4941406,34.5585938 46.9091797,34.3925781 47.2119141,34.0605469 C47.5146484,33.7285156 47.6660156,33.2890625 47.6660156,32.7421875 L47.6660156,26.7949219 C47.6660156,26.2480469 47.5146484,25.8134766 47.2119141,25.4912109 C46.9091797,25.1689453 46.4941406,25.0078125 45.9667969,25.0078125 L16.3183594,25.0078125 C15.7910156,25.0078125 15.3759766,25.1689453 15.0732422,25.4912109 C14.7705078,25.8134766 14.6191406,26.2480469 14.6191406,26.7949219 L14.6191406,32.8007812 C14.6191406,33.3085938 14.7705078,33.7285156 15.0732422,34.0605469 C15.3759766,34.3925781 15.7910156,34.5585938 16.3183594,34.5585938 L45.9667969,34.5585938 Z M40.7226562,46.6289062 C41.2109375,46.6289062 41.6113281,46.4628906 41.9238281,46.1308594 C42.2363281,45.7988281 42.3925781,45.3691406 42.3925781,44.8417969 L42.3925781,38.8359375 C42.3925781,38.3085938 42.2363281,37.8886719 41.9238281,37.5761719 C41.6113281,37.2636719 41.2109375,37.1074219 40.7226562,37.1074219 L16.3183594,37.1074219 C15.7910156,37.1074219 15.3759766,37.2636719 15.0732422,37.5761719 C14.7705078,37.8886719 14.6191406,38.3085938 14.6191406,38.8359375 L14.6191406,44.8417969 C14.6191406,45.3691406 14.7705078,45.7988281 15.0732422,46.1308594 C15.3759766,46.4628906 15.7910156,46.6289062 16.3183594,46.6289062 L40.7226562,46.6289062 Z M30.3515625,58.6992188 C30.859375,58.6992188 31.2646484,58.5332031 31.5673828,58.2011719 C31.8701172,57.8691406 32.0214844,57.4394531 32.0214844,56.9121094 L32.0214844,50.9355469 C32.0214844,50.3886719 31.8701172,49.9541016 31.5673828,49.6318359 C31.2646484,49.3095703 30.859375,49.1484375 30.3515625,49.1484375 L16.3183594,49.1484375 C15.7910156,49.1484375 15.3759766,49.3095703 15.0732422,49.6318359 C14.7705078,49.9541016 14.6191406,50.3886719 14.6191406,50.9355469 L14.6191406,56.9121094 C14.6191406,57.4394531 14.7705078,57.8691406 15.0732422,58.2011719 C15.3759766,58.5332031 15.7910156,58.6992188 16.3183594,58.6992188 L30.3515625,58.6992188 Z" id="􀥜"></path>
            </g>
        </g>
    </g>
</svg>