<?xml version="1.0" encoding="UTF-8"?>
<svg width="133px" height="71px" viewBox="0 0 133 71" version="1.1" xmlns="http://www.w3.org/2000/svg" xmlns:xlink="http://www.w3.org/1999/xlink">
    <title>Group 2 Copy 8</title>
    <g id="Page-1" stroke="none" stroke-width="1" fill="none" fill-rule="evenodd">
        <g id="Desktop-HD-01" transform="translate(-686.000000, -469.000000)" fill="#FFFFFF" fill-rule="nonzero">
            <g id="Group-2-Copy-8" transform="translate(686.500000, 469.000000)">
                <path d="M32.2558594,36.0527344 C34.4628906,36.0527344 36.4648438,35.4716797 38.2617188,34.3095703 C40.0585938,33.1474609 41.4794922,31.5751953 42.5244141,29.5927734 C43.5693359,27.6103516 44.0917969,25.3886719 44.0917969,22.9277344 C44.0917969,20.5839844 43.5595703,18.4404297 42.4951172,16.4970703 C41.4306641,14.5537109 40,13.0058594 38.203125,11.8535156 C36.40625,10.7011719 34.4238281,10.125 32.2558594,10.125 C30.0683594,10.125 28.0761719,10.7060547 26.2792969,11.8681641 C24.4824219,13.0302734 23.046875,14.5830078 21.9726562,16.5263672 C20.8984375,18.4697266 20.3808594,20.6132812 20.4199219,22.9570312 C20.4394531,25.3984375 20.9716797,27.6103516 22.0166016,29.5927734 C23.0615234,31.5751953 24.4775391,33.1474609 26.2646484,34.3095703 C28.0517578,35.4716797 30.0488281,36.0527344 32.2558594,36.0527344 Z M65.8007812,36.0527344 C68.0273438,36.0527344 70.0341797,35.4716797 71.8212891,34.3095703 C73.6083984,33.1474609 75.0244141,31.5751953 76.0693359,29.5927734 C77.1142578,27.6103516 77.6367188,25.3886719 77.6367188,22.9277344 C77.6367188,20.5839844 77.1044922,18.4404297 76.0400391,16.4970703 C74.9755859,14.5537109 73.5498047,13.0058594 71.7626953,11.8535156 C69.9755859,10.7011719 67.9882812,10.125 65.8007812,10.125 C63.6328125,10.125 61.6455078,10.7060547 59.8388672,11.8681641 C58.0322266,13.0302734 56.5917969,14.5830078 55.5175781,16.5263672 C54.4433594,18.4697266 53.9257812,20.6132812 53.9648438,22.9570312 C53.984375,25.3984375 54.5166016,27.6103516 55.5615234,29.5927734 C56.6064453,31.5751953 58.0175781,33.1474609 59.7949219,34.3095703 C61.5722656,35.4716797 63.5742188,36.0527344 65.8007812,36.0527344 Z M99.3457031,36.0527344 C101.552734,36.0527344 103.554688,35.4716797 105.351563,34.3095703 C107.148438,33.1474609 108.569336,31.5751953 109.614258,29.5927734 C110.65918,27.6103516 111.181641,25.3886719 111.181641,22.9277344 C111.181641,20.5839844 110.649414,18.4404297 109.584961,16.4970703 C108.520508,14.5537109 107.094727,13.0058594 105.307617,11.8535156 C103.520508,10.7011719 101.533203,10.125 99.3457031,10.125 C97.1777344,10.125 95.1904297,10.7060547 93.3837891,11.8681641 C91.5771484,13.0302734 90.1416016,14.5830078 89.0771484,16.5263672 C88.0126953,18.4697266 87.4902344,20.6132812 87.5097656,22.9570312 C87.5292969,25.3984375 88.0615234,27.6103516 89.1064453,29.5927734 C90.1513672,31.5751953 91.5625,33.1474609 93.3398438,34.3095703 C95.1171875,35.4716797 97.1191406,36.0527344 99.3457031,36.0527344 Z M32.2558594,33.9433594 C30.4394531,33.9433594 28.7988281,33.4599609 27.3339844,32.4931641 C25.8691406,31.5263672 24.7070312,30.2128906 23.8476562,28.5527344 C22.9882812,26.8925781 22.5585938,25.0273438 22.5585938,22.9570312 C22.5390625,20.984375 22.96875,19.1875 23.8476562,17.5664062 C24.7265625,15.9453125 25.8984375,14.6464844 27.3632812,13.6699219 C28.828125,12.6933594 30.4589844,12.2050781 32.2558594,12.2050781 C34.0136719,12.2050781 35.6298828,12.6884766 37.1044922,13.6552734 C38.5791016,14.6220703 39.7509766,15.9208984 40.6201172,17.5517578 C41.4892578,19.1826172 41.9238281,20.9746094 41.9238281,22.9277344 C41.9238281,24.9980469 41.4941406,26.8681641 40.6347656,28.5380859 C39.7753906,30.2080078 38.6132812,31.5263672 37.1484375,32.4931641 C35.6835938,33.4599609 34.0527344,33.9433594 32.2558594,33.9433594 Z M65.8007812,33.9433594 C63.984375,33.9433594 62.3486328,33.4599609 60.8935547,32.4931641 C59.4384766,31.5263672 58.2763672,30.2128906 57.4072266,28.5527344 C56.5380859,26.8925781 56.1035156,25.0273438 56.1035156,22.9570312 C56.0839844,20.984375 56.5087891,19.1875 57.3779297,17.5664062 C58.2470703,15.9453125 59.4238281,14.6464844 60.9082031,13.6699219 C62.3925781,12.6933594 64.0234375,12.2050781 65.8007812,12.2050781 C67.578125,12.2050781 69.1992188,12.6884766 70.6640625,13.6552734 C72.1289062,14.6220703 73.2958984,15.9208984 74.1650391,17.5517578 C75.0341797,19.1826172 75.46875,20.9746094 75.46875,22.9277344 C75.46875,24.9980469 75.0390625,26.8681641 74.1796875,28.5380859 C73.3203125,30.2080078 72.1582031,31.5263672 70.6933594,32.4931641 C69.2285156,33.4599609 67.5976562,33.9433594 65.8007812,33.9433594 Z M99.3457031,33.9433594 C97.5488281,33.9433594 95.9179688,33.4599609 94.453125,32.4931641 C92.9882812,31.5263672 91.8261719,30.2128906 90.9667969,28.5527344 C90.1074219,26.8925781 89.6777344,25.0273438 89.6777344,22.9570312 C89.6386719,20.984375 90.0585938,19.1875 90.9375,17.5664062 C91.8164062,15.9453125 92.9931641,14.6464844 94.4677734,13.6699219 C95.9423828,12.6933594 97.5683594,12.2050781 99.3457031,12.2050781 C101.123047,12.2050781 102.744141,12.6884766 104.208984,13.6552734 C105.673828,14.6220703 106.845703,15.9208984 107.724609,17.5517578 C108.603516,19.1826172 109.042969,20.9746094 109.042969,22.9277344 C109.042969,24.9980469 108.608398,26.8681641 107.739258,28.5380859 C106.870117,30.2080078 105.708008,31.5263672 104.25293,32.4931641 C102.797852,33.4599609 101.162109,33.9433594 99.3457031,33.9433594 Z M51.8261719,62.625 C55.3027344,62.625 57.0410156,61.3359375 57.0410156,58.7578125 C57.0410156,56.8828125 56.4648438,54.890625 55.3125,52.78125 C54.1601562,50.671875 52.5097656,48.6894531 50.3613281,46.8339844 C48.2128906,44.9785156 45.6103516,43.4746094 42.5537109,42.3222656 C39.4970703,41.1699219 36.0644531,40.59375 32.2558594,40.59375 C28.4277344,40.59375 24.9902344,41.1699219 21.9433594,42.3222656 C18.8964844,43.4746094 16.2939453,44.9785156 14.1357422,46.8339844 C11.9775391,48.6894531 10.3271484,50.671875 9.18457031,52.78125 C8.04199219,54.890625 7.47070312,56.8828125 7.47070312,58.7578125 C7.47070312,61.3359375 9.19921875,62.625 12.65625,62.625 L51.8261719,62.625 Z M85.3417969,62.625 C88.7988281,62.625 90.5273438,61.3359375 90.5273438,58.7578125 C90.5273438,56.8828125 89.9560547,54.890625 88.8134766,52.78125 C87.6708984,50.671875 86.0205078,48.6894531 83.8623047,46.8339844 C81.7041016,44.9785156 79.0966797,43.4746094 76.0400391,42.3222656 C72.9833984,41.1699219 69.5507812,40.59375 65.7421875,40.59375 C62.9101562,40.59375 60.2783203,40.9306641 57.8466797,41.6044922 C55.4150391,42.2783203 53.2226562,43.1816406 51.2695312,44.3144531 C51.5820312,44.5488281 51.875,44.7832031 52.1484375,45.0175781 C52.421875,45.2519531 52.6855469,45.4863281 52.9394531,45.7207031 C54.6777344,44.8222656 56.6162109,44.0947266 58.7548828,43.5380859 C60.8935547,42.9814453 63.2226562,42.703125 65.7421875,42.703125 C69.296875,42.703125 72.4707031,43.2158203 75.2636719,44.2412109 C78.0566406,45.2666016 80.4296875,46.5947266 82.3828125,48.2255859 C84.3359375,49.8564453 85.8203125,51.5947266 86.8359375,53.4404297 C87.8515625,55.2861328 88.359375,57.0195312 88.359375,58.640625 C88.359375,59.34375 88.1591797,59.8320312 87.7587891,60.1054688 C87.3583984,60.3789062 86.640625,60.515625 85.6054688,60.515625 L59.3261719,60.515625 C59.2480469,60.90625 59.1357422,61.2724609 58.9892578,61.6142578 C58.8427734,61.9560547 58.6621094,62.2929688 58.4472656,62.625 L85.3417969,62.625 Z M118.945312,62.625 C122.402344,62.625 124.130859,61.3359375 124.130859,58.7578125 C124.130859,56.8828125 123.55957,54.890625 122.416992,52.78125 C121.274414,50.671875 119.624023,48.6894531 117.46582,46.8339844 C115.307617,44.9785156 112.705078,43.4746094 109.658203,42.3222656 C106.611328,41.1699219 103.173828,40.59375 99.3457031,40.59375 C96.4941406,40.59375 93.8476562,40.9355469 91.40625,41.6191406 C88.9648438,42.3027344 86.7675781,43.2109375 84.8144531,44.34375 C85.1074219,44.578125 85.4003906,44.8173828 85.6933594,45.0615234 C85.9863281,45.3056641 86.2597656,45.5449219 86.5136719,45.7792969 C88.2128906,44.8417969 90.1416016,44.0947266 92.2998047,43.5380859 C94.4580078,42.9814453 96.8066406,42.703125 99.3457031,42.703125 C102.900391,42.703125 106.079102,43.2158203 108.881836,44.2412109 C111.68457,45.2666016 114.057617,46.5947266 116.000977,48.2255859 C117.944336,49.8564453 119.423828,51.5947266 120.439453,53.4404297 C121.455078,55.2861328 121.962891,57.0195312 121.962891,58.640625 C121.962891,59.34375 121.767578,59.8320312 121.376953,60.1054688 C120.986328,60.3789062 120.263672,60.515625 119.208984,60.515625 L92.8125,60.515625 C92.734375,60.90625 92.6269531,61.2724609 92.4902344,61.6142578 C92.3535156,61.9560547 92.1679688,62.2929688 91.9335938,62.625 L118.945312,62.625 Z M52.1484375,60.515625 L12.3925781,60.515625 C11.3378906,60.515625 10.6152344,60.3789062 10.2246094,60.1054688 C9.83398438,59.8320312 9.63867188,59.34375 9.63867188,58.640625 C9.63867188,57.0195312 10.1464844,55.2861328 11.1621094,53.4404297 C12.1777344,51.5947266 13.6572266,49.8564453 15.6005859,48.2255859 C17.5439453,46.5947266 19.9169922,45.2666016 22.7197266,44.2412109 C25.5224609,43.2158203 28.7011719,42.703125 32.2558594,42.703125 C35.8105469,42.703125 38.9892578,43.2158203 41.7919922,44.2412109 C44.5947266,45.2666016 46.9677734,46.5947266 48.9111328,48.2255859 C50.8544922,49.8564453 52.3339844,51.5947266 53.3496094,53.4404297 C54.3652344,55.2861328 54.8730469,57.0195312 54.8730469,58.640625 C54.8730469,59.34375 54.6777344,59.8320312 54.2871094,60.1054688 C53.8964844,60.3789062 53.1835938,60.515625 52.1484375,60.515625 Z" id="􀻷"></path>
            </g>
        </g>
    </g>
</svg>