<?xml version="1.0" encoding="UTF-8"?>
<svg width="16px" height="16px" viewBox="0 0 16 16" version="1.1" xmlns="http://www.w3.org/2000/svg" xmlns:xlink="http://www.w3.org/1999/xlink">
    <title>􀐫</title>
    <g id="Page-1" stroke="none" stroke-width="1" fill="none" fill-rule="evenodd">
        <g id="Desktop-HD-03" transform="translate(-1399.000000, -715.000000)" fill="#5C5B57" fill-rule="nonzero">
            <path d="M1407.11719,730.182617 C1408.1377,730.182617 1409.09839,729.987305 1409.99927,729.59668 C1410.90015,729.206055 1411.69482,728.666504 1412.3833,727.978027 C1413.07178,727.289551 1413.61133,726.494873 1414.00195,725.593994 C1414.39258,724.693115 1414.58789,723.732422 1414.58789,722.711914 C1414.58789,721.691406 1414.39258,720.730713 1414.00195,719.829834 C1413.61133,718.928955 1413.07178,718.134277 1412.3833,717.445801 C1411.69482,716.757324 1410.89893,716.217773 1409.99561,715.827148 C1409.09229,715.436523 1408.13037,715.241211 1407.10986,715.241211 C1406.08936,715.241211 1405.12866,715.436523 1404.22778,715.827148 C1403.3269,716.217773 1402.53345,716.757324 1401.84741,717.445801 C1401.16138,718.134277 1400.62305,718.928955 1400.23242,719.829834 C1399.8418,720.730713 1399.64648,721.691406 1399.64648,722.711914 C1399.64648,723.732422 1399.8418,724.693115 1400.23242,725.593994 C1400.62305,726.494873 1401.1626,727.289551 1401.85107,727.978027 C1402.53955,728.666504 1403.33423,729.206055 1404.23511,729.59668 C1405.13599,729.987305 1406.09668,730.182617 1407.11719,730.182617 Z M1407.11719,728.9375 C1406.25293,728.9375 1405.44482,728.776367 1404.69287,728.454102 C1403.94092,728.131836 1403.28052,727.686279 1402.71167,727.117432 C1402.14282,726.548584 1401.69849,725.888184 1401.37866,725.13623 C1401.05884,724.384277 1400.89893,723.576172 1400.89893,722.711914 C1400.89893,721.847656 1401.05884,721.039551 1401.37866,720.287598 C1401.69849,719.535645 1402.1416,718.874023 1402.70801,718.302734 C1403.27441,717.731445 1403.93359,717.285889 1404.68555,716.966064 C1405.4375,716.64624 1406.24561,716.486328 1407.10986,716.486328 C1407.97412,716.486328 1408.78223,716.64624 1409.53418,716.966064 C1410.28613,717.285889 1410.94775,717.731445 1411.51904,718.302734 C1412.09033,718.874023 1412.53711,719.535645 1412.85938,720.287598 C1413.18164,721.039551 1413.34277,721.847656 1413.34277,722.711914 C1413.34277,723.576172 1413.18286,724.384277 1412.86304,725.13623 C1412.54321,725.888184 1412.09888,726.548584 1411.53003,727.117432 C1410.96118,727.686279 1410.29956,728.131836 1409.54517,728.454102 C1408.79077,728.776367 1407.98145,728.9375 1407.11719,728.9375 Z M1407.10986,723.50293 C1407.25635,723.50293 1407.37842,723.454102 1407.47607,723.356445 C1407.57373,723.258789 1407.62256,723.136719 1407.62256,722.990234 L1407.62256,718.053711 C1407.62256,717.912109 1407.57373,717.79248 1407.47607,717.694824 C1407.37842,717.597168 1407.25635,717.54834 1407.10986,717.54834 C1406.96826,717.54834 1406.84863,717.597168 1406.75098,717.694824 C1406.65332,717.79248 1406.60449,717.912109 1406.60449,718.053711 L1406.60449,722.484863 L1403.28662,722.484863 C1403.14014,722.484863 1403.01807,722.533691 1402.92041,722.631348 C1402.82275,722.729004 1402.77393,722.848633 1402.77393,722.990234 C1402.77393,723.136719 1402.82275,723.258789 1402.92041,723.356445 C1403.01807,723.454102 1403.14014,723.50293 1403.28662,723.50293 L1407.10986,723.50293 Z" id="􀐫"></path>
        </g>
    </g>
</svg>