<?xml version="1.0" encoding="UTF-8"?>
<svg width="70px" height="71px" viewBox="0 0 70 71" version="1.1" xmlns="http://www.w3.org/2000/svg" xmlns:xlink="http://www.w3.org/1999/xlink">
    <title>Group 2 Copy 9</title>
    <g id="Page-1" stroke="none" stroke-width="1" fill="none" fill-rule="evenodd">
        <g id="Desktop-HD-01" transform="translate(-1160.000000, -469.000000)" fill="#FFFFFF" fill-rule="nonzero">
            <g id="Group-2-Copy-9" transform="translate(1160.500000, 469.000000)">
                <path d="M33.9550781,64.5585938 C37.9199219,64.5585938 41.6308594,63.8115234 45.0878906,62.3173828 C48.5449219,60.8232422 51.5966797,58.7578125 54.2431641,56.1210938 C56.8896484,53.484375 58.9599609,50.4326172 60.4541016,46.9658203 C61.9482422,43.4990234 62.6953125,39.7929688 62.6953125,35.8476562 C62.6953125,31.9023438 61.9482422,28.1962891 60.4541016,24.7294922 C59.2919922,22.0330946 57.7813344,19.5877701 55.9221282,17.3935185 L55.822,17.279 L59.5898438,13.4648438 C59.9804688,13.09375 60.1757812,12.6640625 60.1757812,12.1757812 C60.1757812,11.765625 60.0195312,11.4042969 59.7070312,11.0917969 C59.3945312,10.7792969 59.0039062,10.6230469 58.5351562,10.6230469 C58.046875,10.6230469 57.6269531,10.7988281 57.2753906,11.1503906 L53.509,14.87 L53.29208,14.6673335 C50.8717932,12.4594237 48.1321806,10.6962891 45.0732422,9.37792969 C42.1538343,8.119706 39.0647588,7.39126071 35.8060157,7.19259381 L35.625,7.184 L35.625,2.21484375 C35.625,1.7265625 35.46875,1.31640625 35.15625,0.984375 C34.84375,0.65234375 34.4433594,0.486328125 33.9550781,0.486328125 C33.4863281,0.486328125 33.0957031,0.65234375 32.7832031,0.984375 C32.4707031,1.31640625 32.3144531,1.7265625 32.3144531,2.21484375 L32.314,7.182 L32.1041405,7.19259381 C28.8453974,7.39126071 25.756322,8.119706 22.8369141,9.37792969 C19.3701172,10.8720703 16.3183594,12.9375 13.6816406,15.5742188 C11.0449219,18.2109375 8.97949219,21.2626953 7.48535156,24.7294922 C5.99121094,28.1962891 5.24414062,31.9023438 5.24414062,35.8476562 C5.24414062,39.7929688 5.99121094,43.4990234 7.48535156,46.9658203 C8.97949219,50.4326172 11.0449219,53.484375 13.6816406,56.1210938 C16.3183594,58.7578125 19.3701172,60.8232422 22.8369141,62.3173828 C26.3037109,63.8115234 30.0097656,64.5585938 33.9550781,64.5585938 Z M33.9550781,62.3320312 C30.3027344,62.3320312 26.875,61.6484375 23.671875,60.28125 C20.46875,58.9140625 17.6513672,57.0146484 15.2197266,54.5830078 C12.7880859,52.1513672 10.8886719,49.3339844 9.52148438,46.1308594 C8.15429688,42.9277344 7.47070312,39.5 7.47070312,35.8476562 C7.47070312,32.1953125 8.15429688,28.7675781 9.52148438,25.5644531 C10.8886719,22.3613281 12.7880859,19.5390625 15.2197266,17.0976562 C17.6513672,14.65625 20.46875,12.7519531 23.671875,11.3847656 C26.875,10.0175781 30.3027344,9.33398438 33.9550781,9.33398438 C37.6269531,9.33398438 41.0595703,10.0175781 44.2529297,11.3847656 C47.4462891,12.7519531 50.2636719,14.65625 52.7050781,17.0976562 C55.1464844,19.5390625 57.0507812,22.3613281 58.4179688,25.5644531 C59.7851562,28.7675781 60.46875,32.1953125 60.46875,35.8476562 C60.46875,39.5 59.7851562,42.9277344 58.4179688,46.1308594 C57.0507812,49.3339844 55.1513672,52.1513672 52.7197266,54.5830078 C50.2880859,57.0146484 47.4707031,58.9140625 44.2675781,60.28125 C41.0644531,61.6484375 37.6269531,62.3320312 33.9550781,62.3320312 Z M33.9550781,39.2460938 C34.8925781,39.2460938 35.6787109,38.9238281 36.3134766,38.2792969 C36.9482422,37.6347656 37.265625,36.8339844 37.265625,35.8769531 C37.265625,35.2128906 37.0751953,34.6171875 36.6943359,34.0898438 C36.3134766,33.5625 35.7519531,33.1425781 35.0097656,32.8300781 L35.0097656,15.1640625 C35.0097656,14.890625 34.9072266,14.6611328 34.7021484,14.4755859 C34.4970703,14.2900391 34.2480469,14.1972656 33.9550781,14.1972656 C33.7011719,14.1972656 33.4716797,14.2900391 33.2666016,14.4755859 C33.0615234,14.6611328 32.9589844,14.890625 32.9589844,15.1640625 L32.9589844,32.7421875 C32.2167969,33.09375 31.6503906,33.5380859 31.2597656,34.0751953 C30.8691406,34.6123047 30.6738281,35.2128906 30.6738281,35.8769531 C30.6738281,36.8144531 30.9912109,37.6103516 31.6259766,38.2646484 C32.2607422,38.9189453 33.0371094,39.2460938 33.9550781,39.2460938 Z" id="ô€¯"></path>
            </g>
        </g>
    </g>
</svg>