<?xml version="1.0" encoding="UTF-8"?>
<svg width="17px" height="16px" viewBox="0 0 17 16" version="1.1" xmlns="http://www.w3.org/2000/svg" xmlns:xlink="http://www.w3.org/1999/xlink">
    <title>􀣔</title>
    <g id="Page-1" stroke="none" stroke-width="1" fill="none" fill-rule="evenodd">
        <g id="J+D-|-Iconos-Exportables" transform="translate(-209.000000, -101.000000)" fill="#000000" fill-rule="nonzero">
            <path d="M218.327637,116.182617 C219.348145,116.182617 220.308838,115.987305 221.209717,115.59668 C222.110596,115.206055 222.905273,114.666504 223.59375,113.978027 C224.282227,113.289551 224.821777,112.494873 225.212402,111.593994 C225.603027,110.693115 225.79834,109.732422 225.79834,108.711914 C225.79834,107.691406 225.603027,106.730713 225.212402,105.829834 C224.821777,104.928955 224.282227,104.134277 223.59375,103.445801 C222.905273,102.757324 222.110596,102.217773 221.209717,101.827148 C220.308838,101.436523 219.348145,101.241211 218.327637,101.241211 C217.307129,101.241211 216.346436,101.436523 215.445557,101.827148 C214.544678,102.217773 213.75,102.756104 213.061523,103.442139 C212.373047,104.128174 211.833496,104.921631 211.442871,105.82251 C211.26926,106.2229 211.134229,106.635106 211.037779,107.059127 L210.988,107.299 L209.956055,107.29834 C209.780273,107.29834 209.648437,107.33374 209.560547,107.404541 C209.472656,107.475342 209.431152,107.569336 209.436035,107.686523 C209.440918,107.803711 209.489746,107.930664 209.58252,108.067383 L211.223145,110.396484 C211.345215,110.567383 211.484375,110.651611 211.640625,110.64917 C211.796875,110.646729 211.933594,110.5625 212.050781,110.396484 L213.691406,108.060059 C213.78418,107.92334 213.831787,107.797607 213.834229,107.682861 C213.83667,107.568115 213.793945,107.475342 213.706055,107.404541 C213.618164,107.33374 213.48877,107.29834 213.317871,107.29834 L212.255,107.299 L212.289448,107.14991 C212.364407,106.852135 212.461853,106.562256 212.581787,106.280273 C212.901611,105.52832 213.347168,104.869141 213.918457,104.302734 C214.489746,103.736328 215.151367,103.293213 215.90332,102.973389 C216.655273,102.653564 217.463379,102.493652 218.327637,102.493652 C219.191895,102.493652 220,102.653564 220.751953,102.973389 C221.503906,103.293213 222.164307,103.737549 222.733154,104.306396 C223.302002,104.875244 223.747559,105.535645 224.069824,106.287598 C224.39209,107.039551 224.553223,107.847656 224.553223,108.711914 C224.553223,109.576172 224.39209,110.385498 224.069824,111.139893 C223.747559,111.894287 223.302002,112.555908 222.733154,113.124756 C222.164307,113.693604 221.503906,114.13916 220.751953,114.461426 C220,114.783691 219.191895,114.942383 218.327637,114.9375 C217.629395,114.932617 216.967773,114.823975 216.342773,114.611572 C215.717773,114.39917 215.145264,114.100098 214.625244,113.714355 C214.105225,113.328613 213.659668,112.876953 213.288574,112.359375 C213.17627,112.208008 213.040771,112.111572 212.88208,112.070068 C212.723389,112.028564 212.565918,112.054199 212.409668,112.146973 C212.263184,112.239746 212.174072,112.374023 212.142334,112.549805 C212.110596,112.725586 212.158203,112.894043 212.285156,113.055176 C212.749023,113.675293 213.293457,114.220947 213.918457,114.692139 C214.543457,115.16333 215.229492,115.529541 215.976562,115.790771 C216.723633,116.052002 217.507324,116.182617 218.327637,116.182617 Z M220.327148,112.110352 C220.463867,112.017578 220.53833,111.891846 220.550537,111.733154 C220.562744,111.574463 220.512695,111.421875 220.400391,111.275391 L218.627,108.885 L218.62793,104.998535 C218.62793,104.837402 218.571777,104.700684 218.459473,104.588379 C218.347168,104.476074 218.210449,104.419922 218.049316,104.419922 C217.888184,104.419922 217.750244,104.476074 217.635498,104.588379 C217.520752,104.700684 217.463379,104.837402 217.463379,104.998535 L217.463379,109.085449 C217.463379,109.17334 217.478027,109.255127 217.507324,109.330811 C217.536621,109.406494 217.580566,109.483398 217.63916,109.561523 L219.448242,111.949219 C219.570312,112.105469 219.710693,112.197021 219.869385,112.223877 C220.028076,112.250732 220.180664,112.212891 220.327148,112.110352 Z" id="􀣔"></path>
        </g>
    </g>
</svg>