<?xml version="1.0" encoding="UTF-8"?>
<svg width="16px" height="16px" viewBox="0 0 16 16" version="1.1" xmlns="http://www.w3.org/2000/svg" xmlns:xlink="http://www.w3.org/1999/xlink">
    <title>􀈟</title>
    <g id="Page-1" stroke="none" stroke-width="1" fill="none" fill-rule="evenodd">
        <g id="J+D-|-Iconos-Exportables" transform="translate(-249.000000, -143.000000)" fill="#000000" fill-rule="nonzero">
            <path d="M258.737793,158.8125 C259.001465,158.8125 259.228516,158.70752 259.418945,158.497559 C259.609375,158.287598 259.772949,158.006836 259.909668,157.655273 L264.707031,145.123535 C264.770508,144.952637 264.820557,144.793945 264.857178,144.647461 C264.893799,144.500977 264.912109,144.364258 264.912109,144.237305 C264.912109,143.998047 264.84375,143.810059 264.707031,143.67334 C264.570312,143.536621 264.382324,143.468262 264.143066,143.468262 C264.020996,143.468262 263.885498,143.486572 263.736572,143.523193 C263.587646,143.559814 263.427734,143.609863 263.256836,143.67334 L250.65918,148.5 C250.351562,148.617188 250.092773,148.770996 249.882812,148.961426 C249.672852,149.151855 249.567871,149.378906 249.567871,149.642578 C249.567871,149.979492 249.682617,150.222412 249.912109,150.371338 C250.141602,150.520264 250.432129,150.648438 250.783691,150.755859 L256.071777,152.308594 L257.609863,157.530762 C257.717285,157.896973 257.84668,158.202148 257.998047,158.446289 C258.149414,158.69043 258.395996,158.8125 258.737793,158.8125 Z M256.401367,151.195312 L251.347656,149.649902 C251.289062,149.635254 251.248779,149.618164 251.226807,149.598633 C251.204834,149.579102 251.193848,149.557129 251.193848,149.532715 C251.193848,149.508301 251.203613,149.485107 251.223145,149.463135 C251.242676,149.441162 251.279297,149.42041 251.333008,149.400879 L261.235352,145.650879 C261.52832,145.538574 261.815186,145.415283 262.095947,145.281006 C262.376709,145.146729 262.653809,145.016113 262.927246,144.88916 C262.683105,145.084473 262.424316,145.294434 262.150879,145.519043 C261.877441,145.743652 261.640625,145.956055 261.44043,146.15625 L256.401367,151.195312 Z M258.85498,157.201172 C258.825684,157.201172 258.80249,157.187744 258.7854,157.160889 C258.768311,157.134033 258.75,157.091309 258.730469,157.032715 L257.185059,151.979004 L262.224121,146.939941 C262.424316,146.739746 262.637939,146.500488 262.86499,146.222168 C263.092041,145.943848 263.303223,145.680176 263.498535,145.431152 C263.371582,145.709473 263.239746,145.990234 263.103027,146.273438 C262.966309,146.556641 262.841797,146.847168 262.729492,147.14502 L258.979492,157.047363 C258.959961,157.101074 258.94043,157.140137 258.920898,157.164551 C258.901367,157.188965 258.879395,157.201172 258.85498,157.201172 Z" id="􀈟"></path>
        </g>
    </g>
</svg>