<?xml version="1.0" encoding="UTF-8"?>
<svg width="17px" height="17px" viewBox="0 0 17 17" version="1.1" xmlns="http://www.w3.org/2000/svg" xmlns:xlink="http://www.w3.org/1999/xlink">
    <title>􀍟</title>
    <g id="Page-1" stroke="none" stroke-width="1" fill="none" fill-rule="evenodd">
        <g id="Desktop-HD-03" transform="translate(-1398.000000, -251.000000)" fill="#000000" fill-rule="nonzero">
            <path d="M1408.05273,267.871094 C1408.14062,267.856445 1408.21509,267.816162 1408.27612,267.750244 C1408.33716,267.684326 1408.375,267.602539 1408.38965,267.504883 L1408.51416,266.618652 C1408.69482,266.569824 1408.87549,266.512451 1409.05615,266.446533 C1409.23682,266.380615 1409.4126,266.308594 1409.5835,266.230469 L1410.24268,266.82373 C1410.31104,266.89209 1410.38916,266.931152 1410.47705,266.940918 C1410.56494,266.950684 1410.65283,266.931152 1410.74072,266.882324 C1410.90674,266.789551 1410.97021,266.638184 1410.93115,266.428223 L1410.74805,265.549316 C1410.89941,265.446777 1411.04956,265.334473 1411.19849,265.212402 C1411.34741,265.090332 1411.49023,264.960938 1411.62695,264.824219 L1412.43994,265.168457 C1412.63037,265.246582 1412.79639,265.202637 1412.93799,265.036621 C1412.99658,264.968262 1413.02954,264.891357 1413.03687,264.805908 C1413.04419,264.720459 1413.021,264.63623 1412.96729,264.553223 L1412.49121,263.791504 C1412.60352,263.640137 1412.70483,263.481445 1412.79517,263.31543 C1412.8855,263.149414 1412.97217,262.978516 1413.05518,262.802734 L1413.95605,262.84668 C1414.04883,262.851562 1414.13306,262.82959 1414.20874,262.780762 C1414.28442,262.731934 1414.33691,262.661133 1414.36621,262.568359 C1414.39551,262.480469 1414.39673,262.393799 1414.36987,262.30835 C1414.34302,262.2229 1414.29297,262.150879 1414.21973,262.092285 L1413.5166,261.535645 C1413.56543,261.359863 1413.60815,261.177979 1413.64478,260.98999 C1413.6814,260.802002 1413.70703,260.60791 1413.72168,260.407715 L1414.56396,260.144043 C1414.76416,260.075684 1414.86426,259.941406 1414.86426,259.741211 C1414.86426,259.545898 1414.76416,259.414062 1414.56396,259.345703 L1413.72168,259.074707 C1413.70703,258.879395 1413.6814,258.688965 1413.64478,258.503418 C1413.60815,258.317871 1413.56543,258.134766 1413.5166,257.954102 L1414.21973,257.390137 C1414.29297,257.336426 1414.34302,257.269287 1414.36987,257.188721 C1414.39673,257.108154 1414.39551,257.021484 1414.36621,256.928711 C1414.33691,256.835938 1414.28442,256.765137 1414.20874,256.716309 C1414.13306,256.66748 1414.04883,256.645508 1413.95605,256.650391 L1413.05518,256.687012 C1412.97217,256.51123 1412.8855,256.341553 1412.79517,256.177979 C1412.70483,256.014404 1412.60352,255.854492 1412.49121,255.698242 L1412.96729,254.936523 C1413.021,254.858398 1413.04419,254.776611 1413.03687,254.691162 C1413.02954,254.605713 1412.99658,254.528809 1412.93799,254.460449 C1412.79639,254.294434 1412.63037,254.250488 1412.43994,254.328613 L1411.62695,254.658203 C1411.49023,254.53125 1411.34741,254.405518 1411.19849,254.281006 C1411.04956,254.156494 1410.89941,254.042969 1410.74805,253.94043 L1410.93115,253.068848 C1410.95068,252.966309 1410.94458,252.874756 1410.91284,252.794189 C1410.8811,252.713623 1410.82373,252.651367 1410.74072,252.607422 C1410.65283,252.558594 1410.56494,252.539062 1410.47705,252.548828 C1410.38916,252.558594 1410.31104,252.600098 1410.24268,252.67334 L1409.5835,253.251953 C1409.4126,253.173828 1409.23682,253.104248 1409.05615,253.043213 C1408.87549,252.982178 1408.69482,252.924805 1408.51416,252.871094 L1408.38965,251.984863 C1408.375,251.89209 1408.33716,251.812744 1408.27612,251.746826 C1408.21509,251.680908 1408.13818,251.640625 1408.04541,251.625977 C1407.94775,251.611328 1407.85986,251.623535 1407.78174,251.662598 C1407.70361,251.70166 1407.64502,251.760254 1407.60596,251.838379 L1407.18848,252.644043 C1407.08594,252.634277 1406.9895,252.626953 1406.89917,252.62207 C1406.80884,252.617188 1406.71484,252.614746 1406.61719,252.614746 C1406.51953,252.614746 1406.42432,252.617188 1406.33154,252.62207 C1406.23877,252.626953 1406.14355,252.634277 1406.0459,252.644043 L1405.62109,251.838379 C1405.58203,251.760254 1405.52344,251.70166 1405.44531,251.662598 C1405.36719,251.623535 1405.2793,251.611328 1405.18164,251.625977 C1405.08887,251.640625 1405.01196,251.680908 1404.95093,251.746826 C1404.88989,251.812744 1404.85449,251.89209 1404.84473,251.984863 L1404.71289,252.86377 C1404.53223,252.91748 1404.35278,252.976074 1404.17456,253.039551 C1403.99634,253.103027 1403.81934,253.173828 1403.64355,253.251953 L1402.98438,252.67334 C1402.91602,252.600098 1402.83789,252.558594 1402.75,252.548828 C1402.66211,252.539062 1402.57422,252.558594 1402.48633,252.607422 C1402.40332,252.651367 1402.34595,252.713623 1402.31421,252.794189 C1402.28247,252.874756 1402.27637,252.966309 1402.2959,253.068848 L1402.479,253.94043 C1402.32764,254.042969 1402.17749,254.156494 1402.02856,254.281006 C1401.87964,254.405518 1401.73682,254.53125 1401.6001,254.658203 L1400.78711,254.328613 C1400.59668,254.250488 1400.43311,254.294434 1400.29639,254.460449 C1400.23291,254.528809 1400.19751,254.605713 1400.19019,254.691162 C1400.18286,254.776611 1400.20605,254.855957 1400.25977,254.929199 L1400.73584,255.698242 C1400.62842,255.854492 1400.52832,256.014404 1400.43555,256.177979 C1400.34277,256.341553 1400.25488,256.51123 1400.17188,256.687012 L1399.27832,256.650391 C1399.18066,256.645508 1399.09521,256.66748 1399.02197,256.716309 C1398.94873,256.765137 1398.89502,256.835938 1398.86084,256.928711 C1398.83154,257.021484 1398.8291,257.108154 1398.85352,257.188721 C1398.87793,257.269287 1398.9292,257.336426 1399.00732,257.390137 L1399.71045,257.954102 C1399.66162,258.134766 1399.62012,258.317871 1399.58594,258.503418 C1399.55176,258.688965 1399.52979,258.879395 1399.52002,259.074707 L1398.66309,259.345703 C1398.46777,259.40918 1398.37012,259.541016 1398.37012,259.741211 C1398.37012,259.941406 1398.46777,260.075684 1398.66309,260.144043 L1399.52002,260.415039 C1399.52979,260.610352 1399.55176,260.802002 1399.58594,260.98999 C1399.62012,261.177979 1399.66162,261.359863 1399.71045,261.535645 L1399.00732,262.092285 C1398.93408,262.150879 1398.88525,262.22168 1398.86084,262.304688 C1398.83643,262.387695 1398.83643,262.475586 1398.86084,262.568359 C1398.89502,262.661133 1398.94873,262.731934 1399.02197,262.780762 C1399.09521,262.82959 1399.18066,262.851562 1399.27832,262.84668 L1400.17188,262.802734 C1400.25488,262.978516 1400.34277,263.149414 1400.43555,263.31543 C1400.52832,263.481445 1400.62842,263.640137 1400.73584,263.791504 L1400.25977,264.553223 C1400.20605,264.63623 1400.18286,264.720459 1400.19019,264.805908 C1400.19751,264.891357 1400.23291,264.968262 1400.29639,265.036621 C1400.43311,265.202637 1400.59668,265.246582 1400.78711,265.168457 L1401.6001,264.824219 C1401.73682,264.960938 1401.87964,265.090332 1402.02856,265.212402 C1402.17749,265.334473 1402.32764,265.446777 1402.479,265.549316 L1402.2959,266.428223 C1402.27637,266.525879 1402.28247,266.61499 1402.31421,266.695557 C1402.34595,266.776123 1402.40332,266.838379 1402.48633,266.882324 C1402.5791,266.931152 1402.66821,266.950684 1402.75366,266.940918 C1402.83911,266.931152 1402.91602,266.89209 1402.98438,266.82373 L1403.64355,266.230469 C1403.81934,266.308594 1403.99634,266.380615 1404.17456,266.446533 C1404.35278,266.512451 1404.53223,266.569824 1404.71289,266.618652 L1404.84473,267.504883 C1404.85449,267.602539 1404.88989,267.684326 1404.95093,267.750244 C1405.01196,267.816162 1405.08887,267.856445 1405.18164,267.871094 C1405.2793,267.885742 1405.36719,267.873535 1405.44531,267.834473 C1405.52344,267.79541 1405.58203,267.734375 1405.62109,267.651367 L1406.0459,266.845703 C1406.14355,266.855469 1406.23877,266.864014 1406.33154,266.871338 C1406.42432,266.878662 1406.51953,266.882324 1406.61719,266.882324 C1406.71484,266.882324 1406.80884,266.878662 1406.89917,266.871338 C1406.9895,266.864014 1407.08594,266.855469 1407.18848,266.845703 L1407.60596,267.651367 C1407.64502,267.734375 1407.70361,267.79541 1407.78174,267.834473 C1407.85986,267.873535 1407.9502,267.885742 1408.05273,267.871094 Z M1412.546,259.28 L1408.45557,259.279785 C1408.28467,258.815918 1408.03687,258.461914 1407.71216,258.217773 C1407.38745,257.973633 1407.01758,257.851562 1406.60254,257.851562 C1406.53418,257.851562 1406.46094,257.856445 1406.38281,257.866211 C1406.30469,257.875977 1406.20703,257.893066 1406.08984,257.91748 L1403.991,254.326 L1404.2771,254.193115 L1404.2771,254.193115 C1404.99731,253.883057 1405.77734,253.728027 1406.61719,253.728027 C1407.45703,253.728027 1408.23706,253.883057 1408.95728,254.193115 C1409.67749,254.503174 1410.30737,254.932861 1410.84692,255.482178 C1411.38647,256.031494 1411.80762,256.671143 1412.11035,257.401123 C1412.3374,257.948608 1412.47931,258.52562 1412.53607,259.132156 L1412.546,259.28 Z M1403.098,264.631 L1402.87205,264.456438 C1402.70314,264.319022 1402.54161,264.17184 1402.38745,264.014893 C1401.8479,263.465576 1401.42676,262.825928 1401.12402,262.095947 C1400.82129,261.365967 1400.66992,260.583496 1400.66992,259.748535 C1400.66992,258.913574 1400.82129,258.131104 1401.12402,257.401123 C1401.42676,256.671143 1401.8479,256.031494 1402.38745,255.482178 C1402.61869,255.246756 1402.86651,255.033308 1403.13093,254.841832 L1403.147,254.83 L1405.26953,258.444824 C1405.06934,258.649902 1404.92163,258.863525 1404.82642,259.085693 C1404.7312,259.307861 1404.68359,259.538574 1404.68359,259.777832 C1404.68359,260.007324 1404.72998,260.229492 1404.82275,260.444336 C1404.91553,260.65918 1405.06201,260.874023 1405.26221,261.088867 L1403.098,264.631 Z M1406.61719,260.664062 C1406.37793,260.664062 1406.16919,260.576172 1405.99097,260.400391 C1405.81274,260.224609 1405.72363,260.014648 1405.72363,259.770508 C1405.72363,259.521484 1405.81274,259.311523 1405.99097,259.140625 C1406.16919,258.969727 1406.37793,258.884277 1406.61719,258.884277 C1406.86133,258.884277 1407.07251,258.969727 1407.25073,259.140625 C1407.42896,259.311523 1407.51807,259.521484 1407.51807,259.770508 C1407.51807,260.014648 1407.42896,260.224609 1407.25073,260.400391 C1407.07251,260.576172 1406.86133,260.664062 1406.61719,260.664062 Z M1406.61719,265.769043 C1405.77734,265.769043 1404.99731,265.614014 1404.2771,265.303955 L1403.97397,265.163749 L1403.97397,265.163749 L1403.94,265.147 L1406.08984,261.623535 C1406.20215,261.652832 1406.29858,261.672363 1406.37915,261.682129 C1406.45972,261.691895 1406.53418,261.696777 1406.60254,261.696777 C1407.02246,261.696777 1407.39478,261.571045 1407.71948,261.31958 C1408.04419,261.068115 1408.28955,260.705566 1408.45557,260.231934 L1412.545,260.232 L1412.53607,260.364914 C1412.47931,260.971451 1412.3374,261.548462 1412.11035,262.095947 C1411.80762,262.825928 1411.38647,263.465576 1410.84692,264.014893 C1410.30737,264.564209 1409.67749,264.993896 1408.95728,265.303955 C1408.23706,265.614014 1407.45703,265.769043 1406.61719,265.769043 Z" id="􀍟"></path>
        </g>
    </g>
</svg>