<?xml version="1.0" encoding="UTF-8"?>
<svg width="15px" height="15px" viewBox="0 0 15 15" version="1.1" xmlns="http://www.w3.org/2000/svg" xmlns:xlink="http://www.w3.org/1999/xlink">
    <title>􀄔</title>
    <g id="Page-1" stroke="none" stroke-width="1" fill="none" fill-rule="evenodd">
        <g id="Desktop-HD-03" transform="translate(-1325.000000, -252.000000)" fill="#000000" fill-rule="nonzero">
            <path d="M1337.05933,266.464844 C1337.82593,266.464844 1338.40088,266.275635 1338.78418,265.897217 C1339.16748,265.518799 1339.35913,264.951172 1339.35913,264.194336 L1339.35913,255.251465 C1339.35913,254.494629 1339.16748,253.927002 1338.78418,253.548584 C1338.40088,253.170166 1337.82593,252.980957 1337.05933,252.980957 L1328.17505,252.980957 C1327.40845,252.980957 1326.8335,253.170166 1326.4502,253.548584 C1326.06689,253.927002 1325.87524,254.494629 1325.87524,255.251465 L1325.87524,264.194336 C1325.87524,264.951172 1326.06689,265.518799 1326.4502,265.897217 C1326.8335,266.275635 1327.40845,266.464844 1328.17505,266.464844 L1337.05933,266.464844 Z M1337.04468,265.285645 L1328.1897,265.285645 C1327.82349,265.285645 1327.54272,265.189209 1327.34741,264.996338 C1327.1521,264.803467 1327.05444,264.516602 1327.05444,264.135742 L1327.05444,255.310059 C1327.05444,254.929199 1327.1521,254.642334 1327.34741,254.449463 C1327.54272,254.256592 1327.82349,254.160156 1328.1897,254.160156 L1337.04468,254.160156 C1337.40601,254.160156 1337.68555,254.256592 1337.8833,254.449463 C1338.08105,254.642334 1338.17993,254.929199 1338.17993,255.310059 L1338.17993,264.135742 C1338.17993,264.516602 1338.08105,264.803467 1337.8833,264.996338 C1337.68555,265.189209 1337.40601,265.285645 1337.04468,265.285645 Z M1330.32104,262.539062 C1330.48706,262.539062 1330.62622,262.48291 1330.73853,262.370605 L1333.44116,259.667969 L1334.48853,258.547363 L1334.37866,259.682617 L1334.37866,260.949707 C1334.37866,261.125488 1334.42871,261.264648 1334.52881,261.367188 C1334.62891,261.469727 1334.75952,261.520996 1334.92065,261.520996 C1335.08179,261.520996 1335.21118,261.466064 1335.30884,261.356201 C1335.40649,261.246338 1335.45532,261.105957 1335.45532,260.935059 L1335.45532,257.485352 C1335.45532,257.265625 1335.40039,257.109375 1335.29053,257.016602 C1335.18066,256.923828 1335.03296,256.877441 1334.84741,256.877441 L1331.36841,256.877441 C1331.19751,256.877441 1331.06079,256.92627 1330.95825,257.023926 C1330.85571,257.121582 1330.80444,257.250977 1330.80444,257.412109 C1330.80444,257.578125 1330.85693,257.709961 1330.96191,257.807617 C1331.06689,257.905273 1331.20728,257.954102 1331.38306,257.954102 L1332.71606,257.954102 L1333.80005,257.836914 L1332.66479,258.898926 L1329.96216,261.601562 C1329.84497,261.71875 1329.78638,261.848145 1329.78638,261.989746 C1329.78638,262.155762 1329.83521,262.288818 1329.93286,262.388916 C1330.03052,262.489014 1330.15991,262.539062 1330.32104,262.539062 Z" id="􀄔"></path>
        </g>
    </g>
</svg>