<svg aria-hidden="true" style="position: absolute; width: 0; height: 0; overflow: hidden;" version="1.1" xmlns="http://www.w3.org/2000/svg" xmlns:xlink="http://www.w3.org/1999/xlink">
<defs>
<symbol id="icon-bin" viewBox="0 0 27 32">
<path d="M18.629 30.612c0.929 0 1.684-0.278 2.266-0.833s0.894-1.302 0.938-2.24l0.898-18.932h1.563c0.269 0 0.497-0.098 0.684-0.293s0.28-0.428 0.28-0.697c0-0.269-0.096-0.499-0.286-0.69s-0.417-0.286-0.677-0.286l-5.952 0.001 0.002-1.993c0-0.938-0.289-1.678-0.866-2.22s-1.365-0.814-2.363-0.814h-4.948c-0.998 0-1.786 0.271-2.363 0.814s-0.866 1.283-0.866 2.22l-0.002 1.993-5.91-0.001c-0.26 0-0.488 0.098-0.684 0.293s-0.293 0.423-0.293 0.684c0 0.269 0.098 0.501 0.293 0.697s0.423 0.293 0.684 0.293h1.563l0.898 18.945c0.043 0.938 0.354 1.682 0.931 2.233s1.335 0.827 2.272 0.827h11.94zM16.272 6.642h-7.266l0.001-1.863c0-0.365 0.119-0.66 0.358-0.885s0.553-0.339 0.944-0.339h4.661c0.391 0 0.705 0.113 0.944 0.339s0.358 0.521 0.358 0.885l-0.001 1.863zM18.421 28.646h-11.55c-0.373 0-0.686-0.126-0.938-0.378s-0.386-0.569-0.404-0.951l-0.911-18.711h16.016l-0.859 18.711c-0.017 0.391-0.152 0.71-0.404 0.957s-0.569 0.371-0.951 0.371zM8.799 26.419c0.243 0 0.438-0.072 0.586-0.215s0.221-0.328 0.221-0.553l-0.404-13.932c0-0.226-0.076-0.408-0.228-0.547s-0.345-0.208-0.579-0.208c-0.243 0-0.441 0.072-0.592 0.215s-0.224 0.328-0.215 0.553l0.391 13.919c0.009 0.234 0.087 0.421 0.234 0.56s0.343 0.208 0.586 0.208zM12.653 26.419c0.252 0 0.456-0.072 0.612-0.215s0.234-0.328 0.234-0.553v-13.919c0-0.226-0.078-0.41-0.234-0.553s-0.36-0.215-0.612-0.215c-0.243 0-0.443 0.072-0.599 0.215s-0.234 0.328-0.234 0.553v13.919c0 0.226 0.078 0.41 0.234 0.553s0.356 0.215 0.599 0.215zM16.52 26.419c0.234 0 0.425-0.069 0.573-0.208s0.226-0.326 0.234-0.56l0.391-13.919c0.009-0.226-0.061-0.41-0.208-0.553s-0.347-0.215-0.599-0.215c-0.234 0-0.425 0.069-0.573 0.208s-0.226 0.326-0.234 0.56l-0.391 13.919c-0.009 0.226 0.061 0.41 0.208 0.553s0.347 0.215 0.599 0.215z"></path>
</symbol>
<symbol id="icon-Check" viewBox="0 0 32 32">
<path fill="#446636" style="fill: var(--color1, #446636)" d="M16.234 30.365c2.041 0 3.962-0.391 5.764-1.172s3.391-1.86 4.768-3.237c1.377-1.377 2.456-2.966 3.237-4.768s1.172-3.723 1.172-5.764c0-2.041-0.391-3.962-1.172-5.764s-1.86-3.391-3.237-4.768c-1.377-1.377-2.969-2.456-4.775-3.237s-3.73-1.172-5.771-1.172c-2.041 0-3.962 0.391-5.764 1.172s-3.389 1.86-4.761 3.237c-1.372 1.377-2.449 2.966-3.23 4.768s-1.172 3.723-1.172 5.764c0 2.041 0.391 3.962 1.172 5.764s1.86 3.391 3.237 4.768c1.377 1.377 2.966 2.456 4.768 3.237s3.723 1.172 5.764 1.172zM16.234 27.875c-1.729 0-3.345-0.322-4.849-0.967s-2.825-1.536-3.962-2.673c-1.138-1.138-2.026-2.459-2.666-3.962s-0.959-3.12-0.959-4.849c0-1.729 0.32-3.345 0.959-4.849s1.526-2.827 2.659-3.97c1.133-1.143 2.451-2.034 3.955-2.673s3.12-0.959 4.849-0.959c1.729 0 3.345 0.32 4.849 0.959s2.827 1.531 3.97 2.673c1.143 1.143 2.036 2.466 2.681 3.97s0.967 3.12 0.967 4.849c0 1.729-0.32 3.345-0.959 4.849s-1.528 2.825-2.666 3.962c-1.138 1.138-2.461 2.029-3.97 2.673s-3.127 0.967-4.856 0.967zM14.623 22.367c0.498 0 0.894-0.225 1.187-0.674l6.694-10.547c0.088-0.137 0.168-0.286 0.242-0.447s0.11-0.325 0.11-0.491c0-0.322-0.122-0.581-0.366-0.776s-0.518-0.293-0.82-0.293c-0.41 0-0.752 0.22-1.025 0.659l-6.079 9.756-2.886-3.735c-0.176-0.234-0.349-0.393-0.52-0.476s-0.359-0.124-0.564-0.124c-0.313 0-0.579 0.115-0.798 0.344s-0.33 0.505-0.33 0.828c0 0.303 0.112 0.605 0.337 0.908l3.574 4.395c0.186 0.234 0.378 0.405 0.579 0.513s0.422 0.161 0.666 0.161z"></path>
</symbol>
<symbol id="icon-chevron" viewBox="0 0 59 32">
<path d="M28.724 2.458c0.438 0 0.854 0.089 1.25 0.266s0.75 0.443 1.063 0.797l22.719 23.188c0.604 0.625 0.906 1.354 0.906 2.188 0 0.583-0.135 1.109-0.406 1.578s-0.641 0.839-1.109 1.109c-0.469 0.271-0.995 0.406-1.578 0.406-0.833 0-1.583-0.302-2.25-0.906l-20.614-21.137-20.636 21.137c-0.625 0.604-1.365 0.906-2.219 0.906-0.583 0-1.109-0.135-1.578-0.406s-0.839-0.641-1.109-1.109c-0.271-0.469-0.406-0.995-0.406-1.578 0-0.438 0.083-0.839 0.25-1.203s0.385-0.693 0.656-0.984l22.688-23.219c0.708-0.688 1.5-1.031 2.375-1.031z"></path>
</symbol>
<symbol id="icon-cilindro" viewBox="0 0 26 32">
<path d="M0.637 23.949c0 1.348 0.525 2.541 1.575 3.582s2.52 1.853 4.409 2.439c1.89 0.586 4.094 0.879 6.614 0.879s4.724-0.293 6.614-0.879c1.89-0.586 3.359-1.399 4.409-2.439s1.575-2.234 1.575-3.582v-17.725c0-1.23-0.525-2.314-1.575-3.252s-2.52-1.67-4.409-2.197c-1.89-0.527-4.094-0.791-6.614-0.791s-4.724 0.264-6.614 0.791c-1.89 0.527-3.359 1.26-4.409 2.197s-1.575 2.021-1.575 3.252v17.725zM13.234 10.238c-2.051 0-3.843-0.171-5.376-0.513s-2.727-0.815-3.582-1.421c-0.854-0.605-1.282-1.299-1.282-2.080 0-0.82 0.427-1.543 1.282-2.168s2.048-1.116 3.582-1.472c1.533-0.356 3.325-0.535 5.376-0.535s3.843 0.178 5.376 0.535c1.533 0.356 2.727 0.847 3.582 1.472s1.282 1.348 1.282 2.168c0 0.781-0.427 1.475-1.282 2.080s-2.048 1.079-3.582 1.421c-1.533 0.342-3.325 0.513-5.376 0.513zM13.234 19.335c-1.484 0-2.942-0.139-4.373-0.417s-2.734-0.664-3.911-1.157c-0.672-0.282-1.274-0.588-1.804-0.92l-0.152-0.099v-6.666l0.407 0.258c0.887 0.532 1.96 0.973 3.219 1.325 1.89 0.527 4.094 0.791 6.614 0.791s4.724-0.264 6.614-0.791c1.26-0.352 2.333-0.793 3.219-1.325l0.404-0.258v6.666l-0.151 0.099c-0.532 0.331-1.135 0.638-1.81 0.92-1.182 0.493-2.485 0.879-3.911 1.157s-2.881 0.417-4.365 0.417zM13.234 28.637c-2.051 0-3.843-0.203-5.376-0.608s-2.727-0.962-3.582-1.67c-0.854-0.708-1.282-1.511-1.282-2.41l-0.001-4.717 0.035 0.018c0.325 0.174 0.67 0.342 1.036 0.502 1.279 0.562 2.71 1.001 4.292 1.318s3.208 0.476 4.878 0.476c1.67 0 3.293-0.159 4.871-0.476s3.008-0.757 4.292-1.318c0.367-0.16 0.713-0.328 1.039-0.502l0.036-0.018 0.002 4.717c0 0.898-0.427 1.702-1.282 2.41s-2.048 1.265-3.582 1.67c-1.533 0.405-3.325 0.608-5.376 0.608z"></path>
</symbol>
<symbol id="icon-doc" viewBox="0 0 26 32">
<path d="M20.718 31.178c1.425 0 2.493-0.361 3.205-1.082s1.068-1.799 1.068-3.233v-12.518c0-0.597-0.032-1.098-0.096-1.503s-0.191-0.774-0.379-1.11c-0.188-0.335-0.466-0.692-0.834-1.068l-7.596-7.734c-0.349-0.358-0.689-0.632-1.020-0.82s-0.692-0.317-1.082-0.386c-0.391-0.069-0.843-0.103-1.358-0.103h-6.549c-1.425 0-2.493 0.363-3.205 1.089s-1.068 1.806-1.068 3.24v20.915c0 1.443 0.356 2.523 1.068 3.24s1.781 1.075 3.205 1.075h14.642zM20.608 28.959h-14.435c-0.708 0-1.243-0.184-1.606-0.551s-0.545-0.896-0.545-1.585v-20.832c0-0.68 0.181-1.209 0.545-1.585s0.903-0.565 1.62-0.565h6.135v8.010c0 0.864 0.216 1.512 0.648 1.944s1.080 0.648 1.944 0.648h7.858v12.38c0 0.689-0.182 1.218-0.545 1.585s-0.903 0.551-1.62 0.551zM22.345 12.359h-7.183c-0.276 0-0.471-0.060-0.586-0.179s-0.172-0.317-0.172-0.593v-7.321l7.941 8.093zM18.471 19.942c0.239 0 0.439-0.083 0.6-0.248s0.241-0.368 0.241-0.607c0-0.239-0.080-0.439-0.241-0.6s-0.361-0.241-0.6-0.241h-10.464c-0.248 0-0.455 0.080-0.62 0.241s-0.248 0.361-0.248 0.6c0 0.239 0.083 0.441 0.248 0.607s0.372 0.248 0.62 0.248h10.464zM18.471 24.754c0.239 0 0.439-0.080 0.6-0.241s0.241-0.356 0.241-0.586c0-0.248-0.080-0.455-0.241-0.62s-0.361-0.248-0.6-0.248h-10.464c-0.248 0-0.455 0.083-0.62 0.248s-0.248 0.372-0.248 0.62c0 0.23 0.083 0.425 0.248 0.586s0.372 0.241 0.62 0.241h10.464z"></path>
</symbol>
<symbol id="icon-fc365" viewBox="0 0 92 32">
<path fill="#000" style="fill: var(--color2, #000)" d="M53.063 3.017v-2.664h-17.569v2.666l11.808-0.001z"></path>
<path fill="#000" style="fill: var(--color2, #000)" d="M61.69 28.057v2.694c-5.418-0.305-9.678-4.746-9.756-10.173h2.685c0.075 3.944 3.137 7.183 7.071 7.48z"></path>
<path fill="#fff" style="fill: var(--color3, #fff)" d="M12.583 0.338v3.105h-8.235v5.241h6.6v2.995h-6.6v8.237h-3.91v-19.578zM28.75 2.030c1.628 1.287 2.755 3.101 3.189 5.13h-4.104c-0.392-1.013-1.085-1.882-1.983-2.496-0.957-0.626-2.086-0.946-3.231-0.914-2.035-0.038-3.9 1.139-4.742 2.994-0.924 2.151-0.924 4.587 0 6.738 0.842 1.856 2.706 3.033 4.742 2.995 1.145 0.032 2.273-0.287 3.231-0.915 0.899-0.612 1.59-1.482 1.983-2.495h4.104c-0.434 2.029-1.561 3.843-3.189 5.13-1.608 1.258-3.631 1.885-6.073 1.885-1.734 0.035-3.443-0.401-4.949-1.262-1.426-0.835-2.582-2.062-3.328-3.535-1.572-3.27-1.572-7.075 0-10.343 0.744-1.472 1.894-2.699 3.314-3.537 1.51-0.863 3.225-1.299 4.963-1.261 2.44 0 4.466 0.629 6.073 1.885z"></path>
<path fill="#000" style="fill: var(--color2, #000)" d="M64.133 9.396c-0.966-0.153-1.948-0.167-2.918-0.042l-1.878 3.196c1.030-0.44 2.143-0.644 3.261-0.598 4.042 0.014 7.373 3.178 7.59 7.214h2.689c-0.214-4.925-3.873-9.013-8.744-9.77z"></path>
<path fill="#000" style="fill: var(--color2, #000)" d="M79.937 28.057v2.694c-5.418-0.305-9.678-4.746-9.756-10.173h2.687c0.075 3.944 3.137 7.183 7.071 7.48z"></path>
<path fill="#000" style="fill: var(--color2, #000)" d="M88.42 19.166h2.688c-0.227-5.309-4.442-9.582-9.747-9.88v2.694c3.821 0.288 6.84 3.36 7.059 7.186z"></path>
<path fill="#000" style="fill: var(--color2, #000)" d="M79.906 9.269h-3.815v-6.251h13.355v-2.666h-16.070v11.583l6.529 0.021v-2.687z"></path>
<path fill="#000" style="fill: var(--color2, #000)" d="M81.36 28.018v2.694c5.418-0.305 9.678-4.747 9.756-10.173h-2.685c-0.077 3.943-3.139 7.183-7.071 7.48z"></path>
<path fill="#000" style="fill: var(--color2, #000)" d="M36.118 20.539h-2.685c0.075 5.519 4.474 10.006 9.991 10.189v-2.689c-4.033-0.178-7.232-3.464-7.304-7.499z"></path>
<path fill="#000" style="fill: var(--color2, #000)" d="M63.109 28.057v2.694c5.418-0.305 9.678-4.746 9.756-10.173h-2.685c-0.075 3.944-3.137 7.183-7.071 7.48z"></path>
<path fill="#000" style="fill: var(--color2, #000)" d="M44.839 28.057v2.694c5.418-0.305 9.679-4.746 9.756-10.173h-2.685c-0.075 3.944-3.137 7.183-7.071 7.48z"></path>
<path fill="#000" style="fill: var(--color2, #000)" d="M62.142 0.352l-8.811 14.197c-1.355-2.453-3.676-4.225-6.399-4.886l5.106-5.229h-3.698l-5.195 5.294 1.448 2.33 0.004-0.004 0.004 0.004c3.947 0.036 7.171 3.165 7.324 7.108h2.727c0.065-1.078 0.359-2.131 0.863-3.089l9.729-15.729-3.103 0.004z"></path>
</symbol>
<symbol id="icon-folder" viewBox="0 0 36 32">
<path d="M31.688 30.655c1.396 0 2.484-0.404 3.266-1.211s1.172-2.018 1.172-3.633v-16.047c0-1.604-0.411-2.813-1.234-3.625s-2.047-1.219-3.672-1.219h-15c-0.531 0-0.979-0.070-1.344-0.211s-0.745-0.378-1.141-0.711l-0.953-0.781c-0.344-0.292-0.675-0.521-0.992-0.688s-0.667-0.286-1.047-0.359c-0.38-0.073-0.825-0.109-1.336-0.109h-4.453c-1.375 0-2.438 0.391-3.188 1.172s-1.125 1.958-1.125 3.531v19.047c0 1.615 0.409 2.826 1.227 3.633s2.044 1.211 3.68 1.211h26.141zM33.609 10.797h-30.453l0.002-3.892c0-0.771 0.198-1.354 0.594-1.75s0.969-0.594 1.719-0.594h3.297c0.521 0 0.961 0.073 1.32 0.219s0.737 0.385 1.133 0.719l0.953 0.797c0.333 0.281 0.661 0.505 0.984 0.672s0.677 0.286 1.063 0.359c0.385 0.073 0.833 0.109 1.344 0.109h15.609c0.771 0 1.37 0.208 1.797 0.625s0.641 1.031 0.641 1.844l-0.001 0.892zM31.172 28.14h-25.594c-0.781 0-1.38-0.206-1.797-0.617s-0.625-1.023-0.625-1.836l-0.002-12.53h30.453l0.001 12.546c0 0.802-0.214 1.409-0.641 1.82s-1.026 0.617-1.797 0.617z"></path>
</symbol>
<symbol id="icon-home" viewBox="0 0 37 32">
<path fill="#fff" style="fill: var(--color3, #fff)" d="M27.856 31.792c1.083 0 1.93-0.297 2.539-0.891s0.914-1.422 0.914-2.484l-0.001-14.020 1.907 1.598c0.167 0.146 0.346 0.268 0.539 0.367s0.398 0.148 0.617 0.148c0.385 0 0.711-0.112 0.977-0.336s0.398-0.534 0.398-0.93c0-0.448-0.172-0.823-0.516-1.125l-3.922-3.291 0.001-6.209c0-0.323-0.099-0.583-0.297-0.781s-0.458-0.297-0.781-0.297h-1.797c-0.333 0-0.599 0.099-0.797 0.297s-0.297 0.458-0.297 0.781l-0.002 2.877-7.483-6.283c-0.594-0.51-1.237-0.766-1.93-0.766s-1.341 0.255-1.945 0.766l-15.391 12.922c-0.365 0.292-0.547 0.651-0.547 1.078 0 0.344 0.128 0.646 0.383 0.906s0.596 0.391 1.023 0.391c0.219 0 0.424-0.049 0.617-0.148s0.367-0.221 0.523-0.367l1.812-1.517 0.001 13.938c0 1.063 0.302 1.891 0.906 2.484s1.453 0.891 2.547 0.891h20zM27.215 29.135l-5.064 0.001 0.002-9.797c0-0.344-0.102-0.62-0.305-0.828s-0.477-0.313-0.82-0.313h-6.234c-0.354 0-0.635 0.104-0.844 0.313s-0.313 0.484-0.313 0.828l-0.002 9.797-5.139-0.001c-0.469 0-0.826-0.128-1.070-0.383s-0.367-0.617-0.367-1.086l-0.001-15.414 10.282-8.617c0.177-0.156 0.367-0.237 0.57-0.242s0.398 0.076 0.586 0.242l10.156 8.53 0 15.501c0 0.469-0.125 0.831-0.375 1.086s-0.604 0.383-1.063 0.383z"></path>
</symbol>
<symbol id="icon-left-arrow" viewBox="0 0 37 32">
<path fill="#fff" style="fill: var(--color3, #fff)" d="M15.222 30.558c0.536 0 0.981-0.174 1.336-0.522s0.532-0.783 0.532-1.306c0-0.268-0.050-0.519-0.151-0.753s-0.231-0.432-0.392-0.593l-4.259-4.339-5.994-5.447 4.528 0.284h23.545c0.549 0 1.001-0.177 1.356-0.532s0.532-0.814 0.532-1.376c0-0.549-0.177-1.001-0.532-1.356s-0.807-0.532-1.356-0.532h-23.545l-4.496 0.272 5.962-5.455 4.259-4.319c0.161-0.161 0.291-0.362 0.392-0.603s0.151-0.489 0.151-0.743c0-0.522-0.177-0.958-0.532-1.306s-0.8-0.522-1.336-0.522c-0.254 0-0.496 0.050-0.723 0.151s-0.462 0.258-0.703 0.472l-12.516 12.536c-0.429 0.402-0.643 0.871-0.643 1.406 0 0.549 0.214 1.025 0.643 1.426l12.576 12.556c0.402 0.402 0.857 0.603 1.366 0.603z"></path>
</symbol>
<symbol id="icon-logo-side" viewBox="0 0 85 32">
<path d="M35.109 0v32h5.232v-32z"></path>
<path d="M80.884 2.452c-1.989-1.635-4.987-2.451-8.987-2.451h-2.019v4.379h1.669c2.379 0 4.133 0.451 5.253 1.357 1.125 0.901 1.688 2.272 1.688 4.115 0 1.984-0.629 3.44-1.883 4.373-1.256 0.936-3.227 1.403-5.909 1.403h-0.819v4.4h1.363c4.043 0 7.16-0.893 9.347-2.669 2.192-1.781 3.285-4.344 3.285-7.683 0-3.181-0.995-5.589-2.987-7.227z"></path>
<path d="M44.323 0.001h-2.021v4.379h1.669c2.376 0 4.128 0.451 5.253 1.355 1.12 0.907 1.688 2.277 1.688 4.117 0 1.984-0.629 3.44-1.883 4.376-1.256 0.933-3.227 1.4-5.912 1.4h-0.816v4.4h1.363c4.040 0 7.157-0.891 9.347-2.669 2.187-1.781 3.28-4.344 3.28-7.685 0-3.179-0.992-5.587-2.987-7.221-1.989-1.635-4.987-2.453-8.981-2.453z"></path>
<path d="M67.915 15.628v-15.627h-5.229v32h5.229v-11.976z"></path>
<path d="M21.867 16.767c0 1.184 0.045 2.827 0.131 4.936 0.088 2.107 0.147 3.328 0.176 3.664h-0.133l-15.693-25.365h-6.347v32h4.747v-16.64c0-2.248-0.099-4.728-0.304-7.44l-0.109-1.424h0.176l15.736 25.504h6.413v-32h-4.792v16.765z"></path>
</symbol>
<symbol id="icon-logo-top" viewBox="0 0 32 32">
<path fill="#000" style="fill: var(--color2, #000)" d="M6.919 32h18.162c3.821 0 6.919-3.098 6.919-6.919v-18.162c0-3.821-3.098-6.919-6.919-6.919h-18.162c-3.821 0-6.919 3.098-6.919 6.919v18.162c0 3.821 3.098 6.919 6.919 6.919z"></path>
<path fill="#000" style="fill: var(--color2, #000)" d="M17.357 13.711v-0.602h-3.971v0.603l2.669-0.001z"></path>
<path fill="#000" style="fill: var(--color2, #000)" d="M19.308 19.371v0.609c-1.226-0.069-2.188-1.072-2.205-2.3h0.606c0.017 0.891 0.709 1.624 1.598 1.691z"></path>
<path fill="#fff" style="fill: var(--color3, #fff)" d="M8.206 13.105v0.702h-1.861v1.185h1.492v0.677h-1.492v1.861h-0.884v-4.425zM11.861 13.488c0.368 0.291 0.623 0.701 0.72 1.16h-0.927c-0.089-0.229-0.246-0.425-0.449-0.564-0.216-0.142-0.471-0.214-0.73-0.208-0.46-0.008-0.882 0.259-1.072 0.678-0.208 0.486-0.208 1.037 0 1.522 0.19 0.42 0.612 0.686 1.072 0.677 0.259 0.008 0.514-0.065 0.73-0.207 0.203-0.138 0.36-0.335 0.449-0.564h0.927c-0.098 0.458-0.353 0.868-0.72 1.159-0.363 0.285-0.822 0.427-1.373 0.427-0.392 0.008-0.778-0.091-1.118-0.285-0.323-0.189-0.584-0.466-0.752-0.799-0.355-0.739-0.355-1.6 0-2.339 0.168-0.332 0.428-0.61 0.749-0.799 0.342-0.195 0.729-0.294 1.122-0.285 0.552 0 1.010 0.144 1.373 0.427z"></path>
<path fill="#000" style="fill: var(--color2, #000)" d="M19.86 15.153c-0.219-0.035-0.441-0.038-0.66-0.010l-0.425 0.723c0.233-0.099 0.484-0.145 0.738-0.135 0.913 0.003 1.666 0.718 1.715 1.63h0.608c-0.048-1.113-0.875-2.038-1.976-2.208z"></path>
<path fill="#000" style="fill: var(--color2, #000)" d="M23.432 19.371v0.609c-1.225-0.069-2.188-1.072-2.205-2.3h0.608c0.017 0.891 0.709 1.624 1.597 1.691z"></path>
<path fill="#000" style="fill: var(--color2, #000)" d="M25.349 17.361h0.608c-0.052-1.2-1.004-2.166-2.204-2.233v0.609c0.864 0.065 1.546 0.759 1.596 1.624z"></path>
<path fill="#000" style="fill: var(--color2, #000)" d="M23.425 15.125h-0.862v-1.413h3.019v-0.603h-3.632v2.618l1.475 0.005v-0.607z"></path>
<path fill="#000" style="fill: var(--color2, #000)" d="M23.753 19.363v0.609c1.225-0.069 2.188-1.072 2.205-2.301h-0.607c-0.017 0.893-0.709 1.624-1.598 1.692z"></path>
<path fill="#000" style="fill: var(--color2, #000)" d="M13.527 17.672h-0.607c0.017 1.248 1.012 2.262 2.258 2.303v-0.609c-0.912-0.040-1.635-0.783-1.652-1.695z"></path>
<path fill="#000" style="fill: var(--color2, #000)" d="M19.628 19.371v0.609c1.225-0.069 2.188-1.072 2.205-2.3h-0.607c-0.017 0.891-0.709 1.624-1.598 1.691z"></path>
<path fill="#000" style="fill: var(--color2, #000)" d="M15.498 19.371v0.609c1.225-0.069 2.188-1.072 2.205-2.3h-0.607c-0.017 0.891-0.709 1.624-1.598 1.691z"></path>
<path fill="#000" style="fill: var(--color2, #000)" d="M19.409 13.109l-1.992 3.209c-0.306-0.553-0.83-0.955-1.446-1.104l1.154-1.181h-0.835l-1.175 1.196 0.328 0.528v-0.002l0.002 0.001c0.893 0.009 1.621 0.715 1.655 1.607h0.617c0.015-0.244 0.081-0.482 0.195-0.698l2.199-3.555-0.701 0.001z"></path>
</symbol>
<symbol id="icon-menu" viewBox="0 0 39 32">
<path d="M1.231 0h36.923c0.68 0 1.231 0.551 1.231 1.231s-0.551 1.231-1.231 1.231h-36.923c-0.68 0-1.231-0.551-1.231-1.231s0.551-1.231 1.231-1.231z"></path>
<path d="M1.231 9.846h36.923c0.68 0 1.231 0.551 1.231 1.231s-0.551 1.231-1.231 1.231h-36.923c-0.68 0-1.231-0.551-1.231-1.231s0.551-1.231 1.231-1.231z"></path>
<path d="M1.231 19.692h36.923c0.68 0 1.231 0.551 1.231 1.231s-0.551 1.231-1.231 1.231h-36.923c-0.68 0-1.231-0.551-1.231-1.231s0.551-1.231 1.231-1.231z"></path>
<path d="M1.231 29.538h36.923c0.68 0 1.231 0.551 1.231 1.231s-0.551 1.231-1.231 1.231h-36.923c-0.68 0-1.231-0.551-1.231-1.231s0.551-1.231 1.231-1.231z"></path>
</symbol>
<symbol id="icon-npp-summary" viewBox="0 0 29 32">
<path fill="#fff" style="fill: var(--color3, #fff)" d="M21.379 30.14c1.162 0 2.042-0.299 2.641-0.898s0.898-1.488 0.898-2.667v-20.797c0-1.162-0.299-2.044-0.898-2.647s-1.479-0.905-2.641-0.905h-14.234c-1.171 0-2.055 0.301-2.654 0.905s-0.898 1.485-0.898 2.647v20.797c0 1.18 0.299 2.069 0.898 2.667s1.483 0.898 2.654 0.898h14.234zM21.326 29.163h-14.142c-0.863 0-1.514-0.22-1.954-0.66s-0.66-1.092-0.66-1.954v-20.731c0-0.863 0.22-1.514 0.66-1.954s1.092-0.66 1.954-0.66h14.142c0.863 0 1.514 0.22 1.954 0.66s0.66 1.092 0.66 1.954v20.731c0 0.863-0.22 1.514-0.66 1.954s-1.092 0.66-1.954 0.66zM16.202 10.136c0.238 0 0.423-0.075 0.555-0.224s0.198-0.343 0.198-0.581v-2.694c0-0.246-0.066-0.442-0.198-0.588s-0.317-0.218-0.555-0.218h-8.622c-0.238 0-0.425 0.073-0.561 0.218s-0.205 0.341-0.205 0.588v2.694c0 0.238 0.068 0.431 0.205 0.581s0.324 0.224 0.561 0.224h8.622zM20.943 15.576c0.238 0 0.425-0.075 0.561-0.224s0.205-0.348 0.205-0.594v-2.68c0-0.246-0.068-0.442-0.205-0.588s-0.323-0.218-0.561-0.218h-13.363c-0.238 0-0.425 0.073-0.561 0.218s-0.205 0.341-0.205 0.588v2.707c0 0.229 0.068 0.418 0.205 0.568s0.324 0.224 0.561 0.224h13.363zM18.579 21.016c0.22 0 0.401-0.075 0.541-0.224s0.211-0.343 0.211-0.581v-2.707c0-0.238-0.070-0.427-0.211-0.568s-0.321-0.211-0.541-0.211h-10.999c-0.238 0-0.425 0.070-0.561 0.211s-0.205 0.33-0.205 0.568v2.707c0 0.238 0.068 0.431 0.205 0.581s0.324 0.224 0.561 0.224h10.999zM13.905 26.456c0.229 0 0.412-0.075 0.548-0.224s0.205-0.343 0.205-0.581v-2.694c0-0.246-0.068-0.442-0.205-0.588s-0.319-0.218-0.548-0.218h-6.325c-0.238 0-0.425 0.073-0.561 0.218s-0.205 0.341-0.205 0.588v2.694c0 0.238 0.068 0.431 0.205 0.581s0.324 0.224 0.561 0.224h6.325z"></path>
</symbol>
<symbol id="icon-opportunities" viewBox="0 0 60 32">
<path fill="#fff" style="fill: var(--color3, #fff)" d="M14.763 16.249c0.995 0 1.897-0.262 2.707-0.786s1.45-1.232 1.921-2.126c0.471-0.893 0.706-1.895 0.706-3.004 0-1.056-0.24-2.022-0.72-2.898s-1.125-1.574-1.934-2.093c-0.81-0.519-1.703-0.779-2.68-0.779-0.986 0-1.884 0.262-2.694 0.786s-1.457 1.224-1.941 2.099c-0.484 0.876-0.717 1.842-0.7 2.898 0.009 1.1 0.249 2.097 0.72 2.991s1.109 1.602 1.915 2.126c0.805 0.524 1.706 0.786 2.7 0.786zM29.882 16.249c1.004 0 1.908-0.262 2.713-0.786s1.444-1.232 1.915-2.126c0.471-0.893 0.706-1.895 0.706-3.004 0-1.056-0.24-2.022-0.72-2.898s-1.122-1.574-1.928-2.093c-0.805-0.519-1.701-0.779-2.687-0.779-0.977 0-1.873 0.262-2.687 0.786s-1.463 1.224-1.948 2.099c-0.484 0.876-0.717 1.842-0.7 2.898 0.009 1.1 0.249 2.097 0.72 2.991s1.107 1.602 1.908 2.126c0.801 0.524 1.703 0.786 2.707 0.786zM45.001 16.249c0.995 0 1.897-0.262 2.707-0.786s1.45-1.232 1.921-2.126c0.471-0.893 0.706-1.895 0.706-3.004 0-1.056-0.24-2.022-0.72-2.898s-1.122-1.574-1.928-2.093c-0.805-0.519-1.701-0.779-2.687-0.779-0.977 0-1.873 0.262-2.687 0.786s-1.461 1.224-1.941 2.099c-0.48 0.876-0.715 1.842-0.706 2.898 0.009 1.1 0.249 2.097 0.72 2.991s1.107 1.602 1.908 2.126c0.801 0.524 1.703 0.786 2.707 0.786zM14.763 15.298c-0.819 0-1.558-0.218-2.218-0.654s-1.184-1.028-1.571-1.776c-0.387-0.748-0.581-1.589-0.581-2.522-0.009-0.889 0.185-1.699 0.581-2.43s0.924-1.316 1.585-1.756c0.66-0.44 1.395-0.66 2.205-0.66 0.792 0 1.521 0.218 2.185 0.654s1.193 1.021 1.584 1.756c0.392 0.735 0.588 1.543 0.588 2.423 0 0.933-0.194 1.776-0.581 2.529s-0.911 1.347-1.571 1.783c-0.66 0.436-1.395 0.654-2.205 0.654zM29.882 15.298c-0.819 0-1.556-0.218-2.212-0.654s-1.18-1.028-1.571-1.776c-0.392-0.748-0.588-1.589-0.588-2.522-0.009-0.889 0.183-1.699 0.574-2.43s0.922-1.316 1.591-1.756c0.669-0.44 1.404-0.66 2.205-0.66s1.532 0.218 2.192 0.654c0.66 0.436 1.186 1.021 1.578 1.756s0.588 1.543 0.588 2.423c0 0.933-0.194 1.776-0.581 2.529s-0.911 1.347-1.571 1.783c-0.66 0.436-1.395 0.654-2.205 0.654zM45.001 15.298c-0.81 0-1.545-0.218-2.205-0.654s-1.184-1.028-1.571-1.776c-0.387-0.748-0.581-1.589-0.581-2.522-0.018-0.889 0.172-1.699 0.568-2.43s0.926-1.316 1.591-1.756c0.665-0.44 1.397-0.66 2.199-0.66s1.532 0.218 2.192 0.654c0.66 0.436 1.188 1.021 1.584 1.756s0.594 1.543 0.594 2.423c0 0.933-0.196 1.776-0.588 2.529s-0.916 1.347-1.571 1.783c-0.656 0.436-1.393 0.654-2.212 0.654zM23.584 28.225c1.567 0 2.35-0.581 2.35-1.743 0-0.845-0.26-1.743-0.779-2.694s-1.263-1.844-2.232-2.68c-0.968-0.836-2.141-1.514-3.519-2.033s-2.925-0.779-4.641-0.779c-1.725 0-3.275 0.26-4.648 0.779s-2.546 1.197-3.519 2.033c-0.973 0.836-1.717 1.73-2.232 2.68s-0.772 1.849-0.772 2.694c0 1.162 0.779 1.743 2.337 1.743h17.654zM38.689 28.225c1.558 0 2.337-0.581 2.337-1.743 0-0.845-0.257-1.743-0.772-2.694s-1.259-1.844-2.231-2.68c-0.973-0.836-2.148-1.514-3.526-2.033s-2.925-0.779-4.641-0.779c-1.276 0-2.463 0.152-3.559 0.456s-2.084 0.711-2.964 1.221c0.141 0.106 0.273 0.211 0.396 0.317s0.242 0.211 0.357 0.317c0.783-0.405 1.657-0.733 2.621-0.984s2.014-0.376 3.149-0.376c1.602 0 3.033 0.231 4.291 0.693s2.328 1.061 3.209 1.796c0.88 0.735 1.549 1.518 2.007 2.35s0.687 1.613 0.687 2.344c0 0.317-0.090 0.537-0.271 0.66s-0.504 0.185-0.971 0.185h-11.844c-0.035 0.176-0.086 0.341-0.152 0.495s-0.147 0.306-0.244 0.456h12.121zM53.834 28.225c1.558 0 2.337-0.581 2.337-1.743 0-0.845-0.257-1.743-0.772-2.694s-1.259-1.844-2.231-2.68c-0.973-0.836-2.146-1.514-3.519-2.033s-2.923-0.779-4.648-0.779c-1.285 0-2.478 0.154-3.578 0.462s-2.091 0.717-2.971 1.228c0.132 0.106 0.264 0.213 0.396 0.323s0.255 0.218 0.37 0.323c0.766-0.423 1.635-0.759 2.608-1.010s2.031-0.376 3.176-0.376c1.602 0 3.035 0.231 4.298 0.693s2.333 1.061 3.209 1.796c0.876 0.735 1.543 1.518 2 2.35s0.687 1.613 0.687 2.344c0 0.317-0.088 0.537-0.264 0.66s-0.502 0.185-0.977 0.185h-11.897c-0.035 0.176-0.084 0.341-0.145 0.495s-0.145 0.306-0.251 0.456h12.174zM23.729 27.275h-17.918c-0.475 0-0.801-0.062-0.977-0.185s-0.264-0.343-0.264-0.66c0-0.731 0.229-1.512 0.687-2.344s1.125-1.615 2-2.35c0.876-0.735 1.945-1.334 3.209-1.796s2.696-0.693 4.298-0.693c1.602 0 3.035 0.231 4.298 0.693s2.333 1.061 3.209 1.796c0.876 0.735 1.543 1.518 2 2.35s0.687 1.613 0.687 2.344c0 0.317-0.088 0.537-0.264 0.66s-0.497 0.185-0.964 0.185z"></path>
</symbol>
<symbol id="icon-Pending" viewBox="0 0 32 32">
<path fill="#5c5b57" style="fill: var(--color4, #5c5b57)" d="M16.234 30.365c2.041 0 3.962-0.391 5.764-1.172s3.391-1.86 4.768-3.237c1.377-1.377 2.456-2.966 3.237-4.768s1.172-3.723 1.172-5.764c0-2.041-0.391-3.962-1.172-5.764s-1.86-3.391-3.237-4.768c-1.377-1.377-2.969-2.456-4.775-3.237s-3.73-1.172-5.771-1.172c-2.041 0-3.962 0.391-5.764 1.172s-3.389 1.86-4.761 3.237c-1.372 1.377-2.449 2.966-3.23 4.768s-1.172 3.723-1.172 5.764c0 2.041 0.391 3.962 1.172 5.764s1.86 3.391 3.237 4.768c1.377 1.377 2.966 2.456 4.768 3.237s3.723 1.172 5.764 1.172zM16.234 27.875c-1.729 0-3.345-0.322-4.849-0.967s-2.825-1.536-3.962-2.673c-1.138-1.138-2.026-2.459-2.666-3.962s-0.959-3.12-0.959-4.849c0-1.729 0.32-3.345 0.959-4.849s1.526-2.827 2.659-3.97c1.133-1.143 2.451-2.034 3.955-2.673s3.12-0.959 4.849-0.959c1.729 0 3.345 0.32 4.849 0.959s2.827 1.531 3.97 2.673c1.143 1.143 2.036 2.466 2.681 3.97s0.967 3.12 0.967 4.849c0 1.729-0.32 3.345-0.959 4.849s-1.528 2.825-2.666 3.962c-1.138 1.138-2.461 2.029-3.97 2.673s-3.127 0.967-4.856 0.967zM16.22 17.006c0.293 0 0.537-0.098 0.732-0.293s0.293-0.439 0.293-0.732v-9.873c0-0.283-0.098-0.522-0.293-0.718s-0.439-0.293-0.732-0.293c-0.283 0-0.522 0.098-0.718 0.293s-0.293 0.435-0.293 0.718v8.862h-6.636c-0.293 0-0.537 0.098-0.732 0.293s-0.293 0.435-0.293 0.718c0 0.293 0.098 0.537 0.293 0.732s0.439 0.293 0.732 0.293h7.646z"></path>
</symbol>
<symbol id="icon-power-bi" viewBox="0 0 32 32">
<path fill="#fff" style="fill: var(--color3, #fff)" d="M15.529 29.097c1.787 0 3.46-0.337 5.018-1.010s2.934-1.604 4.126-2.793c1.193-1.188 2.126-2.564 2.799-4.126s1.010-3.233 1.010-5.011c0-1.778-0.337-3.448-1.010-5.011-0.524-1.215-1.205-2.317-2.043-3.306l-0.045-0.052 1.698-1.719c0.176-0.167 0.264-0.361 0.264-0.581 0-0.185-0.070-0.348-0.211-0.489s-0.317-0.211-0.528-0.211c-0.22 0-0.409 0.079-0.568 0.238l-1.698 1.676-0.098-0.091c-1.091-0.995-2.326-1.79-3.704-2.384-1.316-0.567-2.708-0.895-4.177-0.985l-0.082-0.004v-2.24c0-0.22-0.070-0.405-0.211-0.555s-0.321-0.224-0.541-0.224c-0.211 0-0.387 0.075-0.528 0.224s-0.211 0.335-0.211 0.555l-0 2.239-0.095 0.005c-1.469 0.090-2.861 0.418-4.177 0.985-1.563 0.673-2.938 1.604-4.126 2.793s-2.119 2.564-2.793 4.126c-0.673 1.563-1.010 3.233-1.010 5.011s0.337 3.448 1.010 5.011c0.673 1.563 1.604 2.938 2.793 4.126s2.564 2.119 4.126 2.793c1.563 0.673 3.233 1.010 5.011 1.010zM15.529 28.093c-1.646 0-3.191-0.308-4.635-0.924s-2.713-1.472-3.809-2.568c-1.096-1.096-1.952-2.366-2.568-3.809s-0.924-2.989-0.924-4.635c0-1.646 0.308-3.191 0.924-4.635s1.472-2.716 2.568-3.816c1.096-1.1 2.366-1.959 3.809-2.575s2.989-0.924 4.635-0.924c1.655 0 3.202 0.308 4.641 0.924s2.709 1.474 3.809 2.575c1.1 1.1 1.959 2.372 2.575 3.816s0.924 2.989 0.924 4.635c0 1.646-0.308 3.191-0.924 4.635s-1.472 2.713-2.568 3.809c-1.096 1.096-2.366 1.952-3.809 2.568s-2.993 0.924-4.648 0.924zM15.529 17.688c0.423 0 0.777-0.145 1.063-0.436s0.429-0.651 0.429-1.083c0-0.299-0.086-0.568-0.257-0.805s-0.425-0.427-0.759-0.568v-7.962c0-0.123-0.046-0.227-0.139-0.31s-0.205-0.125-0.337-0.125c-0.114 0-0.218 0.042-0.31 0.125s-0.139 0.187-0.139 0.31v7.923c-0.335 0.158-0.59 0.359-0.766 0.601s-0.264 0.513-0.264 0.812c0 0.423 0.143 0.781 0.429 1.076s0.636 0.442 1.050 0.442z"></path>
</symbol>
<symbol id="icon-settings" viewBox="0 0 32 32">
<path d="M18.923 31.757c0.165-0.028 0.306-0.103 0.421-0.227s0.186-0.278 0.214-0.462l0.234-1.668c0.34-0.092 0.68-0.2 1.020-0.324s0.671-0.26 0.993-0.407l1.241 1.117c0.129 0.129 0.276 0.202 0.441 0.221s0.331-0.018 0.496-0.11c0.313-0.175 0.432-0.46 0.358-0.855l-0.345-1.654c0.285-0.193 0.568-0.404 0.848-0.634s0.549-0.473 0.806-0.731l1.53 0.648c0.358 0.147 0.671 0.064 0.938-0.248 0.11-0.129 0.172-0.273 0.186-0.434s-0.030-0.319-0.131-0.476l-0.896-1.434c0.211-0.285 0.402-0.584 0.572-0.896s0.333-0.634 0.489-0.965l1.696 0.083c0.175 0.009 0.333-0.032 0.476-0.124s0.241-0.225 0.296-0.4c0.055-0.165 0.057-0.329 0.007-0.489s-0.145-0.296-0.283-0.407l-1.324-1.048c0.092-0.331 0.172-0.673 0.241-1.027s0.117-0.719 0.145-1.096l1.585-0.496c0.377-0.129 0.565-0.381 0.565-0.758 0-0.368-0.188-0.616-0.565-0.745l-1.585-0.51c-0.028-0.368-0.076-0.726-0.145-1.075s-0.149-0.694-0.241-1.034l1.324-1.062c0.138-0.101 0.232-0.227 0.283-0.379s0.048-0.315-0.007-0.489c-0.055-0.175-0.154-0.308-0.296-0.4s-0.301-0.133-0.476-0.124l-1.696 0.069c-0.156-0.331-0.319-0.65-0.489-0.958s-0.361-0.609-0.572-0.903l0.896-1.434c0.101-0.147 0.145-0.301 0.131-0.462s-0.076-0.306-0.186-0.434c-0.267-0.313-0.579-0.395-0.938-0.248l-1.53 0.62c-0.257-0.239-0.526-0.476-0.806-0.71s-0.563-0.448-0.848-0.641l0.345-1.641c0.037-0.193 0.025-0.365-0.034-0.517s-0.168-0.269-0.324-0.352c-0.165-0.092-0.331-0.129-0.496-0.11s-0.313 0.096-0.441 0.234l-1.241 1.089c-0.322-0.147-0.653-0.278-0.993-0.393s-0.68-0.223-1.020-0.324l-0.234-1.668c-0.028-0.175-0.099-0.324-0.214-0.448s-0.26-0.2-0.434-0.227c-0.184-0.028-0.349-0.005-0.496 0.069s-0.257 0.184-0.331 0.331l-0.786 1.517c-0.193-0.018-0.375-0.032-0.545-0.041s-0.347-0.014-0.531-0.014c-0.184 0-0.363 0.005-0.538 0.014s-0.354 0.023-0.538 0.041l-0.8-1.517c-0.074-0.147-0.184-0.257-0.331-0.331s-0.313-0.097-0.496-0.069c-0.175 0.028-0.319 0.103-0.434 0.227s-0.182 0.273-0.2 0.448l-0.248 1.654c-0.34 0.101-0.678 0.211-1.013 0.331s-0.669 0.253-1 0.4l-1.241-1.089c-0.129-0.138-0.276-0.216-0.441-0.234s-0.331 0.018-0.496 0.11c-0.156 0.083-0.264 0.2-0.324 0.352s-0.071 0.324-0.034 0.517l0.345 1.641c-0.285 0.193-0.568 0.407-0.848 0.641s-0.549 0.471-0.806 0.71l-1.53-0.62c-0.358-0.147-0.666-0.064-0.924 0.248-0.12 0.129-0.186 0.273-0.2 0.434s0.030 0.31 0.131 0.448l0.896 1.448c-0.202 0.294-0.391 0.595-0.565 0.903s-0.34 0.627-0.496 0.958l-1.682-0.069c-0.184-0.009-0.345 0.032-0.483 0.124s-0.239 0.225-0.303 0.4c-0.055 0.175-0.060 0.338-0.014 0.489s0.142 0.278 0.289 0.379l1.324 1.062c-0.092 0.34-0.17 0.685-0.234 1.034s-0.106 0.708-0.124 1.075l-1.613 0.51c-0.368 0.12-0.551 0.368-0.551 0.745s0.184 0.63 0.551 0.758l1.613 0.51c0.018 0.368 0.060 0.728 0.124 1.082s0.142 0.696 0.234 1.027l-1.324 1.048c-0.138 0.11-0.23 0.244-0.276 0.4s-0.046 0.322 0 0.496c0.064 0.175 0.165 0.308 0.303 0.4s0.299 0.133 0.483 0.124l1.682-0.083c0.156 0.331 0.322 0.653 0.496 0.965s0.363 0.611 0.565 0.896l-0.896 1.434c-0.101 0.156-0.145 0.315-0.131 0.476s0.080 0.306 0.2 0.434c0.257 0.313 0.565 0.395 0.924 0.248l1.53-0.648c0.257 0.257 0.526 0.501 0.806 0.731s0.563 0.441 0.848 0.634l-0.345 1.654c-0.037 0.184-0.025 0.352 0.034 0.503s0.168 0.269 0.324 0.352c0.175 0.092 0.342 0.129 0.503 0.11s0.306-0.092 0.434-0.221l1.241-1.117c0.331 0.147 0.664 0.283 1 0.407s0.673 0.232 1.013 0.324l0.248 1.668c0.018 0.184 0.085 0.338 0.2 0.462s0.26 0.2 0.434 0.227c0.184 0.028 0.349 0.005 0.496-0.069s0.257-0.188 0.331-0.345l0.8-1.517c0.184 0.018 0.363 0.034 0.538 0.048s0.354 0.021 0.538 0.021c0.184 0 0.361-0.007 0.531-0.021s0.352-0.030 0.545-0.048l0.786 1.517c0.074 0.156 0.184 0.271 0.331 0.345s0.317 0.096 0.51 0.069zM27.381 15.586l-7.7-0c-0.322-0.873-0.788-1.54-1.399-1.999s-1.307-0.689-2.089-0.689c-0.129 0-0.267 0.009-0.414 0.028s-0.331 0.051-0.551 0.097l-3.951-6.76 0.539-0.25c1.356-0.584 2.824-0.875 4.405-0.875s3.049 0.292 4.405 0.875c1.356 0.584 2.541 1.392 3.557 2.426s1.808 2.238 2.378 3.612c0.427 1.031 0.695 2.117 0.801 3.258l0.019 0.278zM9.596 25.658l-0.425-0.329c-0.318-0.259-0.622-0.536-0.912-0.831-1.016-1.034-1.808-2.238-2.378-3.612s-0.855-2.847-0.855-4.419c0-1.572 0.285-3.045 0.855-4.419s1.363-2.578 2.378-3.612c0.435-0.443 0.902-0.845 1.399-1.205l0.030-0.022 3.995 6.804c-0.377 0.386-0.655 0.788-0.834 1.206s-0.269 0.852-0.269 1.303c0 0.432 0.087 0.85 0.262 1.255s0.45 0.809 0.827 1.213l-4.074 6.668zM16.221 18.191c-0.45 0-0.843-0.165-1.179-0.496s-0.503-0.726-0.503-1.186c0-0.469 0.168-0.864 0.503-1.186s0.728-0.483 1.179-0.483c0.46 0 0.857 0.161 1.193 0.483s0.503 0.717 0.503 1.186c0 0.46-0.168 0.855-0.503 1.186s-0.733 0.496-1.193 0.496zM16.221 27.801c-1.581 0-3.049-0.292-4.405-0.875l-0.571-0.264-0.064-0.032 4.047-6.632c0.211 0.055 0.393 0.092 0.545 0.11s0.292 0.028 0.421 0.028c0.79 0 1.491-0.237 2.102-0.71s1.073-1.156 1.386-2.047l7.698 0-0.017 0.25c-0.107 1.142-0.374 2.228-0.801 3.258-0.57 1.374-1.363 2.578-2.378 3.612s-2.201 1.843-3.557 2.426c-1.356 0.584-2.824 0.875-4.405 0.875z"></path>
</symbol>
<symbol id="icon-share" viewBox="0 0 32 32">
<path d="M25.727 30.858c1.635 0 2.862-0.404 3.68-1.211s1.227-2.018 1.227-3.633v-19.078c0-1.615-0.409-2.826-1.227-3.633s-2.044-1.211-3.68-1.211h-18.953c-1.635 0-2.862 0.404-3.68 1.211s-1.227 2.018-1.227 3.633v19.078c0 1.615 0.409 2.826 1.227 3.633s2.044 1.211 3.68 1.211h18.953zM25.695 28.343h-18.891c-0.781 0-1.38-0.206-1.797-0.617s-0.625-1.023-0.625-1.836v-18.828c0-0.813 0.208-1.424 0.625-1.836s1.016-0.617 1.797-0.617h18.891c0.771 0 1.367 0.206 1.789 0.617s0.633 1.023 0.633 1.836v18.828c0 0.813-0.211 1.424-0.633 1.836s-1.018 0.617-1.789 0.617zM11.352 22.483c0.354 0 0.651-0.12 0.891-0.359l5.766-5.766 2.234-2.391-0.234 2.422v2.703c0 0.375 0.107 0.672 0.32 0.891s0.492 0.328 0.836 0.328c0.344 0 0.62-0.117 0.828-0.352s0.313-0.534 0.313-0.898v-7.359c0-0.469-0.117-0.802-0.352-1s-0.549-0.297-0.945-0.297h-7.422c-0.365 0-0.656 0.104-0.875 0.313s-0.328 0.484-0.328 0.828c0 0.354 0.112 0.635 0.336 0.844s0.523 0.313 0.898 0.313h2.844l2.313-0.25-2.422 2.266-5.766 5.766c-0.25 0.25-0.375 0.526-0.375 0.828 0 0.354 0.104 0.638 0.313 0.852s0.484 0.32 0.828 0.32z"></path>
</symbol>
<symbol id="icon-up" viewBox="0 0 32 32">
<path d="M22.763 0.007c1.429 0 2.734 0.114 3.917 0.343s2.204 0.773 3.064 1.632c0.848 0.848 1.387 1.861 1.616 3.038s0.343 2.48 0.343 3.909v12.874c0 1.429-0.114 2.732-0.343 3.909s-0.767 2.19-1.616 3.038c-0.859 0.859-1.881 1.403-3.064 1.632s-2.489 0.343-3.917 0.343h-13.041c-1.406 0-2.698-0.114-3.876-0.343s-2.196-0.773-3.055-1.632c-0.848-0.848-1.387-1.858-1.616-3.030s-0.343-2.461-0.343-3.867v-12.924c0-1.429 0.112-2.732 0.335-3.909s0.764-2.19 1.624-3.038c0.859-0.859 1.878-1.403 3.055-1.632s2.48-0.343 3.909-0.343h13.008zM23.232 2.702h-13.929c-0.859 0-1.705 0.081-2.536 0.243s-1.504 0.494-2.017 0.996c-0.502 0.513-0.831 1.18-0.988 2.001s-0.234 1.666-0.234 2.536v13.744c0 0.882 0.078 1.738 0.234 2.57s0.486 1.498 0.988 2.001c0.502 0.513 1.175 0.848 2.017 1.004s1.705 0.234 2.587 0.234h13.878c0.859 0 1.705-0.081 2.536-0.243s1.498-0.494 2.001-0.996c0.513-0.513 0.848-1.18 1.004-2.001s0.234-1.66 0.234-2.52v-13.795c0-0.871-0.081-1.716-0.243-2.536s-0.494-1.487-0.996-2.001c-0.502-0.502-1.169-0.834-2.001-0.996s-1.677-0.243-2.536-0.243zM16.301 7.038c0.335 0 0.658 0.156 0.971 0.469l5.592 5.575c0.223 0.223 0.335 0.513 0.335 0.871 0 0.335-0.117 0.619-0.352 0.854s-0.525 0.352-0.871 0.352c-0.368 0-0.664-0.123-0.887-0.368l-1.975-2.009-1.691-2.026 0.117 3.549v8.371c0 0.368-0.117 0.67-0.352 0.904s-0.53 0.352-0.887 0.352c-0.368 0-0.67-0.117-0.904-0.352s-0.352-0.536-0.352-0.904v-8.371l0.117-3.532-1.674 2.009-1.992 2.009c-0.246 0.246-0.541 0.368-0.887 0.368s-0.633-0.117-0.862-0.352c-0.229-0.234-0.343-0.519-0.343-0.854 0-0.368 0.112-0.658 0.335-0.871l5.592-5.575c0.313-0.313 0.636-0.469 0.971-0.469z"></path>
</symbol>
<symbol id="icon-user" viewBox="0 0 29 32">
<path fill="#fff" style="fill: var(--color3, #fff)" d="M14.068 16.292c1.177 0 2.253-0.318 3.227-0.953s1.753-1.482 2.336-2.539c0.583-1.057 0.875-2.227 0.875-3.508 0-1.25-0.289-2.391-0.867-3.422s-1.357-1.852-2.336-2.461c-0.979-0.609-2.057-0.914-3.234-0.914s-2.253 0.307-3.227 0.922c-0.974 0.615-1.753 1.438-2.336 2.469s-0.87 2.177-0.859 3.438c0 1.281 0.289 2.448 0.867 3.5s1.354 1.893 2.328 2.523c0.974 0.63 2.049 0.945 3.227 0.945zM14.068 13.885c-0.698 0-1.344-0.203-1.938-0.609s-1.068-0.953-1.422-1.641c-0.354-0.688-0.531-1.458-0.531-2.313 0-0.833 0.174-1.583 0.523-2.25s0.82-1.195 1.414-1.586c0.594-0.391 1.245-0.586 1.953-0.586 0.719 0 1.37 0.193 1.953 0.578s1.049 0.911 1.398 1.578c0.349 0.667 0.523 1.411 0.523 2.234 0 0.854-0.177 1.628-0.531 2.32s-0.823 1.245-1.406 1.656c-0.583 0.411-1.229 0.617-1.938 0.617zM23.302 29.995c2.479 0 3.719-0.818 3.719-2.453 0-0.99-0.299-2.034-0.898-3.133s-1.464-2.128-2.594-3.086c-1.13-0.958-2.492-1.742-4.086-2.352s-3.385-0.914-5.375-0.914c-2 0-3.799 0.305-5.398 0.914s-2.961 1.393-4.086 2.352c-1.125 0.958-1.987 1.987-2.586 3.086s-0.898 2.143-0.898 3.133c0 1.635 1.234 2.453 3.703 2.453h18.5zM23.896 27.589h-19.672c-0.177 0-0.307-0.029-0.391-0.086s-0.125-0.159-0.125-0.305c0-0.583 0.227-1.258 0.68-2.023s1.12-1.505 2-2.219c0.88-0.714 1.964-1.307 3.25-1.781s2.763-0.711 4.43-0.711c1.656 0 3.125 0.237 4.406 0.711s2.362 1.068 3.242 1.781c0.88 0.714 1.549 1.453 2.008 2.219s0.688 1.44 0.688 2.023c0 0.146-0.039 0.247-0.117 0.305s-0.211 0.086-0.398 0.086z"></path>
</symbol>
<symbol id="icon-Warning" viewBox="0 0 34 32">
<path fill="#664d49" style="fill: var(--color5, #664d49)" d="M29.34 31.218c0.885 0 1.651-0.193 2.297-0.578s1.143-0.904 1.492-1.555c0.349-0.651 0.523-1.378 0.523-2.18 0-0.354-0.050-0.714-0.148-1.078s-0.242-0.714-0.43-1.047l-12.047-20.984c-0.406-0.719-0.943-1.263-1.609-1.633s-1.365-0.555-2.094-0.555c-0.729 0-1.43 0.185-2.102 0.555s-1.211 0.914-1.617 1.633l-12.047 21c-0.385 0.667-0.578 1.37-0.578 2.109 0 0.802 0.174 1.529 0.523 2.18s0.846 1.169 1.492 1.555c0.646 0.385 1.411 0.578 2.297 0.578h24.047zM29.309 28.765h-24c-0.542 0-0.977-0.19-1.305-0.57s-0.492-0.81-0.492-1.289c0-0.146 0.016-0.299 0.047-0.461s0.083-0.32 0.156-0.477l12.031-20.984c0.177-0.302 0.406-0.523 0.688-0.664s0.578-0.211 0.891-0.211c0.302 0 0.591 0.070 0.867 0.211s0.503 0.362 0.68 0.664l12.016 21c0.167 0.292 0.25 0.599 0.25 0.922 0 0.479-0.169 0.909-0.508 1.289s-0.779 0.57-1.32 0.57zM17.324 20.671c0.781 0 1.177-0.411 1.188-1.234l0.234-8.25c0.010-0.396-0.122-0.727-0.398-0.992s-0.622-0.398-1.039-0.398c-0.427 0-0.773 0.13-1.039 0.391s-0.393 0.589-0.383 0.984l0.203 8.266c0.021 0.823 0.432 1.234 1.234 1.234zM17.324 25.749c0.448 0 0.841-0.156 1.18-0.469s0.508-0.698 0.508-1.156c0-0.458-0.167-0.844-0.5-1.156s-0.729-0.469-1.188-0.469c-0.458 0-0.854 0.159-1.188 0.477s-0.5 0.701-0.5 1.148c0 0.448 0.167 0.831 0.5 1.148s0.729 0.477 1.188 0.477z"></path>
</symbol>
</defs>
</svg>
