<?xml version="1.0" encoding="UTF-8"?>
<svg width="14px" height="14px" viewBox="0 0 14 14" version="1.1" xmlns="http://www.w3.org/2000/svg" xmlns:xlink="http://www.w3.org/1999/xlink">
    <title>􀯴</title>
    <g id="Page-1" stroke="none" stroke-width="1" fill="none" fill-rule="evenodd">
        <g id="Desktop-HD-03" transform="translate(-1145.000000, -254.000000)" fill="#000000" fill-rule="nonzero">
            <path d="M1154.95898,267.442871 C1155.58398,267.442871 1156.15527,267.392822 1156.67285,267.292725 C1157.19043,267.192627 1157.63721,266.95459 1158.01318,266.578613 C1158.38428,266.20752 1158.61987,265.764404 1158.71997,265.249268 C1158.82007,264.734131 1158.87012,264.164062 1158.87012,263.539062 L1158.87012,257.906738 C1158.87012,257.281738 1158.82007,256.71167 1158.71997,256.196533 C1158.61987,255.681396 1158.38428,255.238281 1158.01318,254.867188 C1157.63721,254.491211 1157.19043,254.253174 1156.67285,254.153076 C1156.15527,254.052979 1155.58398,254.00293 1154.95898,254.00293 L1149.25342,254.00293 C1148.63818,254.00293 1148.073,254.052979 1147.55786,254.153076 C1147.04272,254.253174 1146.59717,254.491211 1146.22119,254.867188 C1145.8501,255.238281 1145.6145,255.680176 1145.5144,256.192871 C1145.41431,256.705566 1145.36426,257.269531 1145.36426,257.884766 L1145.36426,263.539062 C1145.36426,264.164062 1145.41309,264.734131 1145.51074,265.249268 C1145.6084,265.764404 1145.84521,266.20752 1146.22119,266.578613 C1146.59717,266.95459 1147.04272,267.192627 1147.55786,267.292725 C1148.073,267.392822 1148.64307,267.442871 1149.26807,267.442871 L1154.95898,267.442871 Z M1155.16406,266.263672 L1149.07031,266.263672 C1148.69434,266.263672 1148.32446,266.228271 1147.96069,266.157471 C1147.59692,266.08667 1147.30273,265.941406 1147.07812,265.72168 C1146.8584,265.49707 1146.71436,265.205322 1146.646,264.846436 C1146.57764,264.487549 1146.54346,264.117676 1146.54346,263.736816 L1146.54346,257.723633 C1146.54346,257.337891 1146.57764,256.963135 1146.646,256.599365 C1146.71436,256.235596 1146.8584,255.943848 1147.07812,255.724121 C1147.29785,255.499512 1147.59204,255.353027 1147.96069,255.284668 C1148.32935,255.216309 1148.70654,255.182129 1149.09229,255.182129 L1155.16406,255.182129 C1155.54004,255.182129 1155.90991,255.217529 1156.27368,255.28833 C1156.63745,255.359131 1156.9292,255.504395 1157.14893,255.724121 C1157.37354,255.94873 1157.52002,256.240479 1157.58838,256.599365 C1157.65674,256.958252 1157.69092,257.325684 1157.69092,257.70166 L1157.69092,263.736816 C1157.69092,264.117676 1157.65552,264.487549 1157.58472,264.846436 C1157.51392,265.205322 1157.36865,265.49707 1157.14893,265.72168 C1156.9292,265.941406 1156.63745,266.08667 1156.27368,266.157471 C1155.90991,266.228271 1155.54004,266.263672 1155.16406,266.263672 Z M1152.13184,264.366699 C1152.27832,264.366699 1152.41992,264.29834 1152.55664,264.161621 L1155.00293,261.722656 C1155.10059,261.625 1155.14941,261.498047 1155.14941,261.341797 C1155.14941,261.195312 1155.09814,261.070801 1154.99561,260.968262 C1154.89307,260.865723 1154.76611,260.814453 1154.61475,260.814453 C1154.45361,260.814453 1154.32422,260.868164 1154.22656,260.975586 L1153.3623,261.854492 L1152.62256,262.740723 L1152.67383,261.187988 L1152.67383,257.525879 C1152.67383,257.364746 1152.62256,257.23291 1152.52002,257.130371 C1152.41748,257.027832 1152.28809,256.976562 1152.13184,256.976562 C1151.9707,256.976562 1151.83887,257.027832 1151.73633,257.130371 C1151.63379,257.23291 1151.58252,257.364746 1151.58252,257.525879 L1151.58252,261.187988 L1151.63379,262.733398 L1150.90137,261.854492 L1150.02979,260.975586 C1149.92236,260.868164 1149.79297,260.814453 1149.6416,260.814453 C1149.49023,260.814453 1149.3645,260.865723 1149.2644,260.968262 C1149.16431,261.070801 1149.11426,261.195312 1149.11426,261.341797 C1149.11426,261.50293 1149.16309,261.629883 1149.26074,261.722656 L1151.70703,264.161621 C1151.84375,264.29834 1151.98535,264.366699 1152.13184,264.366699 Z" id="􀯴" transform="translate(1152.117188, 260.722900) scale(1, -1) translate(-1152.117188, -260.722900) "></path>
        </g>
    </g>
</svg>