<?xml version="1.0" encoding="UTF-8"?>
<svg width="11px" height="12px" viewBox="0 0 11 12" version="1.1" xmlns="http://www.w3.org/2000/svg" xmlns:xlink="http://www.w3.org/1999/xlink">
    <title>􀉩</title>
    <g id="Page-1" stroke="none" stroke-width="1" fill="none" fill-rule="evenodd">
        <g id="Desktop-HD-03-(2)" transform="translate(-182.000000, -296.000000)" fill="#000000" fill-rule="nonzero">
            <path d="M187.275391,302.109375 C187.716797,302.109375 188.120117,301.990234 188.485352,301.751953 C188.850586,301.513672 189.142578,301.196289 189.361328,300.799805 C189.580078,300.40332 189.689453,299.964844 189.689453,299.484375 C189.689453,299.015625 189.581055,298.587891 189.364258,298.201172 C189.147461,297.814453 188.855469,297.506836 188.488281,297.27832 C188.121094,297.049805 187.716797,296.935547 187.275391,296.935547 C186.833984,296.935547 186.430664,297.050781 186.06543,297.28125 C185.700195,297.511719 185.408203,297.820312 185.189453,298.207031 C184.970703,298.59375 184.863281,299.023438 184.867188,299.496094 C184.867188,299.976562 184.975586,300.414062 185.192383,300.808594 C185.40918,301.203125 185.700195,301.518555 186.06543,301.754883 C186.430664,301.991211 186.833984,302.109375 187.275391,302.109375 Z M187.275391,301.207031 C187.013672,301.207031 186.771484,301.130859 186.548828,300.978516 C186.326172,300.826172 186.148438,300.621094 186.015625,300.363281 C185.882812,300.105469 185.816406,299.816406 185.816406,299.496094 C185.816406,299.183594 185.881836,298.902344 186.012695,298.652344 C186.143555,298.402344 186.320312,298.204102 186.542969,298.057617 C186.765625,297.911133 187.009766,297.837891 187.275391,297.837891 C187.544922,297.837891 187.789062,297.910156 188.007812,298.054688 C188.226562,298.199219 188.401367,298.396484 188.532227,298.646484 C188.663086,298.896484 188.728516,299.175781 188.728516,299.484375 C188.728516,299.804688 188.662109,300.094727 188.529297,300.354492 C188.396484,300.614258 188.220703,300.821289 188.001953,300.975586 C187.783203,301.129883 187.541016,301.207031 187.275391,301.207031 Z M190.738281,307.248047 C191.667969,307.248047 192.132812,306.941406 192.132812,306.328125 C192.132812,305.957031 192.020508,305.56543 191.795898,305.15332 C191.571289,304.741211 191.24707,304.355469 190.823242,303.996094 C190.399414,303.636719 189.888672,303.342773 189.291016,303.114258 C188.693359,302.885742 188.021484,302.771484 187.275391,302.771484 C186.525391,302.771484 185.850586,302.885742 185.250977,303.114258 C184.651367,303.342773 184.140625,303.636719 183.71875,303.996094 C183.296875,304.355469 182.973633,304.741211 182.749023,305.15332 C182.524414,305.56543 182.412109,305.957031 182.412109,306.328125 C182.412109,306.941406 182.875,307.248047 183.800781,307.248047 L190.738281,307.248047 Z M190.960938,306.345703 L183.583984,306.345703 C183.517578,306.345703 183.46875,306.334961 183.4375,306.313477 C183.40625,306.291992 183.390625,306.253906 183.390625,306.199219 C183.390625,305.980469 183.475586,305.727539 183.645508,305.44043 C183.81543,305.15332 184.06543,304.875977 184.395508,304.608398 C184.725586,304.34082 185.131836,304.118164 185.614258,303.94043 C186.09668,303.762695 186.650391,303.673828 187.275391,303.673828 C187.896484,303.673828 188.447266,303.762695 188.927734,303.94043 C189.408203,304.118164 189.813477,304.34082 190.143555,304.608398 C190.473633,304.875977 190.724609,305.15332 190.896484,305.44043 C191.068359,305.727539 191.154297,305.980469 191.154297,306.199219 C191.154297,306.253906 191.139648,306.291992 191.110352,306.313477 C191.081055,306.334961 191.03125,306.345703 190.960938,306.345703 Z" id="􀉩"></path>
        </g>
    </g>
</svg>