<?xml version="1.0" encoding="UTF-8"?>
<svg width="16px" height="15px" viewBox="0 0 16 15" version="1.1" xmlns="http://www.w3.org/2000/svg" xmlns:xlink="http://www.w3.org/1999/xlink">
    <title>􀇾</title>
    <g id="Page-1" stroke="none" stroke-width="1" fill="none" fill-rule="evenodd">
        <g id="Desktop-HD-03" transform="translate(-1399.000000, -673.000000)" fill="#664D49" fill-rule="nonzero">
            <path d="M1412.75317,687.633301 C1413.16821,687.633301 1413.5271,687.542969 1413.82983,687.362305 C1414.13257,687.181641 1414.36572,686.938721 1414.5293,686.633545 C1414.69287,686.328369 1414.77466,685.987793 1414.77466,685.611816 C1414.77466,685.445801 1414.75146,685.277344 1414.70508,685.106445 C1414.65869,684.935547 1414.59155,684.771973 1414.50366,684.615723 L1408.85669,674.779297 C1408.66626,674.442383 1408.41479,674.187256 1408.10229,674.013916 C1407.78979,673.840576 1407.46265,673.753906 1407.12085,673.753906 C1406.77905,673.753906 1406.45068,673.840576 1406.13574,674.013916 C1405.8208,674.187256 1405.56812,674.442383 1405.37769,674.779297 L1399.73071,684.623047 C1399.55005,684.935547 1399.45972,685.265137 1399.45972,685.611816 C1399.45972,685.987793 1399.5415,686.328369 1399.70508,686.633545 C1399.86865,686.938721 1400.10181,687.181641 1400.40454,687.362305 C1400.70728,687.542969 1401.06616,687.633301 1401.4812,687.633301 L1412.75317,687.633301 Z M1412.73853,686.483398 L1401.48853,686.483398 C1401.23462,686.483398 1401.03076,686.394287 1400.87695,686.216064 C1400.72314,686.037842 1400.64624,685.836426 1400.64624,685.611816 C1400.64624,685.543457 1400.65356,685.471436 1400.66821,685.395752 C1400.68286,685.320068 1400.70728,685.245605 1400.74146,685.172363 L1406.3811,675.335938 C1406.46411,675.194336 1406.57153,675.090576 1406.70337,675.024658 C1406.83521,674.95874 1406.97437,674.925781 1407.12085,674.925781 C1407.26245,674.925781 1407.39795,674.95874 1407.52734,675.024658 C1407.65674,675.090576 1407.76294,675.194336 1407.84595,675.335938 L1413.47827,685.179688 C1413.5564,685.316406 1413.59546,685.460449 1413.59546,685.611816 C1413.59546,685.836426 1413.51611,686.037842 1413.35742,686.216064 C1413.19873,686.394287 1412.99243,686.483398 1412.73853,686.483398 Z M1407.12085,682.689453 C1407.48706,682.689453 1407.67261,682.496582 1407.67749,682.11084 L1407.78735,678.243652 C1407.79224,678.058105 1407.72998,677.903076 1407.60059,677.778564 C1407.47119,677.654053 1407.30884,677.591797 1407.11353,677.591797 C1406.91333,677.591797 1406.75098,677.652832 1406.62646,677.774902 C1406.50195,677.896973 1406.44214,678.050781 1406.44702,678.236328 L1406.54224,682.11084 C1406.552,682.496582 1406.74487,682.689453 1407.12085,682.689453 Z M1407.12085,685.069824 C1407.33081,685.069824 1407.51514,684.996582 1407.67383,684.850098 C1407.83252,684.703613 1407.91187,684.522949 1407.91187,684.308105 C1407.91187,684.093262 1407.83374,683.912598 1407.67749,683.766113 C1407.52124,683.619629 1407.33569,683.546387 1407.12085,683.546387 C1406.90601,683.546387 1406.72046,683.62085 1406.56421,683.769775 C1406.40796,683.918701 1406.32983,684.098145 1406.32983,684.308105 C1406.32983,684.518066 1406.40796,684.69751 1406.56421,684.846436 C1406.72046,684.995361 1406.90601,685.069824 1407.12085,685.069824 Z" id="􀇾"></path>
        </g>
    </g>
</svg>