<svg width="18" height="19" viewBox="0 0 18 19" fill="none" xmlns="http://www.w3.org/2000/svg">
<path d="M16.5312 3.75H13.6562V1.95312C13.6562 1.16025 13.0116 0.515625 12.2188 0.515625H5.03125C4.23838 0.515625 3.59375 1.16025 3.59375 1.95312V3.75H0.71875C0.321191 3.75 0 4.07119 0 4.46875V5.1875C0 5.28633 0.0808594 5.36719 0.179688 5.36719H1.53633L2.09111 17.1143C2.12705 17.8802 2.76045 18.4844 3.52637 18.4844H13.7236C14.4918 18.4844 15.1229 17.8824 15.1589 17.1143L15.7137 5.36719H17.0703C17.1691 5.36719 17.25 5.28633 17.25 5.1875V4.46875C17.25 4.07119 16.9288 3.75 16.5312 3.75ZM12.0391 3.75H5.21094V2.13281H12.0391V3.75Z" fill="black"/>
</svg>
