<svg width="8" height="10" viewBox="0 0 8 10" fill="none" xmlns="http://www.w3.org/2000/svg">
<path d="M3.75 0V2.8125C3.75 3.06114 3.84877 3.2996 4.02459 3.47541C4.2004 3.65123 4.43886 3.75 4.6875 3.75H7.5V9.0625C7.5 9.31114 7.40123 9.5496 7.22541 9.72541C7.0496 9.90123 6.81114 10 6.5625 10H0.9375C0.68886 10 0.450403 9.90123 0.274587 9.72541C0.0987719 9.5496 0 9.31114 0 9.0625V0.9375C0 0.68886 0.0987719 0.450403 0.274587 0.274587C0.450403 0.0987721 0.68886 0 0.9375 0H3.75ZM4.375 0.15625V2.8125C4.375 2.89538 4.40792 2.97487 4.46653 3.03347C4.52513 3.09208 4.60462 3.125 4.6875 3.125H7.34375L4.375 0.15625Z" fill="white"/>
</svg>
