<svg width="18" height="18" viewBox="0 0 18 18" fill="none" xmlns="http://www.w3.org/2000/svg">
<path d="M16.5 15.9609H0.6875C0.307227 15.9609 0 16.2682 0 16.6484V17.4219C0 17.5164 0.0773437 17.5938 0.171875 17.5938H17.0156C17.1102 17.5938 17.1875 17.5164 17.1875 17.4219V16.6484C17.1875 16.2682 16.8803 15.9609 16.5 15.9609ZM3.13027 14.1562C3.17324 14.1562 3.21621 14.152 3.25918 14.1455L6.87285 13.5117C6.91582 13.5031 6.95664 13.4838 6.98672 13.4516L16.0939 4.34434C16.1139 4.32446 16.1297 4.30085 16.1404 4.27486C16.1512 4.24887 16.1568 4.22101 16.1568 4.19287C16.1568 4.16473 16.1512 4.13687 16.1404 4.11088C16.1297 4.08489 16.1139 4.06128 16.0939 4.04141L12.5232 0.468555C12.4824 0.427734 12.4287 0.40625 12.3707 0.40625C12.3127 0.40625 12.259 0.427734 12.2182 0.468555L3.11094 9.57578C3.07871 9.60801 3.05938 9.64668 3.05078 9.68965L2.41699 13.3033C2.39609 13.4184 2.40356 13.5369 2.43875 13.6484C2.47394 13.76 2.53579 13.8613 2.61895 13.9436C2.76074 14.0811 2.93906 14.1562 3.13027 14.1562Z" fill="black"/>
</svg>
