<?xml version="1.0" encoding="UTF-8"?>
<svg width="16px" height="16px" viewBox="0 0 16 16" version="1.1" xmlns="http://www.w3.org/2000/svg" xmlns:xlink="http://www.w3.org/1999/xlink">
    <title>􀐬</title>
    <g id="Page-1" stroke="none" stroke-width="1" fill="none" fill-rule="evenodd">
        <g id="Desktop-HD-03-(2)" transform="translate(-1399.000000, -799.000000)" fill="#000000" fill-rule="nonzero">
            <g id="􀐬" transform="translate(1399.646484, 799.241211)">
                <path d="M3.64013672,8.26171875 C3.49365234,8.26171875 3.37158203,8.21289062 3.27392578,8.11523438 C3.17626953,8.01757812 3.12744141,7.89550781 3.12744141,7.74902344 C3.12744141,7.60742188 3.17626953,7.48779297 3.27392578,7.39013672 C3.37158203,7.29248047 3.49365234,7.24365234 3.64013672,7.24365234 L6.95800781,7.24365234 L6.95800781,2.8125 C6.95800781,2.67089844 7.00683594,2.55126953 7.10449219,2.45361328 C7.20214844,2.35595703 7.32177734,2.30712891 7.46337891,2.30712891 C7.60986328,2.30712891 7.73193359,2.35595703 7.82958984,2.45361328 C7.92724609,2.55126953 7.97607422,2.67089844 7.97607422,2.8125 L7.97607422,7.74902344 C7.97607422,7.89550781 7.92724609,8.01757812 7.82958984,8.11523438 C7.73193359,8.21289062 7.60986328,8.26171875 7.46337891,8.26171875 L3.64013672,8.26171875 Z M7.47070312,14.9414062 C8.49121094,14.9414062 9.4519043,14.7460938 10.3527832,14.3554688 C11.2536621,13.9648438 12.0483398,13.425293 12.7368164,12.7368164 C13.425293,12.0483398 13.9648438,11.2536621 14.3554688,10.3527832 C14.7460938,9.4519043 14.9414062,8.49121094 14.9414062,7.47070312 C14.9414062,6.45019531 14.7460938,5.48950195 14.3554688,4.58862305 C13.9648438,3.68774414 13.425293,2.89306641 12.7368164,2.20458984 C12.0483398,1.51611328 11.2524414,0.9765625 10.3491211,0.5859375 C9.44580078,0.1953125 8.48388672,0 7.46337891,0 C6.44287109,0 5.48217773,0.1953125 4.58129883,0.5859375 C3.68041992,0.9765625 2.88696289,1.51611328 2.20092773,2.20458984 C1.51489258,2.89306641 0.9765625,3.68774414 0.5859375,4.58862305 C0.1953125,5.48950195 0,6.45019531 0,7.47070312 C0,8.49121094 0.1953125,9.4519043 0.5859375,10.3527832 C0.9765625,11.2536621 1.51611328,12.0483398 2.20458984,12.7368164 C2.89306641,13.425293 3.68774414,13.9648438 4.58862305,14.3554688 C5.48950195,14.7460938 6.45019531,14.9414062 7.47070312,14.9414062 Z" id="Shape"></path>
            </g>
        </g>
    </g>
</svg>