<svg width="14" height="13" viewBox="0 0 14 13" fill="none" xmlns="http://www.w3.org/2000/svg">
<path d="M13.8009 10.5807L8.45383 0.849377C8.31227 0.592377 8.1032 0.377845 7.84863 0.228368C7.59406 0.0788912 7.30341 0 7.00728 0C6.71115 0 6.4205 0.0788912 6.16593 0.228368C5.91136 0.377845 5.70229 0.592377 5.56073 0.849377L0.208211 10.5807C0.0681149 10.8292 -0.00362542 11.1096 0.00014102 11.394C0.00390746 11.6784 0.083049 11.9568 0.229677 12.2016C0.376305 12.4464 0.585298 12.6489 0.835824 12.789C1.08635 12.929 1.36966 13.0018 1.65751 13H12.3516C12.6371 13.0002 12.9177 12.9271 13.166 12.7879C13.4143 12.6487 13.6217 12.448 13.7678 12.2057C13.914 11.9634 13.9939 11.6877 13.9997 11.4057C14.0055 11.1236 13.9369 10.845 13.8009 10.597V10.5807ZM6.18656 3.6375C6.18656 3.42171 6.27332 3.21475 6.42775 3.06216C6.58218 2.90957 6.79163 2.82385 7.01002 2.82385C7.22842 2.82385 7.43787 2.90957 7.5923 3.06216C7.74673 3.21475 7.83349 3.42171 7.83349 3.6375V7.37489C7.83349 7.59069 7.74673 7.79765 7.5923 7.95024C7.43787 8.10283 7.22842 8.18855 7.01002 8.18855C6.79163 8.18855 6.58218 8.10283 6.42775 7.95024C6.27332 7.79765 6.18656 7.59069 6.18656 7.37489V3.6375ZM7.03198 10.9658C6.84523 10.9658 6.66267 10.9111 6.50739 10.8086C6.35211 10.7061 6.23109 10.5604 6.15962 10.3899C6.08815 10.2194 6.06945 10.0318 6.10589 9.85082C6.14232 9.66984 6.23225 9.50359 6.36431 9.37311C6.49636 9.24263 6.66461 9.15377 6.84777 9.11777C7.03094 9.08177 7.22079 9.10025 7.39333 9.17086C7.56587 9.24148 7.71334 9.36106 7.81709 9.51449C7.92084 9.66792 7.97622 9.84831 7.97622 10.0328C7.97622 10.2803 7.87674 10.5176 7.69966 10.6926C7.52258 10.8675 7.28241 10.9658 7.03198 10.9658Z" fill="black"/>
</svg>
