<svg width="10" height="10" viewBox="0 0 10 10" fill="none" xmlns="http://www.w3.org/2000/svg">
<path d="M0 8.88889H10V10H0V8.88889ZM1.66667 7.22222C2.27778 7.22222 2.77778 6.72222 2.77778 6.11111C2.77778 5.83333 2.66667 5.55556 2.5 5.38889L3.22222 3.88889H3.33333C3.61111 3.88889 3.88889 3.77778 4.05556 3.61111L5.55556 4.38889V4.44444C5.55556 5.05556 6.05556 5.55556 6.66667 5.55556C7.27778 5.55556 7.77778 5.05556 7.77778 4.44444C7.77778 4.16667 7.66667 3.94444 7.5 3.72222L8.22222 2.22222H8.33333C8.94444 2.22222 9.44444 1.72222 9.44444 1.11111C9.44444 0.5 8.94444 0 8.33333 0C7.72222 0 7.22222 0.5 7.22222 1.11111C7.22222 1.38889 7.33333 1.66667 7.5 1.83333L6.77778 3.33333H6.66667C6.38889 3.33333 6.11111 3.44444 5.94444 3.61111L4.44444 2.88889V2.77778C4.44444 2.16667 3.94444 1.66667 3.33333 1.66667C2.72222 1.66667 2.22222 2.16667 2.22222 2.77778C2.22222 3.05556 2.33333 3.33333 2.5 3.5L1.77778 5H1.66667C1.05556 5 0.555556 5.5 0.555556 6.11111C0.555556 6.72222 1.05556 7.22222 1.66667 7.22222Z" fill="white"/>
</svg>
