<svg width="21" height="17" viewBox="0 0 21 17" fill="none" xmlns="http://www.w3.org/2000/svg">
<path d="M0.173242 16.5229C0.368533 16.8204 0.697168 17 1.04995 17H16.7992C17.2192 17 17.5993 16.7471 17.7641 16.3561L20.914 8.91862C20.983 8.75706 21.0112 8.58064 20.996 8.4053C20.9808 8.22995 20.9227 8.06119 20.827 7.91423C20.7313 7.76727 20.6009 7.64675 20.4476 7.56352C20.2943 7.48029 20.123 7.43698 19.9491 7.4375H18.8991V4.25C18.8991 3.07806 17.9573 2.125 16.7992 2.125H9.81179L7.12812 0H2.0999C0.941806 0 0 0.953062 0 2.125V15.9375H0.00734963C0.0050094 16.1448 0.0626763 16.3484 0.173242 16.5229ZM16.7992 4.25V7.4375H4.1998C3.77982 7.4375 3.39974 7.69037 3.2349 8.08138L2.0999 10.7621V4.25H16.7992Z" fill="black"/>
</svg>
