<svg width="10" height="10" viewBox="0 0 10 10" fill="none" xmlns="http://www.w3.org/2000/svg">
<path fill-rule="evenodd" clip-rule="evenodd" d="M0 1.66667C0 1.22464 0.175595 0.800716 0.488155 0.488155C0.800716 0.175595 1.22464 0 1.66667 0H8.33333C8.77536 0 9.19928 0.175595 9.51185 0.488155C9.82441 0.800716 10 1.22464 10 1.66667V8.33333C10 8.77536 9.82441 9.19928 9.51185 9.51185C9.19928 9.82441 8.77536 10 8.33333 10H1.66667C1.22464 10 0.800716 9.82441 0.488155 9.51185C0.175595 9.19928 0 8.77536 0 8.33333V1.66667ZM5.55556 2.77778C5.55556 2.63044 5.49702 2.48913 5.39284 2.38494C5.28865 2.28075 5.14734 2.22222 5 2.22222C4.85266 2.22222 4.71135 2.28075 4.60716 2.38494C4.50298 2.48913 4.44444 2.63044 4.44444 2.77778V7.22222C4.44444 7.36957 4.50298 7.51087 4.60716 7.61506C4.71135 7.71925 4.85266 7.77778 5 7.77778C5.14734 7.77778 5.28865 7.71925 5.39284 7.61506C5.49702 7.51087 5.55556 7.36957 5.55556 7.22222V2.77778ZM3.33333 4.44444C3.33333 4.2971 3.2748 4.15579 3.17061 4.05161C3.06643 3.94742 2.92512 3.88889 2.77778 3.88889C2.63044 3.88889 2.48913 3.94742 2.38494 4.05161C2.28075 4.15579 2.22222 4.2971 2.22222 4.44444V7.22222C2.22222 7.36957 2.28075 7.51087 2.38494 7.61506C2.48913 7.71925 2.63044 7.77778 2.77778 7.77778C2.92512 7.77778 3.06643 7.71925 3.17061 7.61506C3.2748 7.51087 3.33333 7.36957 3.33333 7.22222V4.44444ZM7.77778 6.11111C7.77778 5.96377 7.71925 5.82246 7.61506 5.71827C7.51087 5.61409 7.36957 5.55556 7.22222 5.55556C7.07488 5.55556 6.93357 5.61409 6.82939 5.71827C6.7252 5.82246 6.66667 5.96377 6.66667 6.11111V7.22222C6.66667 7.36957 6.7252 7.51087 6.82939 7.61506C6.93357 7.71925 7.07488 7.77778 7.22222 7.77778C7.36957 7.77778 7.51087 7.71925 7.61506 7.61506C7.71925 7.51087 7.77778 7.36957 7.77778 7.22222V6.11111Z" fill="white"/>
</svg>
