<svg width="10" height="10" viewBox="0 0 10 10" fill="none" xmlns="http://www.w3.org/2000/svg">
<path d="M5.93809 10H4.06223C3.94469 10 3.83068 9.96106 3.73911 9.88958C3.64753 9.8181 3.58389 9.71839 3.55873 9.607L3.34899 8.665C3.06919 8.54605 2.80387 8.3973 2.55793 8.2215L1.61124 8.514C1.49919 8.54867 1.37828 8.54511 1.2686 8.50391C1.15892 8.4627 1.06706 8.38634 1.00829 8.2875L0.0682943 6.712C0.010135 6.61307 -0.0116965 6.49791 0.00637144 6.38538C0.0244394 6.27284 0.0813371 6.16958 0.167756 6.0925L0.902124 5.4425C0.868728 5.14806 0.868728 4.85094 0.902124 4.5565L0.167756 3.908C0.0812147 3.83089 0.0242396 3.72754 0.00616871 3.61489C-0.0119022 3.50225 0.0100031 3.38698 0.0682943 3.288L1.00622 1.7115C1.065 1.61266 1.15686 1.5363 1.26654 1.49509C1.37622 1.45389 1.49712 1.45033 1.60918 1.485L2.55587 1.7775C2.68162 1.6875 2.81251 1.6035 2.94753 1.5275C3.07792 1.4565 3.21191 1.392 3.34899 1.3345L3.55925 0.3935C3.58428 0.282099 3.6478 0.182344 3.73928 0.110774C3.83077 0.0392049 3.94471 0.000119983 4.06223 0H5.93809C6.05561 0.000119983 6.16955 0.0392049 6.26103 0.110774C6.35251 0.182344 6.41604 0.282099 6.44107 0.3935L6.65339 1.335C6.79769 1.397 6.93889 1.4665 7.07546 1.544C7.20275 1.6155 7.32592 1.694 7.44445 1.7785L8.39165 1.486C8.50364 1.45146 8.62443 1.45509 8.734 1.49628C8.84357 1.53748 8.93534 1.61376 8.99409 1.7125L9.93202 3.289C10.0516 3.4925 10.0104 3.75 9.83256 3.9085L9.09819 4.5585C9.13159 4.85294 9.13159 5.15006 9.09819 5.4445L9.83256 6.0945C10.0104 6.2535 10.0516 6.5105 9.93202 6.714L8.99409 8.2905C8.93532 8.38934 8.84346 8.4657 8.73378 8.50691C8.6241 8.54811 8.50319 8.55167 8.39114 8.517L7.44445 8.2245C7.19869 8.40017 6.93355 8.54876 6.6539 8.6675L6.44107 9.607C6.41593 9.71831 6.35237 9.81795 6.2609 9.88942C6.16942 9.96089 6.05553 9.9999 5.93809 10ZM4.9981 3C4.45138 3 3.92706 3.21071 3.54048 3.58579C3.15389 3.96086 2.93671 4.46957 2.93671 5C2.93671 5.53043 3.15389 6.03914 3.54048 6.41421C3.92706 6.78929 4.45138 7 4.9981 7C5.54481 7 6.06913 6.78929 6.45572 6.41421C6.8423 6.03914 7.05948 5.53043 7.05948 5C7.05948 4.46957 6.8423 3.96086 6.45572 3.58579C6.06913 3.21071 5.54481 3 4.9981 3Z" fill="white"/>
</svg>
