<svg width="10" height="10" viewBox="0 0 10 10" fill="none" xmlns="http://www.w3.org/2000/svg">
<path d="M1.07143 0C0.787268 0 0.514746 0.112882 0.313814 0.313814C0.112882 0.514746 0 0.787268 0 1.07143V8.92857C0 9.21273 0.112882 9.48525 0.313814 9.68619C0.514746 9.88712 0.787268 10 1.07143 10H8.92857C9.21273 10 9.48525 9.88712 9.68619 9.68619C9.88712 9.48525 10 9.21273 10 8.92857V1.07143C10 0.787268 9.88712 0.514746 9.68619 0.313814C9.48525 0.112882 9.21273 0 8.92857 0H1.07143ZM4.53857 2.42571C4.57183 2.45889 4.59822 2.4983 4.61622 2.54169C4.63423 2.58508 4.6435 2.63159 4.6435 2.67857C4.6435 2.72555 4.63423 2.77206 4.61622 2.81545C4.59822 2.85884 4.57183 2.89825 4.53857 2.93143L3.28857 4.18143C3.22351 4.24642 3.13588 4.2838 3.04394 4.2858C2.95199 4.28779 2.86283 4.25425 2.795 4.19214L2.25929 3.70286C2.22288 3.67174 2.19311 3.63362 2.17174 3.59077C2.15036 3.54792 2.13783 3.5012 2.13487 3.4534C2.13192 3.40561 2.13861 3.3577 2.15454 3.31254C2.17047 3.26738 2.19533 3.22589 2.22762 3.19053C2.25991 3.15517 2.29899 3.12666 2.34252 3.10671C2.38606 3.08675 2.43316 3.07576 2.48103 3.07438C2.5289 3.07299 2.57655 3.08125 2.62117 3.09866C2.66578 3.11607 2.70643 3.14228 2.74071 3.17571L3.02429 3.43429L4.03286 2.42571C4.06603 2.39245 4.10544 2.36607 4.14883 2.34806C4.19222 2.33006 4.23874 2.32079 4.28571 2.32079C4.33269 2.32079 4.37921 2.33006 4.4226 2.34806C4.46598 2.36607 4.5054 2.39245 4.53857 2.42571ZM4.53857 5.99714C4.57183 6.03032 4.59822 6.06973 4.61622 6.11312C4.63423 6.15651 4.6435 6.20302 4.6435 6.25C4.6435 6.29698 4.63423 6.34349 4.61622 6.38688C4.59822 6.43027 4.57183 6.46968 4.53857 6.50286L3.28857 7.75286C3.22351 7.81785 3.13588 7.85523 3.04394 7.85723C2.95199 7.85922 2.86283 7.82568 2.795 7.76357L2.25929 7.27429C2.19294 7.20957 2.15435 7.12158 2.15167 7.02894C2.149 6.93629 2.18245 6.84623 2.24495 6.77779C2.30746 6.70934 2.39412 6.66788 2.48663 6.66217C2.57915 6.65645 2.67026 6.68692 2.74071 6.74714L3.02429 7.00643L4.03286 5.99714C4.06603 5.96388 4.10544 5.9375 4.14883 5.91949C4.19222 5.90149 4.23874 5.89222 4.28571 5.89222C4.33269 5.89222 4.37921 5.90149 4.4226 5.91949C4.46598 5.9375 4.5054 5.96388 4.53857 5.99714ZM5.71429 6.42857H7.5C7.59472 6.42857 7.68556 6.4662 7.75254 6.53318C7.81952 6.60015 7.85714 6.69099 7.85714 6.78571C7.85714 6.88043 7.81952 6.97128 7.75254 7.03825C7.68556 7.10523 7.59472 7.14286 7.5 7.14286H5.71429C5.61957 7.14286 5.52872 7.10523 5.46175 7.03825C5.39477 6.97128 5.35714 6.88043 5.35714 6.78571C5.35714 6.69099 5.39477 6.60015 5.46175 6.53318C5.52872 6.4662 5.61957 6.42857 5.71429 6.42857ZM5.35714 3.21429C5.35714 3.11957 5.39477 3.02872 5.46175 2.96175C5.52872 2.89477 5.61957 2.85714 5.71429 2.85714H7.5C7.59472 2.85714 7.68556 2.89477 7.75254 2.96175C7.81952 3.02872 7.85714 3.11957 7.85714 3.21429C7.85714 3.30901 7.81952 3.39985 7.75254 3.46682C7.68556 3.5338 7.59472 3.57143 7.5 3.57143H5.71429C5.61957 3.57143 5.52872 3.5338 5.46175 3.46682C5.39477 3.39985 5.35714 3.30901 5.35714 3.21429Z" fill="white"/>
</svg>
