<svg width="13" height="10" viewBox="0 0 13 10" fill="none" xmlns="http://www.w3.org/2000/svg">
<path d="M11.7 1.25H6.5L5.5835 0.36875C5.3365 0.13125 5.005 0 4.6605 0H1.3C0.585 0 0.00649999 0.5625 0.00649999 1.25L0 8.75C0 9.4375 0.585 10 1.3 10H11.7C12.415 10 13 9.4375 13 8.75V2.5C13 1.8125 12.415 1.25 11.7 1.25ZM7.15 5.625V7.5C7.15 7.84375 6.8575 8.125 6.5 8.125C6.1425 8.125 5.85 7.84375 5.85 7.5V5.625H4.6865C4.394 5.625 4.251 5.2875 4.459 5.09375L6.279 3.35C6.409 3.225 6.6105 3.23125 6.7405 3.35L8.554 5.09375C8.749 5.2875 8.606 5.625 8.32 5.625H7.15Z" fill="white"/>
</svg>
