<svg width="10" height="10" viewBox="0 0 10 10" fill="none" xmlns="http://www.w3.org/2000/svg">
<path d="M9.5005 5C9.50046 4.40902 9.38403 3.82383 9.15784 3.27785C8.93165 2.73187 8.60014 2.23578 8.18223 1.81792C7.76432 1.40005 7.2682 1.06859 6.72219 0.842465C6.17618 0.616337 5.59098 0.499967 5 0.5C4.40902 0.500033 3.82383 0.616468 3.27785 0.842657C2.73186 1.06885 2.23578 1.40036 1.81792 1.81827C1.40005 2.23618 1.06859 2.7323 0.842465 3.27831C0.616337 3.82432 0.499967 4.40952 0.5 5.0005C0.500066 6.19404 0.974262 7.33867 1.81827 8.18258C2.66228 9.0265 3.80696 9.50057 5.0005 9.5005C6.19404 9.50043 7.33867 9.02624 8.18258 8.18223C9.0265 7.33822 9.50056 6.19354 9.5005 5ZM5.0005 1.3C5.4155 1.3 5.7505 1.635 5.7505 2.05C5.7505 2.465 5.4155 2.805 5.0005 2.805C4.5905 2.805 4.2505 2.465 4.2505 2.05C4.2505 1.635 4.5905 1.3 5.0005 1.3ZM1.7005 3.68C1.7005 3.355 5.0005 3.3 5.0005 3.3C5.0005 3.3 8.3005 3.355 8.3005 3.68C8.3005 4.005 6.0655 4.38 6.0655 4.38C6.0655 4.38 6.9105 8.45 6.5955 8.57C6.2855 8.69 5.0005 5.975 5.0005 5.975C5.0005 5.975 3.7205 8.69 3.4105 8.57C3.0955 8.45 3.9405 4.38 3.9405 4.38C3.9405 4.38 1.7005 4.005 1.7005 3.68Z" fill="white"/>
</svg>
