<!-- Generated by IcoMoon.io -->
<svg version="1.1" xmlns="http://www.w3.org/2000/svg" width="32" height="32" viewBox="0 0 32 32">
<title>settings</title>
<path d="M18.923 31.757c0.165-0.028 0.306-0.103 0.421-0.227s0.186-0.278 0.214-0.462l0.234-1.668c0.34-0.092 0.68-0.2 1.020-0.324s0.671-0.26 0.993-0.407l1.241 1.117c0.129 0.129 0.276 0.202 0.441 0.221s0.331-0.018 0.496-0.11c0.313-0.175 0.432-0.46 0.358-0.855l-0.345-1.654c0.285-0.193 0.568-0.404 0.848-0.634s0.549-0.473 0.806-0.731l1.53 0.648c0.358 0.147 0.671 0.064 0.938-0.248 0.11-0.129 0.172-0.273 0.186-0.434s-0.030-0.319-0.131-0.476l-0.896-1.434c0.211-0.285 0.402-0.584 0.572-0.896s0.333-0.634 0.489-0.965l1.696 0.083c0.175 0.009 0.333-0.032 0.476-0.124s0.241-0.225 0.296-0.4c0.055-0.165 0.057-0.329 0.007-0.489s-0.145-0.296-0.283-0.407l-1.324-1.048c0.092-0.331 0.172-0.673 0.241-1.027s0.117-0.719 0.145-1.096l1.585-0.496c0.377-0.129 0.565-0.381 0.565-0.758 0-0.368-0.188-0.616-0.565-0.745l-1.585-0.51c-0.028-0.368-0.076-0.726-0.145-1.075s-0.149-0.694-0.241-1.034l1.324-1.062c0.138-0.101 0.232-0.227 0.283-0.379s0.048-0.315-0.007-0.489c-0.055-0.175-0.154-0.308-0.296-0.4s-0.301-0.133-0.476-0.124l-1.696 0.069c-0.156-0.331-0.319-0.65-0.489-0.958s-0.361-0.609-0.572-0.903l0.896-1.434c0.101-0.147 0.145-0.301 0.131-0.462s-0.076-0.306-0.186-0.434c-0.267-0.313-0.579-0.395-0.938-0.248l-1.53 0.62c-0.257-0.239-0.526-0.476-0.806-0.71s-0.563-0.448-0.848-0.641l0.345-1.641c0.037-0.193 0.025-0.365-0.034-0.517s-0.168-0.269-0.324-0.352c-0.165-0.092-0.331-0.129-0.496-0.11s-0.313 0.096-0.441 0.234l-1.241 1.089c-0.322-0.147-0.653-0.278-0.993-0.393s-0.68-0.223-1.020-0.324l-0.234-1.668c-0.028-0.175-0.099-0.324-0.214-0.448s-0.26-0.2-0.434-0.227c-0.184-0.028-0.349-0.005-0.496 0.069s-0.257 0.184-0.331 0.331l-0.786 1.517c-0.193-0.018-0.375-0.032-0.545-0.041s-0.347-0.014-0.531-0.014c-0.184 0-0.363 0.005-0.538 0.014s-0.354 0.023-0.538 0.041l-0.8-1.517c-0.074-0.147-0.184-0.257-0.331-0.331s-0.313-0.097-0.496-0.069c-0.175 0.028-0.319 0.103-0.434 0.227s-0.182 0.273-0.2 0.448l-0.248 1.654c-0.34 0.101-0.678 0.211-1.013 0.331s-0.669 0.253-1 0.4l-1.241-1.089c-0.129-0.138-0.276-0.216-0.441-0.234s-0.331 0.018-0.496 0.11c-0.156 0.083-0.264 0.2-0.324 0.352s-0.071 0.324-0.034 0.517l0.345 1.641c-0.285 0.193-0.568 0.407-0.848 0.641s-0.549 0.471-0.806 0.71l-1.53-0.62c-0.358-0.147-0.666-0.064-0.924 0.248-0.12 0.129-0.186 0.273-0.2 0.434s0.030 0.31 0.131 0.448l0.896 1.448c-0.202 0.294-0.391 0.595-0.565 0.903s-0.34 0.627-0.496 0.958l-1.682-0.069c-0.184-0.009-0.345 0.032-0.483 0.124s-0.239 0.225-0.303 0.4c-0.055 0.175-0.060 0.338-0.014 0.489s0.142 0.278 0.289 0.379l1.324 1.062c-0.092 0.34-0.17 0.685-0.234 1.034s-0.106 0.708-0.124 1.075l-1.613 0.51c-0.368 0.12-0.551 0.368-0.551 0.745s0.184 0.63 0.551 0.758l1.613 0.51c0.018 0.368 0.060 0.728 0.124 1.082s0.142 0.696 0.234 1.027l-1.324 1.048c-0.138 0.11-0.23 0.244-0.276 0.4s-0.046 0.322 0 0.496c0.064 0.175 0.165 0.308 0.303 0.4s0.299 0.133 0.483 0.124l1.682-0.083c0.156 0.331 0.322 0.653 0.496 0.965s0.363 0.611 0.565 0.896l-0.896 1.434c-0.101 0.156-0.145 0.315-0.131 0.476s0.080 0.306 0.2 0.434c0.257 0.313 0.565 0.395 0.924 0.248l1.53-0.648c0.257 0.257 0.526 0.501 0.806 0.731s0.563 0.441 0.848 0.634l-0.345 1.654c-0.037 0.184-0.025 0.352 0.034 0.503s0.168 0.269 0.324 0.352c0.175 0.092 0.342 0.129 0.503 0.11s0.306-0.092 0.434-0.221l1.241-1.117c0.331 0.147 0.664 0.283 1 0.407s0.673 0.232 1.013 0.324l0.248 1.668c0.018 0.184 0.085 0.338 0.2 0.462s0.26 0.2 0.434 0.227c0.184 0.028 0.349 0.005 0.496-0.069s0.257-0.188 0.331-0.345l0.8-1.517c0.184 0.018 0.363 0.034 0.538 0.048s0.354 0.021 0.538 0.021c0.184 0 0.361-0.007 0.531-0.021s0.352-0.030 0.545-0.048l0.786 1.517c0.074 0.156 0.184 0.271 0.331 0.345s0.317 0.096 0.51 0.069zM27.381 15.586l-7.7-0c-0.322-0.873-0.788-1.54-1.399-1.999s-1.307-0.689-2.089-0.689c-0.129 0-0.267 0.009-0.414 0.028s-0.331 0.051-0.551 0.097l-3.951-6.76 0.539-0.25c1.356-0.584 2.824-0.875 4.405-0.875s3.049 0.292 4.405 0.875c1.356 0.584 2.541 1.392 3.557 2.426s1.808 2.238 2.378 3.612c0.427 1.031 0.695 2.117 0.801 3.258l0.019 0.278zM9.596 25.658l-0.425-0.329c-0.318-0.259-0.622-0.536-0.912-0.831-1.016-1.034-1.808-2.238-2.378-3.612s-0.855-2.847-0.855-4.419c0-1.572 0.285-3.045 0.855-4.419s1.363-2.578 2.378-3.612c0.435-0.443 0.902-0.845 1.399-1.205l0.030-0.022 3.995 6.804c-0.377 0.386-0.655 0.788-0.834 1.206s-0.269 0.852-0.269 1.303c0 0.432 0.087 0.85 0.262 1.255s0.45 0.809 0.827 1.213l-4.074 6.668zM16.221 18.191c-0.45 0-0.843-0.165-1.179-0.496s-0.503-0.726-0.503-1.186c0-0.469 0.168-0.864 0.503-1.186s0.728-0.483 1.179-0.483c0.46 0 0.857 0.161 1.193 0.483s0.503 0.717 0.503 1.186c0 0.46-0.168 0.855-0.503 1.186s-0.733 0.496-1.193 0.496zM16.221 27.801c-1.581 0-3.049-0.292-4.405-0.875l-0.571-0.264-0.064-0.032 4.047-6.632c0.211 0.055 0.393 0.092 0.545 0.11s0.292 0.028 0.421 0.028c0.79 0 1.491-0.237 2.102-0.71s1.073-1.156 1.386-2.047l7.698 0-0.017 0.25c-0.107 1.142-0.374 2.228-0.801 3.258-0.57 1.374-1.363 2.578-2.378 3.612s-2.201 1.843-3.557 2.426c-1.356 0.584-2.824 0.875-4.405 0.875z"></path>
</svg>
